<svg fill="#F1F2F4" xmlns:dc="http://purl.org/dc/elements/1.1/" xmlns:cc="http://creativecommons.org/ns#" xmlns:rdf="http://www.w3.org/1999/02/22-rdf-syntax-ns#" xmlns:svg="http://www.w3.org/2000/svg" xmlns="http://www.w3.org/2000/svg" xmlns:sodipodi="http://sodipodi.sourceforge.net/DTD/sodipodi-0.dtd" xmlns:inkscape="http://www.inkscape.org/namespaces/inkscape" version="1.1" x="0px" y="0px" viewBox="0 0 100 100"><g transform="translate(0,-952.36218)"><g transform="matrix(1.0798011,0,0,1.0798011,-0.39140872,-76.30386)" style="" stroke="#F1F2F4" fill="none"><path style="text-indent:0;text-transform:none;direction:ltr;block-progression:tb;baseline-shift:baseline;color:#000000;enable-background:accumulate;" d="M 13.8125 5.875 A 1.0001058 1.0000942 0 0 0 13.46875 6.03125 L 5.46875 10.625 A 1.0001058 1.0000942 0 0 0 5 11.46875 L 5 20.75 A 1.0001058 1.0000942 0 0 0 5.46875 21.59375 L 13.46875 26.1875 A 1.0001058 1.0000942 0 0 0 14.5 26.1875 L 22.5 21.59375 A 1.0001058 1.0000942 0 0 0 22.96875 20.75 L 22.96875 11.46875 A 1.0001058 1.0000942 0 0 0 22.5 10.625 L 14.5 6.03125 A 1.0001058 1.0000942 0 0 0 13.8125 5.875 z M 34.40625 5.875 A 1.0001058 1.0000942 0 0 0 34.0625 6.03125 L 26.0625 10.625 A 1.0001058 1.0000942 0 0 0 25.5625 11.46875 L 25.5625 20.75 A 1.0001058 1.0000942 0 0 0 26.0625 21.59375 L 34.0625 26.1875 A 1.0001058 1.0000942 0 0 0 35.0625 26.1875 L 43.0625 21.59375 A 1.0001058 1.0000942 0 0 0 43.5625 20.75 L 43.5625 11.46875 A 1.0001058 1.0000942 0 0 0 43.0625 10.625 L 35.0625 6.03125 A 1.0001058 1.0000942 0 0 0 34.40625 5.875 z M 54.96875 5.875 A 1.0001058 1.0000942 0 0 0 54.625 6.03125 L 46.625 10.625 A 1.0001058 1.0000942 0 0 0 46.15625 11.46875 L 46.15625 20.75 A 1.0001058 1.0000942 0 0 0 46.625 21.59375 L 54.625 26.1875 A 1.0001058 1.0000942 0 0 0 55.65625 26.1875 L 63.65625 21.59375 A 1.0001058 1.0000942 0 0 0 64.125 20.75 L 64.125 11.46875 A 1.0001058 1.0000942 0 0 0 63.65625 10.625 L 55.65625 6.03125 A 1.0001058 1.0000942 0 0 0 54.96875 5.875 z M 75.5625 5.875 A 1.0001058 1.0000942 0 0 0 75.21875 6.03125 L 67.21875 10.625 A 1.0001058 1.0000942 0 0 0 66.75 11.46875 L 66.75 20.75 A 1.0001058 1.0000942 0 0 0 67.21875 21.59375 L 75.21875 26.1875 A 1.0001058 1.0000942 0 0 0 76.25 26.1875 L 84.25 21.59375 A 1.0001058 1.0000942 0 0 0 84.71875 20.75 L 84.71875 11.46875 A 1.0001058 1.0000942 0 0 0 84.25 10.625 L 76.25 6.03125 A 1.0001058 1.0000942 0 0 0 75.5625 5.875 z M 13.96875 8.0625 L 20.96875 12.0625 L 20.96875 20.15625 L 13.96875 24.15625 L 7 20.15625 L 7 12.0625 L 13.96875 8.0625 z M 34.5625 8.0625 L 41.5625 12.0625 L 41.5625 20.15625 L 34.5625 24.15625 L 27.5625 20.15625 L 27.5625 12.0625 L 34.5625 8.0625 z M 55.15625 8.0625 L 62.125 12.0625 L 62.125 20.15625 L 55.15625 24.15625 L 48.15625 20.15625 L 48.15625 12.0625 L 55.15625 8.0625 z M 75.71875 8.0625 L 82.71875 12.0625 L 82.71875 20.15625 L 75.71875 24.15625 L 68.75 20.15625 L 68.75 12.0625 L 75.71875 8.0625 z M 24.09375 22.8125 A 1.0001058 1.0000942 0 0 0 23.75 22.96875 L 15.75 27.5625 A 1.0001058 1.0000942 0 0 0 15.28125 28.4375 L 15.28125 37.6875 A 1.0001058 1.0000942 0 0 0 15.75 38.53125 L 23.75 43.15625 A 1.0001058 1.0000942 0 0 0 24.78125 43.15625 L 32.78125 38.53125 A 1.0001058 1.0000942 0 0 0 33.25 37.6875 L 33.25 28.4375 A 1.0001058 1.0000942 0 0 0 32.78125 27.5625 L 24.78125 22.96875 A 1.0001058 1.0000942 0 0 0 24.09375 22.8125 z M 44.6875 22.8125 A 1.0001058 1.0000942 0 0 0 44.34375 22.96875 L 36.34375 27.5625 A 1.0001058 1.0000942 0 0 0 35.875 28.4375 L 35.875 37.6875 A 1.0001058 1.0000942 0 0 0 36.34375 38.53125 L 44.34375 43.15625 A 1.0001058 1.0000942 0 0 0 45.375 43.15625 L 53.375 38.53125 A 1.0001058 1.0000942 0 0 0 53.84375 37.6875 L 53.84375 28.4375 A 1.0001058 1.0000942 0 0 0 53.375 27.5625 L 45.375 22.96875 A 1.0001058 1.0000942 0 0 0 44.6875 22.8125 z M 65.28125 22.8125 A 1.0001058 1.0000942 0 0 0 64.9375 22.96875 L 56.9375 27.5625 A 1.0001058 1.0000942 0 0 0 56.4375 28.4375 L 56.4375 37.6875 A 1.0001058 1.0000942 0 0 0 56.9375 38.53125 L 64.9375 43.15625 A 1.0001058 1.0000942 0 0 0 65.9375 43.15625 L 73.9375 38.53125 A 1.0001058 1.0000942 0 0 0 74.4375 37.6875 L 74.4375 28.4375 A 1.0001058 1.0000942 0 0 0 73.9375 27.5625 L 65.9375 22.96875 A 1.0001058 1.0000942 0 0 0 65.28125 22.8125 z M 85.84375 22.8125 A 1.0001058 1.0000942 0 0 0 85.5 22.96875 L 77.5 27.5625 A 1.0001058 1.0000942 0 0 0 77.03125 28.4375 L 77.03125 37.6875 A 1.0001058 1.0000942 0 0 0 77.5 38.53125 L 85.5 43.15625 A 1.0001058 1.0000942 0 0 0 86.53125 43.15625 L 94.53125 38.53125 A 1.0001058 1.0000942 0 0 0 95 37.6875 L 95 28.4375 A 1.0001058 1.0000942 0 0 0 94.53125 27.5625 L 86.53125 22.96875 A 1.0001058 1.0000942 0 0 0 85.84375 22.8125 z M 24.28125 25 L 31.25 29 L 31.25 37.09375 L 24.28125 41.09375 L 17.28125 37.09375 L 17.28125 29 L 24.28125 25 z M 44.84375 25 L 51.84375 29 L 51.84375 37.09375 L 44.84375 41.09375 L 37.875 37.09375 L 37.875 29 L 44.84375 25 z M 65.4375 25 L 72.4375 29 L 72.4375 37.09375 L 65.4375 41.09375 L 58.4375 37.09375 L 58.4375 29 L 65.4375 25 z M 86.03125 25 L 93 29 L 93 37.09375 L 86.03125 41.09375 L 79.03125 37.09375 L 79.03125 29 L 86.03125 25 z M 13.90625 39.75 A 1.0001058 1.0000942 0 0 0 13.8125 39.78125 A 1.0001058 1.0000942 0 0 0 13.46875 39.90625 L 5.46875 44.53125 A 1.0001058 1.0000942 0 0 0 5 45.375 L 5 54.625 A 1.0001058 1.0000942 0 0 0 5.46875 55.46875 L 13.46875 60.09375 A 1.0001058 1.0000942 0 0 0 14.5 60.09375 L 22.5 55.46875 A 1.0001058 1.0000942 0 0 0 22.96875 54.625 L 22.96875 45.375 A 1.0001058 1.0000942 0 0 0 22.5 44.53125 L 14.5 39.90625 A 1.0001058 1.0000942 0 0 0 13.90625 39.75 z M 34.5 39.75 A 1.0001058 1.0000942 0 0 0 34.40625 39.78125 A 1.0001058 1.0000942 0 0 0 34.0625 39.90625 L 26.0625 44.53125 A 1.0001058 1.0000942 0 0 0 25.5625 45.375 L 25.5625 54.625 A 1.0001058 1.0000942 0 0 0 26.0625 55.46875 L 34.0625 60.09375 A 1.0001058 1.0000942 0 0 0 35.0625 60.09375 L 43.0625 55.46875 A 1.0001058 1.0000942 0 0 0 43.5625 54.625 L 43.5625 45.375 A 1.0001058 1.0000942 0 0 0 43.0625 44.53125 L 35.0625 39.90625 A 1.0001058 1.0000942 0 0 0 34.5 39.75 z M 55.09375 39.75 A 1.0001058 1.0000942 0 0 0 54.96875 39.78125 A 1.0001058 1.0000942 0 0 0 54.625 39.90625 L 46.625 44.53125 A 1.0001058 1.0000942 0 0 0 46.15625 45.375 L 46.15625 54.625 A 1.0001058 1.0000942 0 0 0 46.625 55.46875 L 54.625 60.09375 A 1.0001058 1.0000942 0 0 0 55.65625 60.09375 L 63.65625 55.46875 A 1.0001058 1.0000942 0 0 0 64.125 54.625 L 64.125 45.375 A 1.0001058 1.0000942 0 0 0 63.65625 44.53125 L 55.65625 39.90625 A 1.0001058 1.0000942 0 0 0 55.09375 39.75 z M 75.65625 39.75 A 1.0001058 1.0000942 0 0 0 75.5625 39.78125 A 1.0001058 1.0000942 0 0 0 75.21875 39.90625 L 67.21875 44.53125 A 1.0001058 1.0000942 0 0 0 66.75 45.375 L 66.75 54.625 A 1.0001058 1.0000942 0 0 0 67.21875 55.46875 L 75.21875 60.09375 A 1.0001058 1.0000942 0 0 0 76.25 60.09375 L 84.25 55.46875 A 1.0001058 1.0000942 0 0 0 84.71875 54.625 L 84.71875 45.375 A 1.0001058 1.0000942 0 0 0 84.25 44.53125 L 76.25 39.90625 A 1.0001058 1.0000942 0 0 0 75.65625 39.75 z M 13.96875 41.9375 L 20.96875 45.9375 L 20.96875 54.0625 L 13.96875 58.0625 L 7 54.0625 L 7 45.9375 L 13.96875 41.9375 z M 34.5625 41.9375 L 41.5625 45.9375 L 41.5625 54.0625 L 34.5625 58.0625 L 27.5625 54.0625 L 27.5625 45.9375 L 34.5625 41.9375 z M 55.15625 41.9375 L 62.125 45.9375 L 62.125 54.0625 L 55.15625 58.0625 L 48.15625 54.0625 L 48.15625 45.9375 L 55.15625 41.9375 z M 75.71875 41.9375 L 82.71875 45.9375 L 82.71875 54.0625 L 75.71875 58.0625 L 68.75 54.0625 L 68.75 45.9375 L 75.71875 41.9375 z M 24.09375 56.71875 A 1.0001058 1.0000942 0 0 0 23.75 56.84375 L 15.75 61.46875 A 1.0001058 1.0000942 0 0 0 15.28125 62.3125 L 15.28125 71.5625 A 1.0001058 1.0000942 0 0 0 15.75 72.40625 L 23.75 77.03125 A 1.0001058 1.0000942 0 0 0 24.78125 77.03125 L 32.78125 72.40625 A 1.0001058 1.0000942 0 0 0 33.25 71.5625 L 33.25 62.3125 A 1.0001058 1.0000942 0 0 0 32.78125 61.46875 L 24.78125 56.84375 A 1.0001058 1.0000942 0 0 0 24.09375 56.71875 z M 44.6875 56.71875 A 1.0001058 1.0000942 0 0 0 44.34375 56.84375 L 36.34375 61.46875 A 1.0001058 1.0000942 0 0 0 35.875 62.3125 L 35.875 71.5625 A 1.0001058 1.0000942 0 0 0 36.34375 72.40625 L 44.34375 77.03125 A 1.0001058 1.0000942 0 0 0 45.375 77.03125 L 53.375 72.40625 A 1.0001058 1.0000942 0 0 0 53.84375 71.5625 L 53.84375 62.3125 A 1.0001058 1.0000942 0 0 0 53.375 61.46875 L 45.375 56.84375 A 1.0001058 1.0000942 0 0 0 44.6875 56.71875 z M 65.28125 56.71875 A 1.0001058 1.0000942 0 0 0 64.9375 56.84375 L 56.9375 61.46875 A 1.0001058 1.0000942 0 0 0 56.4375 62.3125 L 56.4375 71.5625 A 1.0001058 1.0000942 0 0 0 56.9375 72.40625 L 64.9375 77.03125 A 1.0001058 1.0000942 0 0 0 65.9375 77.03125 L 73.9375 72.40625 A 1.0001058 1.0000942 0 0 0 74.4375 71.5625 L 74.4375 62.3125 A 1.0001058 1.0000942 0 0 0 73.9375 61.46875 L 65.9375 56.84375 A 1.0001058 1.0000942 0 0 0 65.28125 56.71875 z M 85.84375 56.71875 A 1.0001058 1.0000942 0 0 0 85.5 56.84375 L 77.5 61.46875 A 1.0001058 1.0000942 0 0 0 77.03125 62.3125 L 77.03125 71.5625 A 1.0001058 1.0000942 0 0 0 77.5 72.40625 L 85.5 77.03125 A 1.0001058 1.0000942 0 0 0 86.53125 77.03125 L 94.53125 72.40625 A 1.0001058 1.0000942 0 0 0 95 71.5625 L 95 62.3125 A 1.0001058 1.0000942 0 0 0 94.53125 61.46875 L 86.53125 56.84375 A 1.0001058 1.0000942 0 0 0 85.84375 56.71875 z M 24.28125 58.875 L 31.25 62.875 L 31.25 71 L 24.28125 75 L 17.28125 71 L 17.28125 62.875 L 24.28125 58.875 z M 44.84375 58.875 L 51.84375 62.875 L 51.84375 71 L 44.84375 75 L 37.875 71 L 37.875 62.875 L 44.84375 58.875 z M 65.4375 58.875 L 72.4375 62.875 L 72.4375 71 L 65.4375 75 L 58.4375 71 L 58.4375 62.875 L 65.4375 58.875 z M 86.03125 58.875 L 93 62.875 L 93 71 L 86.03125 75 L 79.03125 71 L 79.03125 62.875 L 86.03125 58.875 z M 13.8125 73.65625 A 1.0001058 1.0000942 0 0 0 13.46875 73.78125 L 5.46875 78.40625 A 1.0001058 1.0000942 0 0 0 5 79.25 L 5 88.5 A 1.0001058 1.0000942 0 0 0 5.46875 89.375 L 13.46875 93.96875 A 1.0001058 1.0000942 0 0 0 14.5 93.96875 L 22.5 89.375 A 1.0001058 1.0000942 0 0 0 22.96875 88.5 L 22.96875 79.25 A 1.0001058 1.0000942 0 0 0 22.5 78.40625 L 14.5 73.78125 A 1.0001058 1.0000942 0 0 0 13.8125 73.65625 z M 34.40625 73.65625 A 1.0001058 1.0000942 0 0 0 34.0625 73.78125 L 26.0625 78.40625 A 1.0001058 1.0000942 0 0 0 25.5625 79.25 L 25.5625 88.5 A 1.0001058 1.0000942 0 0 0 26.0625 89.375 L 34.0625 93.96875 A 1.0001058 1.0000942 0 0 0 35.0625 93.96875 L 43.0625 89.375 A 1.0001058 1.0000942 0 0 0 43.5625 88.5 L 43.5625 79.25 A 1.0001058 1.0000942 0 0 0 43.0625 78.40625 L 35.0625 73.78125 A 1.0001058 1.0000942 0 0 0 34.40625 73.65625 z M 54.96875 73.65625 A 1.0001058 1.0000942 0 0 0 54.625 73.78125 L 46.625 78.40625 A 1.0001058 1.0000942 0 0 0 46.15625 79.25 L 46.15625 88.5 A 1.0001058 1.0000942 0 0 0 46.625 89.375 L 54.625 93.96875 A 1.0001058 1.0000942 0 0 0 55.65625 93.96875 L 63.65625 89.375 A 1.0001058 1.0000942 0 0 0 64.125 88.5 L 64.125 79.25 A 1.0001058 1.0000942 0 0 0 63.65625 78.40625 L 55.65625 73.78125 A 1.0001058 1.0000942 0 0 0 54.96875 73.65625 z M 75.5625 73.65625 A 1.0001058 1.0000942 0 0 0 75.21875 73.78125 L 67.21875 78.40625 A 1.0001058 1.0000942 0 0 0 66.75 79.25 L 66.75 88.5 A 1.0001058 1.0000942 0 0 0 67.21875 89.375 L 75.21875 93.96875 A 1.0001058 1.0000942 0 0 0 76.25 93.96875 L 84.25 89.375 A 1.0001058 1.0000942 0 0 0 84.71875 88.5 L 84.71875 79.25 A 1.0001058 1.0000942 0 0 0 84.25 78.40625 L 76.25 73.78125 A 1.0001058 1.0000942 0 0 0 75.5625 73.65625 z M 13.96875 75.84375 L 20.96875 79.84375 L 20.96875 87.9375 L 13.96875 91.9375 L 7 87.9375 L 7 79.84375 L 13.96875 75.84375 z M 34.5625 75.84375 L 41.5625 79.84375 L 41.5625 87.9375 L 34.5625 91.9375 L 27.5625 87.9375 L 27.5625 79.84375 L 34.5625 75.84375 z M 55.15625 75.84375 L 62.125 79.84375 L 62.125 87.9375 L 55.15625 91.9375 L 48.15625 87.9375 L 48.15625 79.84375 L 55.15625 75.84375 z M 75.71875 75.84375 L 82.71875 79.84375 L 82.71875 87.9375 L 75.71875 91.9375 L 68.75 87.9375 L 68.75 79.84375 L 75.71875 75.84375 z " transform="matrix(0.92609648,0,0,0.92609648,0.36248224,952.644)" fill="#F1F2F4" fill-opacity="1" stroke="none" marker="none" visibility="visible" display="inline" overflow="visible"></path></g></g></svg>