<svg fill="#F1F2F4" xmlns="http://www.w3.org/2000/svg" xmlns:xlink="http://www.w3.org/1999/xlink" version="1.1" x="0px" y="0px" viewBox="0 0 90 90" enable-background="new 0 0 90 90" xml:space="preserve"><g><path d="M16.478,20.754c-0.063,0-0.125-0.017-0.183-0.049L1.931,12.411c-0.113-0.065-0.183-0.186-0.183-0.316   c0-0.13,0.069-0.26,0.183-0.325l14.364-8.293c0.113-0.066,0.252-0.066,0.366,0c0.113,0.064,0.182,0.186,0.182,0.316v16.595   c0,0.13-0.069,0.25-0.182,0.316C16.604,20.737,16.541,20.754,16.478,20.754z M2.837,12.091l13.276,7.665V4.426L2.837,12.091z"></path><path d="M16.478,20.754c-0.063,0-0.125-0.017-0.183-0.049c-0.113-0.066-0.183-0.186-0.183-0.316V3.794   c0-0.131,0.07-0.252,0.183-0.316c0.113-0.066,0.252-0.066,0.366,0l14.364,8.293c0.113,0.065,0.182,0.186,0.182,0.316   s-0.069,0.259-0.182,0.324l-14.364,8.294C16.604,20.737,16.541,20.754,16.478,20.754z M16.843,4.426v15.33l13.276-7.665   L16.843,4.426z"></path><path d="M2.121,29.043c-0.063,0-0.125-0.017-0.18-0.048l-0.007-0.004c-0.114-0.065-0.185-0.187-0.185-0.317V12.095   c0-0.13,0.069-0.251,0.183-0.316c0.113-0.066,0.252-0.066,0.365,0l14.365,8.293c0.113,0.065,0.182,0.186,0.182,0.316   c0,0.13-0.069,0.25-0.182,0.316L2.303,28.994C2.247,29.026,2.184,29.043,2.121,29.043z M2.479,12.728v15.321l13.269-7.66   L2.479,12.728z"></path><path d="M30.833,29.041c-0.063,0-0.125-0.016-0.181-0.047l-14.357-8.289c-0.113-0.066-0.183-0.186-0.183-0.316   c0-0.131,0.07-0.251,0.183-0.316l14.364-8.294c0.113-0.065,0.252-0.065,0.366,0c0.113,0.065,0.182,0.187,0.182,0.316v16.579   c0,0.131-0.07,0.252-0.185,0.317C30.965,29.023,30.898,29.041,30.833,29.041z M17.208,20.389l13.269,7.66V12.728L17.208,20.389z"></path><path d="M16.478,37.332c-0.063,0-0.125-0.017-0.183-0.049c-0.113-0.066-0.183-0.186-0.183-0.316V20.389   c0-0.131,0.07-0.251,0.183-0.316c0.113-0.066,0.252-0.066,0.366,0l14.357,8.289c0.113,0.065,0.182,0.186,0.182,0.316   s-0.069,0.251-0.182,0.316l-14.357,8.29C16.604,37.315,16.541,37.332,16.478,37.332z M16.843,21.021v15.313l13.262-7.657   L16.843,21.021z"></path><path d="M16.478,37.332c-0.063,0-0.125-0.017-0.183-0.049l-14.357-8.29c-0.113-0.065-0.183-0.186-0.183-0.316   s0.069-0.251,0.183-0.316l14.357-8.289c0.113-0.066,0.252-0.066,0.366,0c0.113,0.065,0.182,0.186,0.182,0.316v16.578   c0,0.131-0.069,0.25-0.182,0.316C16.604,37.315,16.541,37.332,16.478,37.332z M2.851,28.677l13.262,7.657V21.021L2.851,28.677z"></path></g><g><path d="M45.206,20.754c-0.064,0-0.126-0.017-0.183-0.049l-14.364-8.294c-0.113-0.065-0.183-0.186-0.183-0.316   c0-0.13,0.07-0.26,0.183-0.325l14.364-8.293c0.113-0.066,0.252-0.066,0.365,0c0.113,0.064,0.183,0.186,0.183,0.316v16.595   c0,0.13-0.07,0.25-0.183,0.316C45.332,20.737,45.269,20.754,45.206,20.754z M31.565,12.091l13.276,7.665V4.426L31.565,12.091z"></path><path d="M45.206,20.754c-0.064,0-0.126-0.017-0.183-0.049c-0.113-0.066-0.182-0.186-0.182-0.316V3.794   c0-0.131,0.069-0.252,0.182-0.316c0.113-0.066,0.252-0.066,0.365,0l14.364,8.293c0.114,0.065,0.184,0.186,0.184,0.316   s-0.069,0.259-0.184,0.324l-14.364,8.294C45.332,20.737,45.269,20.754,45.206,20.754z M45.571,4.426v15.33l13.275-7.665   L45.571,4.426z"></path><path d="M30.849,29.043c-0.063,0-0.125-0.017-0.18-0.048l-0.007-0.004c-0.114-0.065-0.185-0.187-0.185-0.317V12.095   c0-0.13,0.07-0.251,0.183-0.316c0.113-0.066,0.252-0.066,0.366,0l14.364,8.293c0.113,0.065,0.183,0.186,0.183,0.316   c0,0.13-0.07,0.25-0.183,0.316l-14.357,8.289C30.975,29.026,30.912,29.043,30.849,29.043z M31.207,12.728v15.321l13.269-7.66   L31.207,12.728z"></path><path d="M59.562,29.041c-0.064,0-0.127-0.016-0.181-0.047l-14.358-8.289c-0.113-0.066-0.182-0.186-0.182-0.316   c0-0.131,0.069-0.251,0.182-0.316l14.365-8.294c0.113-0.065,0.252-0.065,0.364,0c0.114,0.065,0.184,0.186,0.184,0.316v16.579   c0,0.131-0.07,0.252-0.186,0.317C59.692,29.023,59.627,29.041,59.562,29.041z M45.936,20.389l13.268,7.66V12.728L45.936,20.389z"></path><path d="M45.206,37.332c-0.064,0-0.126-0.017-0.183-0.049c-0.113-0.066-0.182-0.186-0.182-0.316V20.389   c0-0.131,0.069-0.251,0.182-0.316c0.113-0.066,0.252-0.066,0.365,0l14.358,8.289c0.112,0.065,0.183,0.186,0.183,0.316   s-0.07,0.251-0.183,0.316l-14.358,8.29C45.332,37.315,45.269,37.332,45.206,37.332z M45.571,21.021v15.313l13.262-7.657   L45.571,21.021z"></path><path d="M45.206,37.332c-0.064,0-0.126-0.017-0.183-0.049l-14.357-8.29c-0.113-0.065-0.183-0.186-0.183-0.316   s0.07-0.251,0.183-0.316l14.357-8.289c0.113-0.066,0.252-0.066,0.365,0c0.113,0.065,0.183,0.186,0.183,0.316v16.578   c0,0.131-0.07,0.25-0.183,0.316C45.332,37.315,45.269,37.332,45.206,37.332z M31.579,28.677l13.262,7.657V21.021L31.579,28.677z"></path></g><g><path d="M30.787,45.624c-0.063,0-0.126-0.016-0.183-0.048L16.24,37.282c-0.113-0.065-0.183-0.186-0.183-0.316   c0-0.131,0.069-0.26,0.183-0.325l14.364-8.293c0.113-0.066,0.252-0.066,0.365,0c0.113,0.064,0.183,0.186,0.183,0.316V45.26   c0,0.13-0.07,0.25-0.183,0.316C30.914,45.608,30.85,45.624,30.787,45.624z M17.146,36.962l13.276,7.665v-15.33L17.146,36.962z"></path><path d="M30.787,45.624c-0.063,0-0.126-0.016-0.183-0.048c-0.113-0.066-0.183-0.187-0.183-0.316V28.665   c0-0.13,0.07-0.251,0.183-0.316c0.113-0.066,0.252-0.066,0.365,0l14.364,8.293c0.113,0.065,0.183,0.186,0.183,0.316   c0,0.131-0.07,0.259-0.183,0.325l-14.364,8.294C30.914,45.608,30.85,45.624,30.787,45.624z M31.152,29.297v15.33l13.276-7.665   L31.152,29.297z"></path><path d="M16.43,53.913c-0.062,0-0.124-0.015-0.18-0.047l-0.007-0.004c-0.114-0.065-0.185-0.187-0.185-0.318V36.966   c0-0.131,0.069-0.251,0.183-0.316c0.113-0.066,0.252-0.066,0.365,0l14.364,8.293c0.113,0.065,0.183,0.186,0.183,0.316   c0,0.13-0.07,0.25-0.183,0.316l-14.357,8.288C16.556,53.897,16.493,53.913,16.43,53.913z M16.788,37.599V52.92l13.269-7.66   L16.788,37.599z"></path><path d="M45.141,53.911c-0.063,0-0.125-0.015-0.18-0.047l-14.357-8.288c-0.113-0.066-0.183-0.187-0.183-0.316   c0-0.131,0.07-0.251,0.183-0.316l14.364-8.294c0.113-0.065,0.252-0.065,0.365,0c0.113,0.065,0.183,0.186,0.183,0.316v16.578   c0,0.132-0.071,0.253-0.185,0.318C45.274,53.896,45.208,53.911,45.141,53.911z M31.517,45.26l13.269,7.66V37.599L31.517,45.26z"></path><path d="M30.787,62.203c-0.063,0-0.126-0.017-0.183-0.05c-0.113-0.064-0.183-0.186-0.183-0.315V45.26   c0-0.131,0.07-0.251,0.183-0.316c0.113-0.066,0.252-0.066,0.365,0l14.357,8.289c0.113,0.064,0.183,0.186,0.183,0.315   c0,0.131-0.07,0.251-0.183,0.316l-14.357,8.289C30.914,62.187,30.85,62.203,30.787,62.203z M31.152,45.892v15.313l13.262-7.657   L31.152,45.892z"></path><path d="M30.787,62.203c-0.063,0-0.126-0.017-0.183-0.05l-14.357-8.289c-0.113-0.065-0.183-0.186-0.183-0.316   c0-0.13,0.07-0.251,0.183-0.315l14.357-8.289c0.113-0.066,0.252-0.066,0.365,0c0.113,0.065,0.183,0.186,0.183,0.316v16.578   c0,0.13-0.07,0.251-0.183,0.315C30.914,62.187,30.85,62.203,30.787,62.203z M17.16,53.548l13.262,7.657V45.892L17.16,53.548z"></path></g><g><path d="M59.514,45.624c-0.063,0-0.125-0.016-0.182-0.048l-14.364-8.294c-0.113-0.065-0.183-0.186-0.183-0.316   c0-0.131,0.07-0.26,0.183-0.325l14.364-8.293c0.113-0.066,0.252-0.066,0.365,0c0.112,0.064,0.183,0.186,0.183,0.316V45.26   c0,0.13-0.07,0.25-0.183,0.316C59.642,45.608,59.577,45.624,59.514,45.624z M45.873,36.962l13.276,7.665v-15.33L45.873,36.962z"></path><path d="M59.514,45.624c-0.063,0-0.125-0.016-0.182-0.048c-0.113-0.066-0.183-0.187-0.183-0.316V28.665   c0-0.13,0.069-0.251,0.183-0.316c0.113-0.066,0.252-0.066,0.365,0l14.364,8.293c0.114,0.065,0.183,0.186,0.183,0.316   c0,0.131-0.068,0.259-0.183,0.325l-14.364,8.294C59.642,45.608,59.577,45.624,59.514,45.624z M59.88,29.297v15.33l13.275-7.665   L59.88,29.297z"></path><path d="M45.158,53.913c-0.063,0-0.125-0.015-0.181-0.047l-0.007-0.004c-0.114-0.065-0.185-0.187-0.185-0.318V36.966   c0-0.131,0.07-0.251,0.183-0.316c0.113-0.066,0.252-0.066,0.365,0l14.365,8.293c0.112,0.065,0.183,0.186,0.183,0.316   c0,0.13-0.07,0.25-0.183,0.316L45.34,53.864C45.283,53.897,45.221,53.913,45.158,53.913z M45.516,37.599V52.92l13.27-7.66   L45.516,37.599z"></path><path d="M73.87,53.911c-0.063,0-0.126-0.015-0.181-0.047l-14.357-8.288c-0.113-0.066-0.183-0.187-0.183-0.316   c0-0.131,0.069-0.251,0.183-0.316l14.364-8.294c0.114-0.065,0.253-0.065,0.365,0c0.114,0.065,0.183,0.186,0.183,0.316   l-0.001,16.578c0,0.132-0.07,0.253-0.185,0.318C74.001,53.896,73.935,53.911,73.87,53.911z M60.245,45.26l13.27,7.66V37.599   L60.245,45.26z"></path><path d="M59.514,62.203c-0.063,0-0.125-0.017-0.182-0.05c-0.113-0.064-0.183-0.186-0.183-0.315V45.26   c0-0.131,0.069-0.251,0.183-0.316c0.113-0.066,0.252-0.066,0.365,0l14.356,8.289c0.114,0.064,0.184,0.186,0.184,0.315   c0,0.131-0.069,0.251-0.184,0.316l-14.356,8.289C59.642,62.187,59.577,62.203,59.514,62.203z M59.88,45.892v15.313l13.261-7.657   L59.88,45.892z"></path><path d="M59.514,62.203c-0.063,0-0.125-0.017-0.182-0.05l-14.357-8.289c-0.113-0.065-0.183-0.186-0.183-0.316   c0-0.13,0.07-0.251,0.183-0.315l14.357-8.289c0.113-0.066,0.252-0.066,0.365,0c0.112,0.065,0.183,0.186,0.183,0.316v16.578   c0,0.13-0.07,0.251-0.183,0.315C59.642,62.187,59.577,62.203,59.514,62.203z M45.888,53.548l13.262,7.657V45.892L45.888,53.548z"></path></g><g><path d="M73.934,20.754c-0.063,0-0.126-0.017-0.183-0.049l-14.364-8.294c-0.112-0.065-0.183-0.186-0.183-0.316   c0-0.13,0.07-0.26,0.183-0.325l14.364-8.293c0.113-0.066,0.252-0.066,0.365,0c0.113,0.064,0.183,0.186,0.183,0.316v16.595   c0,0.13-0.069,0.25-0.183,0.316C74.06,20.737,73.996,20.754,73.934,20.754z M60.292,12.091l13.275,7.665V4.426L60.292,12.091z"></path><path d="M73.934,20.754c-0.063,0-0.126-0.017-0.183-0.049c-0.112-0.066-0.184-0.186-0.184-0.316V3.794   c0-0.131,0.071-0.252,0.184-0.316c0.113-0.066,0.252-0.066,0.365,0l14.364,8.293c0.113,0.065,0.183,0.186,0.183,0.316   s-0.069,0.259-0.183,0.324l-14.364,8.294C74.06,20.737,73.996,20.754,73.934,20.754z M74.299,4.426v15.33l13.275-7.665   L74.299,4.426z"></path><path d="M59.575,29.043c-0.062,0-0.123-0.017-0.179-0.048l-0.007-0.004c-0.114-0.065-0.186-0.187-0.186-0.317V12.095   c0-0.13,0.07-0.251,0.183-0.316c0.113-0.066,0.252-0.066,0.364,0l14.365,8.293c0.113,0.065,0.183,0.186,0.183,0.316   c0,0.13-0.069,0.25-0.183,0.316l-14.357,8.289C59.703,29.026,59.639,29.043,59.575,29.043z M59.935,12.728v15.321l13.269-7.66   L59.935,12.728z"></path><path d="M88.289,29.041c-0.063,0-0.126-0.016-0.181-0.047l-14.357-8.289c-0.112-0.066-0.184-0.186-0.184-0.316   c0-0.131,0.071-0.251,0.184-0.316l14.364-8.294c0.114-0.065,0.253-0.065,0.365,0c0.113,0.065,0.183,0.186,0.183,0.316v16.579   c0,0.131-0.07,0.252-0.186,0.317C88.421,29.023,88.354,29.041,88.289,29.041z M74.664,20.389l13.268,7.66V12.728L74.664,20.389z"></path><path d="M73.934,37.332c-0.063,0-0.126-0.017-0.183-0.049c-0.112-0.066-0.184-0.186-0.184-0.316V20.389   c0-0.131,0.071-0.251,0.184-0.316c0.113-0.066,0.252-0.066,0.365,0l14.357,8.289c0.112,0.065,0.184,0.186,0.184,0.316   s-0.071,0.251-0.184,0.316l-14.357,8.29C74.06,37.315,73.996,37.332,73.934,37.332z M74.299,21.021v15.313l13.262-7.657   L74.299,21.021z"></path><path d="M73.934,37.332c-0.063,0-0.126-0.017-0.183-0.049l-14.357-8.29c-0.113-0.065-0.183-0.186-0.183-0.316   s0.069-0.251,0.183-0.316l14.357-8.289c0.113-0.066,0.252-0.066,0.365,0c0.113,0.065,0.183,0.186,0.183,0.316v16.578   c0,0.131-0.069,0.25-0.183,0.316C74.06,37.315,73.996,37.332,73.934,37.332z M60.307,28.677l13.261,7.657V21.021L60.307,28.677z"></path></g><g><path d="M16.478,70.418c-0.063,0-0.125-0.016-0.183-0.049L1.931,62.076c-0.113-0.065-0.183-0.186-0.183-0.316   c0-0.13,0.069-0.26,0.183-0.324l14.364-8.293c0.113-0.066,0.252-0.066,0.366,0c0.113,0.064,0.182,0.185,0.182,0.315v16.596   c0,0.13-0.069,0.251-0.182,0.315C16.604,70.402,16.541,70.418,16.478,70.418z M2.837,61.756l13.276,7.666V54.091L2.837,61.756z"></path><path d="M16.478,70.418c-0.063,0-0.125-0.016-0.183-0.049c-0.113-0.064-0.183-0.186-0.183-0.315V53.458   c0-0.131,0.07-0.251,0.183-0.315c0.113-0.066,0.252-0.066,0.366,0l14.364,8.293c0.113,0.064,0.182,0.185,0.182,0.316   c0,0.13-0.069,0.259-0.182,0.324l-14.364,8.293C16.604,70.402,16.541,70.418,16.478,70.418z M16.843,54.091v15.331l13.276-7.667   L16.843,54.091z"></path><path d="M2.121,78.708c-0.063,0-0.125-0.016-0.18-0.048l-0.007-0.005c-0.114-0.064-0.185-0.186-0.185-0.316V61.76   c0-0.13,0.069-0.25,0.183-0.316c0.113-0.065,0.252-0.065,0.365,0l14.365,8.294c0.113,0.065,0.182,0.186,0.182,0.316   c0,0.13-0.069,0.251-0.182,0.315L2.303,78.657C2.247,78.691,2.184,78.708,2.121,78.708z M2.479,62.393v15.32l13.269-7.659   L2.479,62.393z"></path><path d="M30.833,78.706c-0.063,0-0.125-0.016-0.181-0.049l-14.357-8.288c-0.113-0.064-0.183-0.186-0.183-0.315   c0-0.131,0.07-0.251,0.183-0.316l14.364-8.294c0.113-0.065,0.252-0.065,0.366,0c0.113,0.065,0.182,0.187,0.182,0.316v16.579   c0,0.131-0.07,0.252-0.185,0.316C30.965,78.689,30.898,78.706,30.833,78.706z M17.208,70.054l13.269,7.659v-15.32L17.208,70.054z"></path><path d="M16.478,86.996c-0.063,0-0.125-0.017-0.183-0.048c-0.113-0.065-0.183-0.187-0.183-0.316V70.054   c0-0.131,0.07-0.251,0.183-0.316s0.252-0.065,0.366,0l14.357,8.289c0.113,0.065,0.182,0.185,0.182,0.315s-0.069,0.251-0.182,0.315   l-14.357,8.291C16.604,86.979,16.541,86.996,16.478,86.996z M16.843,70.686v15.313l13.262-7.657L16.843,70.686z"></path><path d="M16.478,86.996c-0.063,0-0.125-0.017-0.183-0.048L1.938,78.657c-0.113-0.064-0.183-0.185-0.183-0.315   s0.069-0.25,0.183-0.315l14.357-8.289c0.113-0.065,0.252-0.065,0.366,0c0.113,0.065,0.182,0.186,0.182,0.316v16.578   c0,0.13-0.069,0.251-0.182,0.316C16.604,86.979,16.541,86.996,16.478,86.996z M2.851,78.342l13.262,7.657V70.686L2.851,78.342z"></path></g><g><path d="M45.206,70.418c-0.064,0-0.126-0.016-0.183-0.049l-14.364-8.293c-0.113-0.065-0.183-0.186-0.183-0.316   c0-0.13,0.07-0.26,0.183-0.324l14.364-8.293c0.113-0.066,0.252-0.066,0.365,0c0.113,0.064,0.183,0.185,0.183,0.315v16.596   c0,0.13-0.07,0.251-0.183,0.315C45.332,70.402,45.269,70.418,45.206,70.418z M31.565,61.756l13.276,7.666V54.091L31.565,61.756z"></path><path d="M45.206,70.418c-0.064,0-0.126-0.016-0.183-0.049c-0.113-0.064-0.182-0.186-0.182-0.315V53.458   c0-0.131,0.069-0.251,0.182-0.315c0.113-0.066,0.252-0.066,0.365,0l14.364,8.293c0.114,0.064,0.184,0.185,0.184,0.316   c0,0.13-0.069,0.259-0.184,0.324l-14.364,8.293C45.332,70.402,45.269,70.418,45.206,70.418z M45.571,54.091v15.331l13.275-7.667   L45.571,54.091z"></path><path d="M30.849,78.708c-0.063,0-0.125-0.016-0.18-0.048l-0.007-0.005c-0.114-0.064-0.185-0.186-0.185-0.316V61.76   c0-0.13,0.07-0.25,0.183-0.316c0.113-0.065,0.252-0.065,0.366,0l14.364,8.294c0.113,0.065,0.183,0.186,0.183,0.316   c0,0.13-0.07,0.251-0.183,0.315l-14.357,8.288C30.975,78.691,30.912,78.708,30.849,78.708z M31.207,62.393v15.32l13.269-7.659   L31.207,62.393z"></path><path d="M59.562,78.706c-0.064,0-0.127-0.016-0.181-0.049l-14.358-8.288c-0.113-0.064-0.182-0.186-0.182-0.315   c0-0.131,0.069-0.251,0.182-0.316l14.365-8.294c0.113-0.065,0.252-0.065,0.364,0c0.114,0.065,0.184,0.187,0.184,0.316v16.579   c0,0.131-0.07,0.252-0.186,0.316C59.692,78.689,59.627,78.706,59.562,78.706z M45.936,70.054l13.268,7.659v-15.32L45.936,70.054z"></path><path d="M45.206,86.996c-0.064,0-0.126-0.017-0.183-0.048c-0.113-0.065-0.182-0.187-0.182-0.316V70.054   c0-0.131,0.069-0.251,0.182-0.316c0.113-0.065,0.252-0.065,0.365,0l14.358,8.289c0.112,0.065,0.183,0.185,0.183,0.315   s-0.07,0.251-0.183,0.315l-14.358,8.291C45.332,86.979,45.269,86.996,45.206,86.996z M45.571,70.686v15.313l13.262-7.657   L45.571,70.686z"></path><path d="M45.206,86.996c-0.064,0-0.126-0.017-0.183-0.048l-14.357-8.291c-0.113-0.064-0.183-0.185-0.183-0.315   s0.07-0.25,0.183-0.315l14.357-8.289c0.113-0.065,0.252-0.065,0.365,0c0.113,0.065,0.183,0.186,0.183,0.316v16.578   c0,0.13-0.07,0.251-0.183,0.316C45.332,86.979,45.269,86.996,45.206,86.996z M31.579,78.342l13.262,7.657V70.686L31.579,78.342z"></path></g><g><path d="M73.934,70.418c-0.063,0-0.126-0.016-0.183-0.049l-14.364-8.293c-0.112-0.065-0.183-0.186-0.183-0.316   c0-0.13,0.07-0.26,0.183-0.324l14.364-8.293c0.113-0.066,0.252-0.066,0.365,0c0.113,0.064,0.183,0.185,0.183,0.315v16.596   c0,0.13-0.069,0.251-0.183,0.315C74.06,70.402,73.996,70.418,73.934,70.418z M60.292,61.756l13.275,7.666V54.091L60.292,61.756z"></path><path d="M73.934,70.418c-0.063,0-0.126-0.016-0.183-0.049c-0.112-0.064-0.184-0.186-0.184-0.315V53.458   c0-0.131,0.071-0.251,0.184-0.315c0.113-0.066,0.252-0.066,0.365,0l14.364,8.293c0.113,0.064,0.183,0.185,0.183,0.316   c0,0.13-0.069,0.259-0.183,0.324l-14.364,8.293C74.06,70.402,73.996,70.418,73.934,70.418z M74.299,54.091v15.331l13.275-7.667   L74.299,54.091z"></path><path d="M59.575,78.708c-0.062,0-0.123-0.016-0.179-0.048l-0.007-0.005c-0.114-0.064-0.186-0.186-0.186-0.316V61.76   c0-0.13,0.07-0.25,0.183-0.316c0.113-0.065,0.252-0.065,0.364,0l14.365,8.294c0.113,0.065,0.183,0.186,0.183,0.316   c0,0.13-0.069,0.251-0.183,0.315l-14.357,8.288C59.703,78.691,59.639,78.708,59.575,78.708z M59.935,62.393v15.32l13.269-7.659   L59.935,62.393z"></path><path d="M88.289,78.706c-0.063,0-0.126-0.016-0.181-0.049l-14.357-8.288c-0.112-0.064-0.184-0.186-0.184-0.315   c0-0.131,0.071-0.251,0.184-0.316l14.364-8.294c0.114-0.065,0.253-0.065,0.365,0c0.113,0.065,0.183,0.187,0.183,0.316v16.579   c0,0.131-0.07,0.252-0.186,0.316C88.421,78.689,88.354,78.706,88.289,78.706z M74.664,70.054l13.268,7.659v-15.32L74.664,70.054z"></path><path d="M73.934,86.996c-0.063,0-0.126-0.017-0.183-0.048c-0.112-0.065-0.184-0.187-0.184-0.316V70.054   c0-0.131,0.071-0.251,0.184-0.316c0.113-0.065,0.252-0.065,0.365,0l14.357,8.289c0.112,0.065,0.184,0.185,0.184,0.315   s-0.071,0.251-0.184,0.315l-14.357,8.291C74.06,86.979,73.996,86.996,73.934,86.996z M74.299,70.686v15.313l13.262-7.657   L74.299,70.686z"></path><path d="M73.934,86.996c-0.063,0-0.126-0.017-0.183-0.048l-14.357-8.291c-0.113-0.064-0.183-0.185-0.183-0.315   s0.069-0.25,0.183-0.315l14.357-8.289c0.113-0.065,0.252-0.065,0.365,0s0.183,0.186,0.183,0.316v16.578   c0,0.13-0.069,0.251-0.183,0.316C74.06,86.979,73.996,86.996,73.934,86.996z M60.307,78.342l13.261,7.657V70.686L60.307,78.342z"></path></g><circle cx="45.152" cy="36.958" r="2.189"></circle><circle cx="45.152" cy="20.389" r="2.189"></circle><circle cx="45.152" cy="53.458" r="2.189"></circle><circle cx="45.152" cy="69.959" r="2.189"></circle><circle cx="16.18" cy="20.389" r="2.188"></circle><circle cx="16.18" cy="69.959" r="2.188"></circle><circle cx="30.848" cy="45.256" r="2.188"></circle><circle cx="59.577" cy="45.256" r="2.189"></circle><circle cx="30.848" cy="28.665" r="2.188"></circle><circle cx="59.577" cy="28.665" r="2.189"></circle><circle cx="30.848" cy="61.76" r="2.188"></circle><circle cx="59.577" cy="61.76" r="2.189"></circle><circle cx="73.934" cy="20.389" r="2.188"></circle><circle cx="73.934" cy="69.959" r="2.188"></circle></svg>