<svg fill="#F1F2F5" xmlns="http://www.w3.org/2000/svg" xmlns:xlink="http://www.w3.org/1999/xlink" version="1.1" x="0px" y="0px" viewBox="0 0 100 100" enable-background="new 0 0 100 100" xml:space="preserve"><g><path d="M32.5,20c0,6.9-5.6,12.5-12.5,12.5S7.5,26.9,7.5,20S13.1,7.5,20,7.5S32.5,13.1,32.5,20z M80,12.5c-4.1,0-7.5,3.4-7.5,7.5   s3.4,7.5,7.5,7.5s7.5-3.4,7.5-7.5S84.1,12.5,80,12.5z M50,17.5c-1.4,0-2.5,1.1-2.5,2.5s1.1,2.5,2.5,2.5s2.5-1.1,2.5-2.5   S51.4,17.5,50,17.5z M20,45c-2.8,0-5,2.2-5,5s2.2,5,5,5s5-2.2,5-5S22.8,45,20,45z M80,37.5c-6.9,0-12.5,5.6-12.5,12.5   S73.1,62.5,80,62.5S92.5,56.9,92.5,50S86.9,37.5,80,37.5z M50,40c-5.5,0-10,4.5-10,10s4.5,10,10,10s10-4.5,10-10S55.5,40,50,40z    M20,75c-2.8,0-5,2.2-5,5s2.2,5,5,5s5-2.2,5-5S22.8,75,20,75z M80,77.5c-1.4,0-2.5,1.1-2.5,2.5s1.1,2.5,2.5,2.5s2.5-1.1,2.5-2.5   S81.4,77.5,80,77.5z M50,67.5c-6.9,0-12.5,5.6-12.5,12.5S43.1,92.5,50,92.5S62.5,86.9,62.5,80S56.9,67.5,50,67.5z"></path></g></svg>