<svg fill="#F1F2F5" xmlns="http://www.w3.org/2000/svg" xmlns:xlink="http://www.w3.org/1999/xlink" version="1.1" x="0px" y="0px" viewBox="0 0 32 32" enable-background="new 0 0 32 32" xml:space="preserve"><g display="none"><rect x="-288.73" y="-7.333" display="inline" fill="#F1F2F5" width="412.397" height="207"></rect></g><g><g><path d="M12.657,6L6.071,9.387V26l6.604-4.156L19.28,26l6.604-4.002V6l-6.604,4.31h0L12.657,6z M18.829,11.209v6.439l-5.652-3.678    V7.531l5.558,3.617L18.829,11.209z M12.177,7.372v6.765l-5.106,2.626V9.997L12.177,7.372z M7.071,24.189v-6.303l5.106-2.625v5.716    l-0.034,0.021L7.071,24.189z M13.177,20.978v-5.815l5.652,3.679v5.693l-5.621-3.537L13.177,20.978z M19.829,24.498v-5.966    l5.055-3.298v6.201L19.829,24.498z M24.884,14.039l-5.055,3.299v-6.193l5.055-3.299V14.039z"></path><polygon points="1,1 8,1 8,0 0,0 0,7.885 1,7.885   "></polygon><polygon points="24,32 32,32 32,24.115 31,24.115 31,31 24,31   "></polygon></g></g><g display="none"><g display="inline"><path d="M12.657,6L6.071,9.387V26l6.604-4.156L19.28,26l6.604-4.002V6l-6.604,4.31h0L12.657,6z M18.329,12.077v4.65l-4.652-3.028    V9.05l4.512,2.936L18.329,12.077z M11.677,8.753v5.078l-3.606,1.854v-5.078L11.677,8.753z M8.071,22.378v-4.444l3.606-1.854v4.029    l-0.066,0.042L8.071,22.378z M13.677,20.111v-4.026l4.652,3.028v3.926l-4.588-2.887L13.677,20.111z M20.329,23.026v-4.223    l3.555-2.32v4.388L20.329,23.026z M23.884,9.693v4.401l-3.555,2.32v-4.401l0.044-0.029L23.884,9.693z"></path><polygon points="2,2 8.5,2 8.5,0 0,0 0,8.385 2,8.385   "></polygon><polygon points="23.5,32 32,32 32,23.615 30,23.615 30,30 23.5,30   "></polygon></g></g><g display="none"><g display="inline"><path d="M12.657,6L6.071,9.387V26l6.604-4.156L19.28,26l6.604-4.002V6l-6.604,4.31h0L12.657,6z M19.079,10.776V18l-6.152-3.787    V6.772l6.08,3.957L19.079,10.776z M12.427,6.681v7.522l-5.856,3.094V9.692L12.427,6.681z M6.571,25.095v-7.233l5.856-3.094v6.545    h0.155l-0.172,0.108L6.571,25.095z M12.77,21.312h0.157v-6.512l6.152,3.787v6.695l-6.137-3.862L12.77,21.312z M19.101,25.297    h0.374l-0.191,0.115L19.101,25.297z M19.579,25.234v-6.721l5.805-3.96v7.164L19.579,25.234z M25.384,13.947l-5.805,3.96v-7.196    l5.805-3.788V13.947z"></path><polygon points="0.75,0.75 8,0.75 8,0.25 0.25,0.25 0.25,7.885 0.75,7.885   "></polygon><polygon points="24,31.75 31.75,31.75 31.75,24.115 31.25,24.115 31.25,31.25 24,31.25   "></polygon></g></g></svg>