<svg opacity="0.2" fill="#D2D4DA" xmlns="http://www.w3.org/2000/svg" viewBox="0 0 387.52 447.01" x="0px" y="0px"><title>BS-odd</title><path d="M387.52,168V57a1.5,1.5,0,0,0-.75-1.3L290.64.2a1.5,1.5,0,0,0-1.5,0L193.76,55.27,98.38.2a1.5,1.5,0,0,0-1.5,0L.75,55.7A1.5,1.5,0,0,0,0,57V168a1.5,1.5,0,0,0,.75,1.3l93.88,54.2L.75,277.7A1.5,1.5,0,0,0,0,279V390a1.5,1.5,0,0,0,.75,1.3l96.13,55.5a1.5,1.5,0,0,0,1.5,0l95.38-55.07,95.38,55.07a1.5,1.5,0,0,0,1.5,0l96.13-55.5a1.5,1.5,0,0,0,.75-1.3V279a1.5,1.5,0,0,0-.75-1.3l-93.88-54.2,93.88-54.2A1.5,1.5,0,0,0,387.52,168ZM289.89,3.23,383,57l-93.13,53.77L196.76,57Zm-1.5,110.14V220.9l-93.13-53.77V59.6Zm0,220.27-93.13,53.77V279.87l93.13-53.77ZM193.76,168h0Zm0,1.73,93.13,53.77-93.13,53.77L100.63,223.5ZM99.13,226.1l93.13,53.77V387.41L99.13,333.64Zm93.13-59L99.13,220.9V113.37L192.26,59.6ZM96.13,331.91,4.5,279l91.63-52.9Zm3,5.2L190.76,390l-91.63,52.9ZM193.76,390h0Zm94.63-52.9V442.91L196.76,390Zm3-111L383,279l-91.63,52.9ZM97.63,3.23,190.76,57,97.63,110.77,4.5,57ZM3,59.6l93.13,53.77V220.91L3,167.14Zm0,222,93.13,53.77V442.91L3,389.14ZM291.39,442.91V335.37l93.13-53.77V389.14Zm0-222V113.37L384.52,59.6V167.14Z"></path></svg>
