<svg fill="#F1F2F5" xmlns="http://www.w3.org/2000/svg" xmlns:xlink="http://www.w3.org/1999/xlink" version="1.1" x="0px" y="0px" viewBox="0 0 100 100" enable-background="new 0 0 100 100" xml:space="preserve"><path fill="#F1F2F5" d="M32,68h36V32H32V68z M36,36h28v28H36V36z"></path><path fill="#F1F2F5" d="M12,34c0,1.105,0.895,2,2,2h12v-4H14C12.895,32,12,32.895,12,34z"></path><path fill="#F1F2F5" d="M12,66c0,1.105,0.895,2,2,2h12v-4H14C12.895,64,12,64.895,12,66z"></path><path fill="#F1F2F5" d="M86,64H74v4h12c1.105,0,2-0.895,2-2C88,64.895,87.105,64,86,64z"></path><path fill="#F1F2F5" d="M88,34c0-1.105-0.895-2-2-2H74v4h12C87.105,36,88,35.105,88,34z"></path><path fill="#F1F2F5" d="M66,12c-1.105,0-2,0.895-2,2v12h4V14C68,12.895,67.105,12,66,12z"></path><path fill="#F1F2F5" d="M36,14c0-1.105-0.895-2-2-2s-2,0.895-2,2v12h4V14z"></path><path fill="#F1F2F5" d="M32,86c0,1.105,0.895,2,2,2s2-0.895,2-2V74h-4V86z"></path><path fill="#F1F2F5" d="M64,86c0,1.105,0.895,2,2,2s2-0.895,2-2V73h-4V86z"></path></svg>