<svg fill="#F1F2F4" xmlns:dc="http://purl.org/dc/elements/1.1/" xmlns:cc="http://creativecommons.org/ns#" xmlns:rdf="http://www.w3.org/1999/02/22-rdf-syntax-ns#" xmlns:svg="http://www.w3.org/2000/svg" xmlns="http://www.w3.org/2000/svg" xmlns:sodipodi="http://sodipodi.sourceforge.net/DTD/sodipodi-0.dtd" xmlns:inkscape="http://www.inkscape.org/namespaces/inkscape" version="1.1" x="0px" y="0px" viewBox="0 0 100 100"><g transform="translate(0,-952.36218)"><path style="text-indent:0;text-transform:none;direction:ltr;block-progression:tb;baseline-shift:baseline;color:#000000;enable-background:accumulate;" d="m 7.375,957.36218 c -1.3103838,0 -2.375,1.06462 -2.375,2.375 l 0,12.53125 c 0,1.31038 1.0646161,2.375 2.375,2.375 l 12.53125,0 c 1.310384,0 2.375,-1.06462 2.375,-2.375 l 0,-12.53125 c 0,-1.31038 -1.064616,-2.375 -2.375,-2.375 l -12.53125,0 z m 23.25,1.1875 c -1.310384,0 -2.375,1.06462 -2.375,2.375 l 0,10.1875 c 0,1.31038 1.064616,2.375 2.375,2.375 l 10.1875,0 c 1.310384,0 2.375,-1.06462 2.375,-2.375 l 0,-10.1875 c 0,-1.31038 -1.064616,-2.375 -2.375,-2.375 l -10.1875,0 z m -23.25,0.375 12.53125,0 c 0.454292,0 0.8125,0.35821 0.8125,0.8125 l 0,12.53125 c 0,0.45429 -0.358208,0.8125 -0.8125,0.8125 l -12.53125,0 c -0.4542923,0 -0.8125,-0.35821 -0.8125,-0.8125 l 0,-12.53125 c 0,-0.45429 0.3582076,-0.8125 0.8125,-0.8125 z m 44.15625,0.625 c -1.310384,0 -2.375,1.06462 -2.375,2.375 l 0,8.1875 c 0,1.31038 1.064616,2.375 2.375,2.375 l 8.15625,0 c 1.310384,0 2.375,-1.06462 2.375,-2.375 l 0,-8.1875 c 0,-1.31038 -1.064616,-2.375 -2.375,-2.375 l -8.15625,0 z m -20.90625,0.5625 10.1875,0 c 0.454292,0 0.8125,0.35821 0.8125,0.8125 l 0,10.1875 c 0,0.45429 -0.358208,0.8125 -0.8125,0.8125 l -10.1875,0 c -0.454292,0 -0.8125,-0.35821 -0.8125,-0.8125 l 0,-10.1875 c 0,-0.45429 0.358208,-0.8125 0.8125,-0.8125 z m 39.78125,0.3125 c -1.291581,0 -2.375,1.03337 -2.375,2.34375 l 0,6.46875 c 0,1.31038 1.064616,2.375 2.375,2.375 l 6.46875,0 c 1.310384,0 2.375,-1.06462 2.375,-2.375 l 0,-6.46875 c 0,-1.31038 -1.083419,-2.34375 -2.375,-2.34375 l -6.46875,0 z m -18.875,0.6875 8.15625,0 c 0.454292,0 0.8125,0.35821 0.8125,0.8125 l 0,8.1875 c 0,0.45429 -0.358208,0.8125 -0.8125,0.8125 l -8.15625,0 c -0.454292,0 -0.8125,-0.35821 -0.8125,-0.8125 l 0,-8.1875 c 0,-0.45429 0.358208,-0.8125 0.8125,-0.8125 z m 36.0625,0.0312 c -1.310384,0 -2.375,1.06462 -2.375,2.375 l 0,5 c 0,1.31038 1.064616,2.375 2.375,2.375 l 5.03125,0 c 1.310384,0 2.375,-1.06462 2.375,-2.375 l 0,-5 c 0,-1.31038 -1.064616,-2.375 -2.375,-2.375 l -5.03125,0 z m -17.1875,0.84375 6.46875,0 c 0.473095,0 0.8125,0.32696 0.8125,0.78125 l 0,6.46875 c 0,0.45429 -0.358208,0.8125 -0.8125,0.8125 l -6.46875,0 c -0.454292,0 -0.8125,-0.35821 -0.8125,-0.8125 l 0,-6.46875 c 0,-0.45429 0.339405,-0.78125 0.8125,-0.78125 z m 17.1875,0.71875 5.03125,0 c 0.454292,0 0.8125,0.35821 0.8125,0.8125 l 0,5 c 0,0.45429 -0.358208,0.8125 -0.8125,0.8125 l -5.03125,0 c -0.454292,0 -0.8125,-0.35821 -0.8125,-0.8125 l 0,-5 c 0,-0.45429 0.358208,-0.8125 0.8125,-0.8125 z M 8.5625,980.61218 c -1.3103839,0 -2.375,1.06462 -2.375,2.375 l 0,10.1875 c 0,1.31038 1.0646161,2.375 2.375,2.375 l 10.1875,0 c 1.310384,0 2.375,-1.06462 2.375,-2.375 l 0,-10.1875 c 0,-1.31038 -1.064616,-2.375 -2.375,-2.375 l -10.1875,0 z m 22.625,0.5625 c -1.310384,0 -2.375,1.06462 -2.375,2.375 l 0,8.1875 c 0,1.31038 1.064616,2.375 2.375,2.375 l 8.1875,0 c 1.310384,0 2.375,-1.06462 2.375,-2.375 l 0,-8.1875 c 0,-1.31038 -1.064616,-2.375 -2.375,-2.375 l -8.1875,0 z m 20.625,0.46875 c -1.310384,0 -2.375,1.06462 -2.375,2.375 l 0,6.46875 c 0,1.31038 1.064616,2.375 2.375,2.375 l 6.46875,0 c 1.310384,0 2.375,-1.06462 2.375,-2.375 l 0,-6.46875 c 0,-1.31038 -1.064616,-2.375 -2.375,-2.375 l -6.46875,0 z m 18.9375,0.40625 c -1.310384,0 -2.375,1.06462 -2.375,2.375 l 0,5.03125 c 0,1.31038 1.064616,2.375 2.375,2.375 l 5,0 c 1.310384,0 2.375,-1.06462 2.375,-2.375 l 0,-5.03125 c 0,-1.31038 -1.064616,-2.375 -2.375,-2.375 l -5,0 z m -62.1875,0.125 10.1875,0 c 0.454292,0 0.8125,0.35821 0.8125,0.8125 l 0,10.1875 c 0,0.45429 -0.358208,0.8125 -0.8125,0.8125 l -10.1875,0 c -0.4542925,0 -0.8125,-0.35821 -0.8125,-0.8125 l 0,-10.1875 c 0,-0.45429 0.3582075,-0.8125 0.8125,-0.8125 z m 79.65625,0.21875 c -1.310384,0 -2.375,1.06462 -2.375,2.375 l 0,3.78125 c 0,1.31038 1.064616,2.375 2.375,2.375 l 3.78125,0 c 1.310384,0 2.375,-1.06462 2.375,-2.375 l 0,-3.78125 c 0,-1.31038 -1.064616,-2.375 -2.375,-2.375 l -3.78125,0 z m -57.03125,0.34375 8.1875,0 c 0.454292,0 0.8125,0.35821 0.8125,0.8125 l 0,8.1875 c 0,0.45429 -0.358208,0.8125 -0.8125,0.8125 l -8.1875,0 c -0.454292,0 -0.8125,-0.35821 -0.8125,-0.8125 l 0,-8.1875 c 0,-0.45429 0.358208,-0.8125 0.8125,-0.8125 z m 20.625,0.46875 6.46875,0 c 0.454292,0 0.8125,0.35821 0.8125,0.8125 l 0,6.46875 c 0,0.45429 -0.358208,0.8125 -0.8125,0.8125 l -6.46875,0 c -0.454292,0 -0.8125,-0.35821 -0.8125,-0.8125 l 0,-6.46875 c 0,-0.45429 0.358208,-0.8125 0.8125,-0.8125 z m 18.9375,0.40625 5,0 c 0.454292,0 0.8125,0.35821 0.8125,0.8125 l 0,5.03125 c 0,0.45429 -0.358208,0.8125 -0.8125,0.8125 l -5,0 c -0.454292,0 -0.8125,-0.35821 -0.8125,-0.8125 l 0,-5.03125 c 0,-0.45429 0.358208,-0.8125 0.8125,-0.8125 z m 17.46875,0.34375 3.78125,0 c 0.454292,0 0.8125,0.35821 0.8125,0.8125 l 0,3.78125 c 0,0.45429 -0.358208,0.8125 -0.8125,0.8125 l -3.78125,0 c -0.454292,0 -0.8125,-0.35821 -0.8125,-0.8125 l 0,-3.78125 c 0,-0.45429 0.358208,-0.8125 0.8125,-0.8125 z M 9.5625,1001.5184 c -1.3103839,0 -2.375,1.0646 -2.375,2.375 l 0,8.1563 c 0,1.3104 1.0646161,2.375 2.375,2.375 l 8.1875,0 c 1.310384,0 2.375,-1.0646 2.375,-2.375 l 0,-8.1563 c 0,-1.3104 -1.064616,-2.375 -2.375,-2.375 l -8.1875,0 z m 22.09375,0.2813 c -1.310384,0 -2.375,1.0646 -2.375,2.375 l 0,6.4687 c 0,1.3104 1.064616,2.375 2.375,2.375 l 6.46875,0 c 1.310384,0 2.375,-1.0646 2.375,-2.375 l 0,-6.4687 c 0,-1.3104 -1.064616,-2.375 -2.375,-2.375 l -6.46875,0 z m 20.40625,0.25 c -1.310384,0 -2.375,1.0646 -2.375,2.375 l 0,5.0312 c 0,1.3104 1.064616,2.375 2.375,2.375 l 5.03125,0 c 1.310384,0 2.375,-1.0646 2.375,-2.375 l 0,-5.0312 c 0,-1.3104 -1.064616,-2.375 -2.375,-2.375 l -5.03125,0 z M 71,1002.2684 c -1.310384,0 -2.375,1.0646 -2.375,2.375 l 0,3.7813 c 0,1.3104 1.064616,2.375 2.375,2.375 l 3.8125,0 c 1.310384,0 2.375,-1.0646 2.375,-2.375 l 0,-3.7813 c 0,-1.3104 -1.064616,-2.375 -2.375,-2.375 l -3.8125,0 z m 17.71875,0.1875 c -1.310384,0 -2.375,1.0646 -2.375,2.375 l 0,2.7188 c 0,1.3104 1.064616,2.375 2.375,2.375 l 2.75,0 c 1.310384,0 2.375,-1.0646 2.375,-2.375 l 0,-2.7188 c 0,-1.3104 -1.064616,-2.375 -2.375,-2.375 l -2.75,0 z m -79.15625,0.625 8.1875,0 c 0.454292,0 0.8125,0.3582 0.8125,0.8125 l 0,8.1563 c 0,0.4543 -0.358208,0.8125 -0.8125,0.8125 l -8.1875,0 c -0.4542925,0 -0.8125,-0.3582 -0.8125,-0.8125 l 0,-8.1563 c 0,-0.4543 0.3582075,-0.8125 0.8125,-0.8125 z m 22.09375,0.2813 6.46875,0 c 0.454292,0 0.8125,0.3582 0.8125,0.8125 l 0,6.4687 c 0,0.4543 -0.358208,0.8125 -0.8125,0.8125 l -6.46875,0 c -0.454292,0 -0.8125,-0.3582 -0.8125,-0.8125 l 0,-6.4687 c 0,-0.4543 0.358208,-0.8125 0.8125,-0.8125 z m 20.40625,0.25 5.03125,0 c 0.454292,0 0.8125,0.3582 0.8125,0.8125 l 0,5.0312 c 0,0.4543 -0.358208,0.8125 -0.8125,0.8125 l -5.03125,0 c -0.454292,0 -0.8125,-0.3582 -0.8125,-0.8125 l 0,-5.0312 c 0,-0.4543 0.358208,-0.8125 0.8125,-0.8125 z m 18.9375,0.2187 3.8125,0 c 0.454292,0 0.8125,0.3582 0.8125,0.8125 l 0,3.7813 c 0,0.4543 -0.358208,0.8125 -0.8125,0.8125 l -3.8125,0 c -0.454292,0 -0.8125,-0.3582 -0.8125,-0.8125 l 0,-3.7813 c 0,-0.4543 0.358208,-0.8125 0.8125,-0.8125 z m 17.71875,0.1875 2.75,0 c 0.454292,0 0.8125,0.3582 0.8125,0.8125 l 0,2.7188 c 0,0.4543 -0.358208,0.8125 -0.8125,0.8125 l -2.75,0 c -0.454292,0 -0.8125,-0.3582 -0.8125,-0.8125 l 0,-2.7188 c 0,-0.4543 0.358208,-0.8125 0.8125,-0.8125 z m -78.3125,16.375 c -1.3103839,0 -2.34375,1.0834 -2.34375,2.375 l 0,6.4688 c 0,1.2916 1.0333661,2.375 2.34375,2.375 l 6.46875,0 c 1.310384,0 2.375,-1.0646 2.375,-2.375 l 0,-6.4688 c 0,-1.3104 -1.064616,-2.375 -2.375,-2.375 l -6.46875,0 z m 21.65625,0.3438 c -1.310384,0 -2.375,1.0646 -2.375,2.375 l 0,5 c 0,1.3104 1.064616,2.375 2.375,2.375 l 5.03125,0 c 1.310384,0 2.375,-1.0646 2.375,-2.375 l 0,-5 c 0,-1.3104 -1.064616,-2.375 -2.375,-2.375 l -5.03125,0 z m 20.21875,0.25 c -1.310384,0 -2.375,1.0646 -2.375,2.375 l 0,3.8125 c 0,1.3104 1.064616,2.375 2.375,2.375 l 3.78125,0 c 1.310384,0 2.375,-1.0646 2.375,-2.375 l 0,-3.8125 c 0,-1.3104 -1.064616,-2.375 -2.375,-2.375 l -3.78125,0 z m 18.96875,0.25 c -1.310384,0 -2.375,1.0646 -2.375,2.375 l 0,2.75 c 0,1.3104 1.064616,2.375 2.375,2.375 l 2.75,0 c 1.310384,0 2.375,-1.0646 2.375,-2.375 l 0,-2.75 c 0,-1.3104 -1.064616,-2.375 -2.375,-2.375 l -2.75,0 z m 17.9375,0.1875 c -1.310384,0 -2.375,1.0646 -2.375,2.375 l 0,1.875 c 0,1.3104 1.064616,2.375 2.375,2.375 l 1.84375,0 c 1.310384,0 2.375,-1.0646 2.375,-2.375 l 0,-1.875 c 0,-1.3104 -1.064616,-2.375 -2.375,-2.375 l -1.84375,0 z m -78.78125,0.5312 6.46875,0 c 0.454292,0 0.8125,0.3582 0.8125,0.8125 l 0,6.4688 c 0,0.4543 -0.358208,0.8125 -0.8125,0.8125 l -6.46875,0 c -0.4542925,0 -0.78125,-0.3394 -0.78125,-0.8125 l 0,-6.4688 c 0,-0.4731 0.3269575,-0.8125 0.78125,-0.8125 z m 21.65625,0.3438 5.03125,0 c 0.454292,0 0.8125,0.3582 0.8125,0.8125 l 0,5 c 0,0.4543 -0.358208,0.8125 -0.8125,0.8125 l -5.03125,0 c -0.454292,0 -0.8125,-0.3582 -0.8125,-0.8125 l 0,-5 c 0,-0.4543 0.358208,-0.8125 0.8125,-0.8125 z m 20.21875,0.25 3.78125,0 c 0.454292,0 0.8125,0.3582 0.8125,0.8125 l 0,3.8125 c 0,0.4543 -0.358208,0.8125 -0.8125,0.8125 l -3.78125,0 c -0.454292,0 -0.8125,-0.3582 -0.8125,-0.8125 l 0,-3.8125 c 0,-0.4543 0.358208,-0.8125 0.8125,-0.8125 z m 18.96875,0.25 2.75,0 c 0.454292,0 0.8125,0.3582 0.8125,0.8125 l 0,2.75 c 0,0.4543 -0.358208,0.8125 -0.8125,0.8125 l -2.75,0 c -0.454292,0 -0.8125,-0.3582 -0.8125,-0.8125 l 0,-2.75 c 0,-0.4543 0.358208,-0.8125 0.8125,-0.8125 z m 17.9375,0.1875 1.84375,0 c 0.454292,0 0.8125,0.3582 0.8125,0.8125 l 0,1.875 c 0,0.4543 -0.358208,0.8125 -0.8125,0.8125 l -1.84375,0 c -0.454292,0 -0.8125,-0.3582 -0.8125,-0.8125 l 0,-1.875 c 0,-0.4543 0.358208,-0.8125 0.8125,-0.8125 z m -78.03125,14.5937 c -1.3103838,0 -2.375,1.0646 -2.375,2.375 l 0,5.0313 c 0,1.3104 1.0646162,2.375 2.375,2.375 l 5,0 c 1.310384,0 2.375,-1.0646 2.375,-2.375 l 0,-5.0313 c 0,-1.3104 -1.064616,-2.375 -2.375,-2.375 l -5,0 z m 21.25,0.625 c -1.310384,0 -2.375,1.0646 -2.375,2.375 l 0,3.7813 c 0,1.3104 1.064616,2.375 2.375,2.375 l 3.78125,0 c 1.310384,0 2.375,-1.0646 2.375,-2.375 l 0,-3.7813 c 0,-1.3104 -1.064616,-2.375 -2.375,-2.375 l -3.78125,0 z m 20.0625,0.5 c -1.310384,0 -2.375,1.0646 -2.375,2.375 l 0,2.75 c 0,1.3104 1.064616,2.375 2.375,2.375 l 2.71875,0 c 1.310384,0 2.375,-1.0646 2.375,-2.375 l 0,-2.75 c 0,-1.3104 -1.064616,-2.375 -2.375,-2.375 l -2.71875,0 z m -41.3125,0.4375 5,0 c 0.454292,0 0.8125,0.3582 0.8125,0.8125 l 0,5.0313 c 0,0.4543 -0.358208,0.8125 -0.8125,0.8125 l -5,0 c -0.454292,0 -0.8125,-0.3582 -0.8125,-0.8125 l 0,-5.0313 c 0,-0.4543 0.358208,-0.8125 0.8125,-0.8125 z m 60.28125,0.031 c -1.310384,0 -2.375,1.0646 -2.375,2.375 l 0,1.8437 c 0,1.3104 1.064616,2.375 2.375,2.375 l 1.875,0 c 1.310384,0 2.375,-1.0646 2.375,-2.375 l 0,-1.8437 c 0,-1.3104 -1.064616,-2.375 -2.375,-2.375 l -1.875,0 z m 18.125,0.375 c -1.310384,0 -2.375,1.0646 -2.375,2.375 l 0,1.0937 c 0,1.3104 1.064616,2.375 2.375,2.375 l 1.09375,0 c 1.310384,0 2.375,-1.0646 2.375,-2.375 l 0,-1.0937 c 0,-1.3104 -1.064616,-2.375 -2.375,-2.375 l -1.09375,0 z m -57.15625,0.2187 3.78125,0 c 0.454292,0 0.8125,0.3582 0.8125,0.8125 l 0,3.7813 c 0,0.4543 -0.358208,0.8125 -0.8125,0.8125 l -3.78125,0 c -0.454292,0 -0.8125,-0.3582 -0.8125,-0.8125 l 0,-3.7813 c 0,-0.4543 0.358208,-0.8125 0.8125,-0.8125 z m 20.0625,0.5 2.71875,0 c 0.454292,0 0.8125,0.3582 0.8125,0.8125 l 0,2.75 c 0,0.4543 -0.358208,0.8125 -0.8125,0.8125 l -2.71875,0 c -0.454292,0 -0.8125,-0.3582 -0.8125,-0.8125 l 0,-2.75 c 0,-0.4543 0.358208,-0.8125 0.8125,-0.8125 z m 18.96875,0.4688 1.875,0 c 0.454292,0 0.8125,0.3582 0.8125,0.8125 l 0,1.8437 c 0,0.4543 -0.358208,0.8125 -0.8125,0.8125 l -1.875,0 c -0.454292,0 -0.8125,-0.3582 -0.8125,-0.8125 l 0,-1.8437 c 0,-0.4543 0.358208,-0.8125 0.8125,-0.8125 z m 18.125,0.375 1.09375,0 c 0.454292,0 0.8125,0.3582 0.8125,0.8125 l 0,1.0937 c 0,0.4543 -0.358208,0.8125 -0.8125,0.8125 l -1.09375,0 c -0.454292,0 -0.8125,-0.3582 -0.8125,-0.8125 l 0,-1.0937 c 0,-0.4543 0.358208,-0.8125 0.8125,-0.8125 z" fill="#F1F2F4" fill-opacity="1" stroke="none" marker="none" visibility="visible" display="inline" overflow="visible"></path></g></svg>