<svg fill="#D4D4D4" xmlns="http://www.w3.org/2000/svg" xmlns:xlink="http://www.w3.org/1999/xlink" version="1.1" x="0px" y="0px" viewBox="0 0 100 100" enable-background="new 0 0 100 100" xml:space="preserve"><path d="M17.754,47.725c-4.418-18.125,6.693-36.4,24.818-40.82c18.124-4.418,36.405,6.695,40.823,24.82  c4.418,18.127-6.697,36.402-24.82,40.82L50.57,98.16l-7.998-25.615C30.313,69.557,20.743,59.984,17.754,47.725z M45.731,69.053  l4.839,15.5l4.847-15.5c16.195-2.676,27.158-17.973,24.486-34.17C77.226,18.686,61.927,7.725,45.731,10.398  c-16.197,2.674-27.16,17.973-24.484,34.168C23.321,57.131,33.167,66.979,45.731,69.053z"></path></svg>