<svg fill="#F1F2F4" xmlns:dc="http://purl.org/dc/elements/1.1/" xmlns:cc="http://creativecommons.org/ns#" xmlns:rdf="http://www.w3.org/1999/02/22-rdf-syntax-ns#" xmlns:svg="http://www.w3.org/2000/svg" xmlns="http://www.w3.org/2000/svg" xmlns:sodipodi="http://sodipodi.sourceforge.net/DTD/sodipodi-0.dtd" xmlns:inkscape="http://www.inkscape.org/namespaces/inkscape" version="1.1" x="0px" y="0px" viewBox="0 0 100 100"><g transform="translate(0,-952.36218)"><path transform="translate(0,952.36218)" style="text-indent:0;text-transform:none;direction:ltr;block-progression:tb;baseline-shift:baseline;color:#000000;enable-background:accumulate;" d="m 14.40625,5.21875 a 1.0000999,1.0000999 0 0 0 -0.3125,0.125 l -8,4.625 a 1.0000999,1.0000999 0 0 0 -0.5,0.875 l 0,9.25 a 1.0000999,1.0000999 0 0 0 0.5,0.84375 l 8,4.59375 a 1.0000999,1.0000999 0 0 0 1,0 l 8,-4.59375 a 1.0000999,1.0000999 0 0 0 0.5,-0.84375 l 0,-9.25 a 1.0000999,1.0000999 0 0 0 -0.5,-0.875 l -8,-4.625 a 1.0000999,1.0000999 0 0 0 -0.6875,-0.125 z m 0.1875,2.125 7,4.0625 0,8.09375 -7,4.03125 -7,-4.03125 0,-8.09375 7,-4.0625 z m 24.625,0.5 a 1.0000999,1.0000999 0 0 0 -0.3125,0.125 l -6.8125,3.90625 a 1.0000999,1.0000999 0 0 0 -0.5,0.875 l 0,7.84375 a 1.0000999,1.0000999 0 0 0 0.5,0.84375 l 6.8125,3.9375 a 1.0000999,1.0000999 0 0 0 1,0 l 6.78125,-3.9375 a 1.0000999,1.0000999 0 0 0 0.5,-0.84375 l 0,-7.84375 a 1.0000999,1.0000999 0 0 0 -0.5,-0.875 L 39.90625,7.96875 a 1.0000999,1.0000999 0 0 0 -0.6875,-0.125 z m 22,2.0625 a 1.0000999,1.0000999 0 0 0 -0.3125,0.125 l -5.75,3.34375 a 1.0000999,1.0000999 0 0 0 -0.5,0.875 l 0,6.65625 a 1.0000999,1.0000999 0 0 0 0.5,0.84375 l 5.75,3.34375 a 1.0000999,1.0000999 0 0 0 1,0 L 67.6875,21.75 a 1.0000999,1.0000999 0 0 0 0.5,-0.84375 l 0,-6.65625 a 1.0000999,1.0000999 0 0 0 -0.5,-0.875 l -5.78125,-3.34375 a 1.0000999,1.0000999 0 0 0 -0.6875,-0.125 z m -21.8125,0.0625 5.78125,3.34375 0,6.6875 -5.78125,3.375 -5.8125,-3.375 0,-6.6875 5.8125,-3.34375 z m 41.5,1.5625 a 1.0000999,1.0000999 0 0 0 -0.3125,0.125 L 75.6875,14.5 a 1.0000999,1.0000999 0 0 0 -0.5,0.875 l 0,5.65625 a 1.0000999,1.0000999 0 0 0 0.5,0.84375 l 4.90625,2.84375 a 1.0000999,1.0000999 0 0 0 1,0 L 86.5,21.875 A 1.0000999,1.0000999 0 0 0 87,21.03125 L 87,15.375 A 1.0000999,1.0000999 0 0 0 86.5,14.5 l -4.90625,-2.84375 a 1.0000999,1.0000999 0 0 0 -0.6875,-0.125 z m -19.5,0.5 4.78125,2.78125 0,5.5 -4.78125,2.78125 -4.75,-2.78125 0,-5.5 4.75,-2.78125 z m 19.6875,1.625 L 85,15.9375 l 0,4.5 -3.90625,2.28125 -3.90625,-2.28125 0,-4.5 3.90625,-2.28125 z M 28.5,26.375 A 1.0000999,1.0000999 0 0 0 28.1875,26.5 l -6.8125,3.9375 a 1.0000999,1.0000999 0 0 0 -0.5,0.875 l 0,7.84375 A 1.0000999,1.0000999 0 0 0 21.375,40 l 6.8125,3.90625 a 1.0000999,1.0000999 0 0 0 1,0 L 36,40 a 1.0000999,1.0000999 0 0 0 0.5,-0.84375 l 0,-7.84375 A 1.0000999,1.0000999 0 0 0 36,30.4375 L 29.1875,26.5 A 1.0000999,1.0000999 0 0 0 28.5,26.375 z m 22.6875,0.90625 a 1.0000999,1.0000999 0 0 0 -0.3125,0.125 L 45.09375,30.75 a 1.0000999,1.0000999 0 0 0 -0.5,0.875 l 0,6.65625 a 1.0000999,1.0000999 0 0 0 0.5,0.84375 l 5.78125,3.34375 a 1.0000999,1.0000999 0 0 0 1,0 L 57.65625,39.125 a 1.0000999,1.0000999 0 0 0 0.5,-0.84375 l 0,-6.65625 a 1.0000999,1.0000999 0 0 0 -0.5,-0.875 L 51.875,27.40625 a 1.0000999,1.0000999 0 0 0 -0.6875,-0.125 z m -22.5,1.21875 5.8125,3.375 0,6.6875 -5.8125,3.34375 -5.8125,-3.34375 0,-6.6875 5.8125,-3.375 z m 42.40625,0.03125 a 1.0000999,1.0000999 0 0 0 -0.3125,0.125 L 65.875,31.5 a 1.0000999,1.0000999 0 0 0 -0.5,0.875 l 0,5.65625 a 1.0000999,1.0000999 0 0 0 0.5,0.84375 l 4.90625,2.84375 a 1.0000999,1.0000999 0 0 0 1,0 L 76.6875,38.875 a 1.0000999,1.0000999 0 0 0 0.5,-0.84375 l 0,-5.65625 a 1.0000999,1.0000999 0 0 0 -0.5,-0.875 l -4.90625,-2.84375 a 1.0000999,1.0000999 0 0 0 -0.6875,-0.125 z M 89.03125,29.25 a 1.0000999,1.0000999 0 0 0 -0.3125,0.125 l -4.15625,2.4375 a 1.0000999,1.0000999 0 0 0 -0.5,0.875 l 0,4.8125 a 1.0000999,1.0000999 0 0 0 0.5,0.84375 L 88.71875,40.75 a 1.0000999,1.0000999 0 0 0 1,0 l 4.1875,-2.40625 a 1.0000999,1.0000999 0 0 0 0.5,-0.84375 l 0,-4.8125 a 1.0000999,1.0000999 0 0 0 -0.5,-0.875 l -4.1875,-2.4375 a 1.0000999,1.0000999 0 0 0 -0.6875,-0.125 z m -37.65625,0.15625 4.78125,2.78125 0,5.5 -4.78125,2.78125 -4.78125,-2.78125 0,-5.5 4.78125,-2.78125 z m 19.90625,1.25 3.90625,2.28125 0,4.5 -3.90625,2.28125 -3.90625,-2.28125 0,-4.5 3.90625,-2.28125 z m 17.9375,0.71875 3.1875,1.875 0,3.65625 -3.1875,1.84375 -3.15625,-1.84375 0,-3.65625 3.15625,-1.875 z m -48.0625,13.28125 a 1.0000999,1.0000999 0 0 0 -0.3125,0.125 L 35.0625,48.125 a 1.0000999,1.0000999 0 0 0 -0.5,0.875 l 0,6.6875 a 1.0000999,1.0000999 0 0 0 0.5,0.84375 l 5.78125,3.3125 a 1.0000999,1.0000999 0 0 0 1,0 l 5.78125,-3.3125 a 1.0000999,1.0000999 0 0 0 0.5,-0.84375 l 0,-6.6875 a 1.0000999,1.0000999 0 0 0 -0.5,-0.875 l -5.78125,-3.34375 a 1.0000999,1.0000999 0 0 0 -0.6875,-0.125 z m -23.375,0.25 a 1.0000999,1.0000999 0 0 0 -0.3125,0.125 l -6.78125,3.9375 a 1.0000999,1.0000999 0 0 0 -0.5,0.875 l 0,7.84375 a 1.0000999,1.0000999 0 0 0 0.5,0.84375 l 6.78125,3.9375 a 1.0000999,1.0000999 0 0 0 1,0 l 6.8125,-3.9375 a 1.0000999,1.0000999 0 0 0 0.5,-0.84375 l 0,-7.84375 a 1.0000999,1.0000999 0 0 0 -0.5,-0.875 l -6.8125,-3.9375 a 1.0000999,1.0000999 0 0 0 -0.6875,-0.125 z m 43.5,0.625 a 1.0000999,1.0000999 0 0 0 -0.3125,0.125 L 56.03125,48.5 a 1.0000999,1.0000999 0 0 0 -0.5,0.875 l 0,5.65625 a 1.0000999,1.0000999 0 0 0 0.5,0.84375 l 4.9375,2.84375 a 1.0000999,1.0000999 0 0 0 1,0 L 66.875,55.875 a 1.0000999,1.0000999 0 0 0 0.5,-0.84375 l 0,-5.65625 a 1.0000999,1.0000999 0 0 0 -0.5,-0.875 l -4.90625,-2.84375 a 1.0000999,1.0000999 0 0 0 -0.6875,-0.125 z M 79.4375,45.9375 a 1.0000999,1.0000999 0 0 0 -0.3125,0.125 l -4.1875,2.40625 a 1.0000999,1.0000999 0 0 0 -0.5,0.875 l 0,4.8125 A 1.0000999,1.0000999 0 0 0 74.9375,55 l 4.1875,2.40625 a 1.0000999,1.0000999 0 0 0 1,0 L 84.28125,55 a 1.0000999,1.0000999 0 0 0 0.5,-0.84375 l 0,-4.8125 a 1.0000999,1.0000999 0 0 0 -0.5,-0.875 L 80.125,46.0625 a 1.0000999,1.0000999 0 0 0 -0.6875,-0.125 z m -38.09375,0.84375 4.78125,2.78125 0,5.53125 -4.78125,2.75 -4.78125,-2.75 0,-5.53125 4.78125,-2.78125 z m -23.375,0.25 5.8125,3.375 0,6.6875 -5.8125,3.375 -5.78125,-3.375 0,-6.6875 5.78125,-3.375 z m 43.5,0.625 3.90625,2.28125 0,4.5 -3.90625,2.28125 -3.9375,-2.28125 0,-4.5 3.9375,-2.28125 z m 18.15625,0.40625 3.15625,1.84375 0,3.65625 -3.15625,1.84375 -3.1875,-1.84375 0,-3.65625 3.1875,-1.84375 z m -48.5,13.96875 a 1.0000999,1.0000999 0 0 0 -0.3125,0.125 L 25.03125,65.5 a 1.0000999,1.0000999 0 0 0 -0.5,0.875 l 0,6.6875 a 1.0000999,1.0000999 0 0 0 0.5,0.84375 L 30.8125,77.25 a 1.0000999,1.0000999 0 0 0 1,0 l 5.78125,-3.34375 a 1.0000999,1.0000999 0 0 0 0.5,-0.84375 l 0,-6.6875 a 1.0000999,1.0000999 0 0 0 -0.5,-0.875 L 31.8125,62.15625 a 1.0000999,1.0000999 0 0 0 -0.6875,-0.125 z m 55.3125,0.28125 a 1.0000999,1.0000999 0 0 0 -0.3125,0.125 L 82.59375,64.5 a 1.0000999,1.0000999 0 0 0 -0.5,0.875 l 0,4.09375 a 1.0000999,1.0000999 0 0 0 0.5,0.84375 l 3.53125,2.03125 a 1.0000999,1.0000999 0 0 0 1,0 l 3.5625,-2.03125 a 1.0000999,1.0000999 0 0 0 0.5,-0.84375 l 0,-4.09375 a 1.0000999,1.0000999 0 0 0 -0.5,-0.875 L 87.125,62.4375 a 1.0000999,1.0000999 0 0 0 -0.6875,-0.125 z m -34.96875,0.21875 a 1.0000999,1.0000999 0 0 0 -0.3125,0.125 L 46.21875,65.5 a 1.0000999,1.0000999 0 0 0 -0.5,0.875 l 0,5.65625 a 1.0000999,1.0000999 0 0 0 0.5,0.84375 l 4.9375,2.84375 a 1.0000999,1.0000999 0 0 0 1,0 L 57.0625,72.875 a 1.0000999,1.0000999 0 0 0 0.5,-0.84375 l 0,-5.65625 a 1.0000999,1.0000999 0 0 0 -0.5,-0.875 l -4.90625,-2.84375 a 1.0000999,1.0000999 0 0 0 -0.6875,-0.125 z m 18.34375,0.0625 A 1.0000999,1.0000999 0 0 0 69.5,62.71875 L 65.3125,65.125 a 1.0000999,1.0000999 0 0 0 -0.5,0.875 l 0,4.8125 a 1.0000999,1.0000999 0 0 0 0.5,0.84375 L 69.5,74.0625 a 1.0000999,1.0000999 0 0 0 1,0 l 4.15625,-2.40625 a 1.0000999,1.0000999 0 0 0 0.5,-0.84375 l 0,-4.8125 a 1.0000999,1.0000999 0 0 0 -0.5,-0.875 L 70.5,62.71875 a 1.0000999,1.0000999 0 0 0 -0.6875,-0.125 z m -38.5,1.5625 4.78125,2.78125 0,5.53125 -4.78125,2.78125 -4.78125,-2.78125 0,-5.53125 4.78125,-2.78125 z m 55.3125,0.28125 2.5625,1.5 0,2.9375 -2.5625,1.46875 -2.53125,-1.46875 0,-2.9375 2.53125,-1.5 z m -34.96875,0.21875 3.90625,2.28125 0,4.5 -3.90625,2.28125 -3.9375,-2.28125 0,-4.5 3.9375,-2.28125 z M 70,64.71875 l 3.15625,1.84375 0,3.65625 L 70,72.0625 l -3.1875,-1.84375 0,-3.65625 L 70,64.71875 z M 77.0625,78.625 a 1.0000999,1.0000999 0 0 0 -0.34375,0.125 l -3.5625,2.0625 a 1.0000999,1.0000999 0 0 0 -0.5,0.875 l 0,4.09375 a 1.0000999,1.0000999 0 0 0 0.5,0.84375 l 3.5625,2.0625 a 1.0000999,1.0000999 0 0 0 1,0 L 81.25,86.625 a 1.0000999,1.0000999 0 0 0 0.5,-0.84375 l 0,-4.09375 a 1.0000999,1.0000999 0 0 0 -0.5,-0.875 L 77.71875,78.75 A 1.0000999,1.0000999 0 0 0 77.0625,78.625 z m -16.875,0.625 a 1.0000999,1.0000999 0 0 0 -0.3125,0.125 l -4.1875,2.40625 a 1.0000999,1.0000999 0 0 0 -0.5,0.875 l 0,4.8125 a 1.0000999,1.0000999 0 0 0 0.5,0.84375 l 4.1875,2.40625 a 1.0000999,1.0000999 0 0 0 1,0 l 4.1875,-2.40625 a 1.0000999,1.0000999 0 0 0 0.5,-0.84375 l 0,-4.8125 a 1.0000999,1.0000999 0 0 0 -0.5,-0.875 L 60.875,79.375 A 1.0000999,1.0000999 0 0 0 60.1875,79.25 z m -39.09375,0.1875 a 1.0000999,1.0000999 0 0 0 -0.3125,0.125 L 15,82.875 a 1.0000999,1.0000999 0 0 0 -0.5,0.875 l 0,6.6875 a 1.0000999,1.0000999 0 0 0 0.5,0.84375 l 5.78125,3.34375 a 1.0000999,1.0000999 0 0 0 1,0 l 5.78125,-3.34375 a 1.0000999,1.0000999 0 0 0 0.5,-0.84375 l 0,-6.6875 a 1.0000999,1.0000999 0 0 0 -0.5,-0.875 l -5.78125,-3.3125 a 1.0000999,1.0000999 0 0 0 -0.6875,-0.125 z m 20.5625,0.09375 a 1.0000999,1.0000999 0 0 0 -0.3125,0.125 L 36.40625,82.5 a 1.0000999,1.0000999 0 0 0 -0.5,0.875 l 0,5.65625 a 1.0000999,1.0000999 0 0 0 0.5,0.84375 l 4.9375,2.84375 a 1.0000999,1.0000999 0 0 0 1,0 L 47.25,89.875 a 1.0000999,1.0000999 0 0 0 0.5,-0.84375 l 0,-5.65625 A 1.0000999,1.0000999 0 0 0 47.25,82.5 l -4.90625,-2.84375 a 1.0000999,1.0000999 0 0 0 -0.6875,-0.125 z m 35.5625,1.21875 2.53125,1.5 0,2.9375 -2.53125,1.5 -2.5625,-1.5 0,-2.9375 2.5625,-1.5 z m -16.84375,0.625 3.1875,1.84375 0,3.65625 -3.1875,1.84375 -3.1875,-1.84375 0,-3.65625 3.1875,-1.84375 z m -39.09375,0.1875 4.78125,2.75 0,5.53125 L 21.28125,92.625 16.5,89.84375 l 0,-5.53125 4.78125,-2.75 z m 20.5625,0.09375 3.90625,2.28125 0,4.5 -3.90625,2.28125 -3.9375,-2.28125 0,-4.5 3.9375,-2.28125 z" fill="#F1F2F4" fill-opacity="1" stroke="none" marker="none" visibility="visible" display="inline" overflow="visible"></path></g></svg>