<svg fill="#F1F2F5" xmlns="http://www.w3.org/2000/svg" xmlns:sodipodi="http://sodipodi.sourceforge.net/DTD/sodipodi-0.dtd" viewBox="0 0 100 100" x="0px" y="0px"><path d="M 5,13.499268 12.297297,20.812592 5,28.125915 12.297297,35.406296 5,42.686676 12.297297,50 5,57.313324 12.297297,64.593704 5,71.874085 12.297297,79.187408 5,86.500732 13.513514,95 20.810811,87.719619 28.108108,95 35.405405,87.719619 42.702703,95 50,87.719619 57.297297,95 64.594595,87.719619 71.891892,95 79.189189,87.719619 86.486486,95 95,86.500732 87.702703,79.187408 95,71.907028 87.702703,64.593704 95,57.313324 87.702703,50 95,42.719619 87.702703,35.406296 95,28.125915 87.702703,20.812592 95,13.532211 86.486486,5 79.189189,12.280381 71.891892,5 64.594595,12.280381 57.297297,5 50,12.280381 42.702703,5 35.405405,12.280381 28.108108,5 20.810811,12.280381 13.513514,5 Z m 8.513514,-6.0614935 6.081081,6.0614935 -6.081081,6.094436 -6.081082,-6.094436 z m 14.594594,0 6.081081,6.0614935 -6.081081,6.094436 -6.081081,-6.094436 z m 14.594595,0 6.081081,6.0614935 -6.081081,6.094436 -6.081081,-6.094436 z m 14.594594,0 6.081081,6.0614935 -6.081081,6.094436 -6.081081,-6.094436 z m 14.594595,0 6.081081,6.0614935 -6.081081,6.094436 -6.081081,-6.094436 z m 14.594594,0 6.081082,6.0944365 -6.081082,6.061493 -6.081081,-6.094436 z m -65.675675,7.2803805 6.081081,6.094437 -6.081081,6.061493 -6.081081,-6.061493 z m 14.594594,0 6.081081,6.094437 -6.081081,6.061493 -6.081081,-6.061493 z m 14.594595,0 6.081081,6.094437 L 50,26.874085 43.918919,20.812592 Z m 14.594595,0 6.081081,6.094437 -6.081081,6.061493 -6.081081,-6.061493 z m 14.594594,0 6.081081,6.094437 -6.081081,6.094436 -6.081081,-6.094436 z m -65.675675,7.313324 6.081081,6.061493 -6.081081,6.094436 -6.081082,-6.094436 z m 14.594594,0 6.081081,6.061493 -6.081081,6.094436 -6.081081,-6.094436 z m 14.594595,0 6.081081,6.061493 -6.081081,6.094436 -6.081081,-6.094436 z m 14.594594,0 6.081081,6.061493 -6.081081,6.094436 -6.081081,-6.094436 z m 14.594595,0 6.081081,6.094436 -6.081081,6.061493 -6.081081,-6.094436 z m 14.594594,0 6.081082,6.094436 -6.081082,6.061493 -6.081081,-6.061493 z m -65.675675,7.28038 6.081081,6.094437 -6.081081,6.061493 -6.081081,-6.061493 z m 14.594594,0 6.081081,6.094437 -6.081081,6.061493 -6.081081,-6.061493 z m 14.594595,0 6.081081,6.094437 L 50,41.467789 43.918919,35.406296 Z m 14.594595,0 6.081081,6.094437 -6.081081,6.094436 -6.081081,-6.094436 z m 14.594594,0.03294 6.081081,6.061494 -6.081081,6.094436 -6.081081,-6.094436 z m -65.675675,7.280381 6.081081,6.061493 -6.081081,6.094437 -6.081082,-6.094437 z m 14.594594,0 6.081081,6.061493 -6.081081,6.094437 -6.081081,-6.094437 z m 14.594595,0 6.081081,6.061493 -6.081081,6.094437 -6.081081,-6.094437 z m 14.594594,0 6.081081,6.094436 -6.081081,6.061494 -6.081081,-6.094437 z m 14.594595,0 6.081081,6.094436 -6.081081,6.061494 -6.081081,-6.061494 z m 14.594594,0 6.081082,6.094436 -6.081082,6.061494 -6.081081,-6.061494 z M 20.810811,43.905564 26.891892,50 20.810811,56.061493 14.72973,50 Z m 14.594594,0 L 41.486486,50 35.405405,56.061493 29.324324,50 Z M 50,43.905564 56.081081,50 50,56.094436 43.918919,50 Z m 14.594595,0.03294 6.081081,6.061493 -6.081081,6.094436 -6.081081,-6.094436 z m 14.594594,0 6.081081,6.061493 -6.081081,6.094436 -6.081081,-6.094436 z m -65.675675,7.28038 6.081081,6.061494 -6.081081,6.094436 -6.081082,-6.061493 z m 14.594594,0 6.081081,6.061494 -6.081081,6.094436 -6.081081,-6.094436 z m 14.594595,0 6.081081,6.094437 -6.081081,6.061493 -6.081081,-6.094436 z m 14.594594,0 6.081081,6.094437 -6.081081,6.061493 -6.081081,-6.061493 z m 14.594595,0 6.081081,6.094437 -6.081081,6.061493 -6.081081,-6.061493 z m 14.594594,0 6.081082,6.094437 -6.081082,6.061493 -6.081081,-6.061493 z m -65.675675,7.280381 6.081081,6.094436 -6.081081,6.061494 -6.081081,-6.061494 z m 14.594594,0 6.081081,6.094436 -6.081081,6.094437 -6.081081,-6.094437 z M 50,58.532211 56.081081,64.593704 50,70.688141 43.918919,64.593704 Z m 14.594595,0 6.081081,6.061493 -6.081081,6.094437 -6.081081,-6.094437 z m 14.594594,0 6.081081,6.061493 -6.081081,6.094437 -6.081081,-6.094437 z m -65.675675,7.280381 6.081081,6.061493 -6.081081,6.094436 -6.081082,-6.061493 z m 14.594594,0 6.081081,6.094436 -6.081081,6.061493 -6.081081,-6.094436 z m 14.594595,0 6.081081,6.094436 -6.081081,6.061493 -6.081081,-6.061493 z m 14.594594,0 6.081081,6.094436 -6.081081,6.061493 -6.081081,-6.061493 z m 14.594595,0 6.081081,6.094436 -6.081081,6.061493 -6.081081,-6.061493 z m 14.594594,0 6.081082,6.094436 -6.081082,6.061493 -6.081081,-6.061493 z m -65.675675,7.28038 6.081081,6.094436 -6.081081,6.094437 -6.081081,-6.094437 z m 14.594594,0.03294 6.081081,6.061493 -6.081081,6.094437 -6.081081,-6.094437 z m 14.594595,0 6.081081,6.061493 L 50,85.281842 43.918919,79.187405 Z m 14.594595,0 6.081081,6.061493 -6.081081,6.094437 -6.081081,-6.094437 z m 14.594594,0 6.081081,6.061493 -6.081081,6.094437 -6.081081,-6.094437 z m -65.675675,7.280381 6.081081,6.094436 -6.081081,6.061493 -6.081082,-6.061493 z m 14.594594,0 6.081081,6.094436 -6.081081,6.061493 -6.081081,-6.061493 z m 14.594595,0 6.081081,6.094436 -6.081081,6.061493 -6.081081,-6.061493 z m 14.594594,0 6.081081,6.094436 -6.081081,6.061493 -6.081081,-6.061493 z m 14.594595,0 6.081081,6.094436 -6.081081,6.061493 -6.081081,-6.061493 z m 14.594594,0 6.081082,6.094436 -6.081082,6.061493 -6.081081,-6.061493 z" color="#000"></path></svg>