<svg fill="#F1F2F5" xmlns:dc="http://purl.org/dc/elements/1.1/" xmlns:cc="http://creativecommons.org/ns#" xmlns:rdf="http://www.w3.org/1999/02/22-rdf-syntax-ns#" xmlns:svg="http://www.w3.org/2000/svg" xmlns="http://www.w3.org/2000/svg" xmlns:sodipodi="http://sodipodi.sourceforge.net/DTD/sodipodi-0.dtd" xmlns:inkscape="http://www.inkscape.org/namespaces/inkscape" viewBox="0 0 1151.25 1151.2501" version="1.1" x="0px" y="0px"><g transform="translate(7028.6845,-1720.534)"><path style="" d="m -6741.1846,2728.0341 0,-143.7501 -143.75,0 -143.75,0 0,-431.875 0,-431.875 431.875,0 431.8751,0 0,143.75 0,143.75 143.75,0 143.75,0 0,431.875 0,431.8751 -431.875,0 -431.8751,0 0,-143.75 z m 818.7502,-287.8126 1e-4,-386.5625 -121.2501,0.3248 -121.2501,0.3248 0,264.9877 0,264.9877 -264.9878,0 -264.9877,0 -0.3248,121.2501 -0.3248,121.2501 386.5626,-1e-4 386.5625,0 1e-4,-386.5626 z m -818.7502,-166.5625 0,-265.625 265.625,0 265.6251,0 0,-120.9375 0,-120.9375 -386.2461,0.3165 -386.246,0.3165 -0.3165,386.246 -0.3165,386.2461 120.9375,0 120.9375,-10e-5 0,-265.625 z m 531.2501,23.125 0,-242.5 -242.5,0 -242.5001,0 0,242.5 0,242.5 242.5001,0 242.5,0 0,-242.5 z" fill="#F1F2F5"></path></g></svg>