<svg fill="#F1F2F4" xmlns="http://www.w3.org/2000/svg" xmlns:xlink="http://www.w3.org/1999/xlink" version="1.1" x="0px" y="0px" viewBox="0 0 32 32" enable-background="new 0 0 32 32" xml:space="preserve"><g display="none"><rect x="-125.73" y="-46.333" display="inline" fill="#F1F2F4" width="412.397" height="207"></rect></g><g><g><path d="M13.157,10.802c0.057-0.143,0.107-0.291,0.149-0.442c0.1-0.36,0.153-0.739,0.153-1.131C13.459,6.894,11.565,5,9.229,5    C6.894,5,5,6.894,5,9.229C5,9.621,5.053,10,5.153,10.36c0.04,0.144,0.087,0.285,0.141,0.423l0.128,0.291l3.807,7.034l2.091-3.864    h3.531v8.614h5.679L22.771,27l3.812-7.044l0.116-0.263c0.057-0.143,0.107-0.291,0.149-0.442c0.1-0.36,0.153-0.739,0.153-1.131    c0-2.336-1.894-4.229-4.229-4.229s-4.229,1.894-4.229,4.229c0,0.392,0.053,0.771,0.153,1.131c0.04,0.144,0.087,0.285,0.141,0.423    l0.128,0.291l1.025,1.894h-4.138v-8.614h-3.989l1.18-2.181L13.157,10.802z M19.766,19.307c-0.041-0.105-0.077-0.212-0.108-0.322    c-0.078-0.28-0.117-0.571-0.117-0.864c0-1.781,1.449-3.229,3.229-3.229S26,16.34,26,18.121c0,0.293-0.039,0.584-0.117,0.864    c-0.032,0.115-0.07,0.227-0.101,0.305l-0.099,0.225l-2.913,5.383l-2.908-5.374L19.766,19.307z M12.342,10.093    c-0.032,0.115-0.07,0.227-0.101,0.306l-0.099,0.225l-2.913,5.383l-2.908-5.374l-0.096-0.218c-0.041-0.105-0.077-0.212-0.108-0.322    C6.039,9.813,6,9.523,6,9.229C6,7.449,7.449,6,9.229,6c1.781,0,3.229,1.449,3.229,3.229C12.459,9.523,12.42,9.813,12.342,10.093z"></path><path d="M9.229,7.32c-1.034,0-1.871,0.838-1.871,1.871c0,1.034,0.838,1.871,1.871,1.871s1.871-0.838,1.871-1.871    C11.101,8.158,10.263,7.32,9.229,7.32z M9.229,10.062c-0.48,0-0.871-0.391-0.871-0.871c0-0.48,0.391-0.871,0.871-0.871    c0.48,0,0.871,0.391,0.871,0.871C10.101,9.672,9.71,10.062,9.229,10.062z"></path><path d="M24.642,18.082c0-1.034-0.838-1.871-1.871-1.871s-1.871,0.838-1.871,1.871c0,1.033,0.838,1.871,1.871,1.871    S24.642,19.116,24.642,18.082z M21.899,18.082c0-0.48,0.391-0.871,0.871-0.871s0.871,0.391,0.871,0.871    c0,0.48-0.391,0.871-0.871,0.871S21.899,18.563,21.899,18.082z"></path><polygon points="1,1 8,1 8,0 0,0 0,7.885 1,7.885   "></polygon><polygon points="32,24.115 31,24.115 31,31 24,31 24,32 32,32   "></polygon></g></g><g display="none"><g display="inline"><path d="M13.157,10.802c0.057-0.143,0.107-0.291,0.149-0.442c0.1-0.36,0.153-0.739,0.153-1.131C13.459,6.894,11.565,5,9.229,5    C6.894,5,5,6.894,5,9.229C5,9.621,5.053,10,5.153,10.36c0.04,0.144,0.087,0.285,0.141,0.423l0.128,0.291l3.807,7.034l1.82-3.364    h3.301v8.614h6.45L22.771,27l3.812-7.044l0.116-0.263c0.057-0.143,0.107-0.291,0.149-0.442c0.1-0.36,0.153-0.739,0.153-1.131    c0-2.336-1.894-4.229-4.229-4.229s-4.229,1.894-4.229,4.229c0,0.392,0.053,0.771,0.153,1.131c0.04,0.144,0.087,0.285,0.141,0.423    l0.128,0.291l0.754,1.394h-3.367v-8.614h-4.219l0.909-1.681L13.157,10.802z M22.771,15.891c1.229,0,2.229,1,2.229,2.229    c0,0.203-0.027,0.404-0.081,0.597c-0.019,0.07-0.042,0.138-0.068,0.205l-0.067,0.153l-2.014,3.722l-2.009-3.712l-0.077-0.176    c-0.024-0.062-0.044-0.126-0.062-0.192c-0.054-0.193-0.081-0.394-0.081-0.597C20.541,16.891,21.541,15.891,22.771,15.891z     M9.229,13.906l-2.009-3.712l-0.077-0.176C7.119,9.956,7.099,9.892,7.081,9.827C7.027,9.633,7,9.432,7,9.229C7,8,8,7,9.229,7    s2.229,1,2.229,2.229c0,0.203-0.027,0.404-0.081,0.597c-0.019,0.07-0.042,0.138-0.068,0.205l-0.067,0.152L9.229,13.906z"></path><polygon points="2,2 8.5,2 8.5,0 0,0 0,8.385 2,8.385   "></polygon><polygon points="32,23.615 30,23.615 30,30 23.5,30 23.5,32 32,32   "></polygon></g></g><g display="none"><g display="inline"><path d="M13.157,10.802c0.057-0.143,0.107-0.291,0.149-0.442c0.1-0.36,0.153-0.739,0.153-1.131C13.459,6.894,11.565,5,9.229,5    C6.894,5,5,6.894,5,9.229C5,9.621,5.053,10,5.153,10.36c0.04,0.144,0.087,0.285,0.141,0.423l0.128,0.291l3.807,7.034l2.226-4.114    h3.645v8.614h5.294L22.771,27l3.812-7.044l0.116-0.263c0.057-0.143,0.107-0.291,0.149-0.442c0.1-0.36,0.153-0.739,0.153-1.131    c0-2.336-1.894-4.229-4.229-4.229s-4.229,1.894-4.229,4.229c0,0.392,0.053,0.771,0.153,1.131c0.04,0.144,0.087,0.285,0.141,0.423    l0.128,0.291l1.16,2.144h-4.523v-8.614h-3.875l1.315-2.431L13.157,10.802z M19.301,19.49c-0.048-0.121-0.089-0.245-0.125-0.372    c-0.09-0.324-0.135-0.659-0.135-0.997c0-2.056,1.673-3.729,3.729-3.729s3.729,1.673,3.729,3.729c0,0.338-0.045,0.674-0.135,0.997    c-0.037,0.133-0.081,0.263-0.125,0.374l-0.098,0.226L22.77,25.95l-3.349-6.185L19.301,19.49z M12.824,10.227    c-0.037,0.133-0.081,0.263-0.125,0.374l-0.098,0.226l-3.372,6.232L5.88,10.873l-0.121-0.274c-0.048-0.121-0.089-0.245-0.124-0.372    C5.545,9.903,5.5,9.568,5.5,9.229C5.5,7.173,7.173,5.5,9.229,5.5c2.056,0,3.729,1.673,3.729,3.729    C12.959,9.568,12.913,9.903,12.824,10.227z"></path><path d="M9.229,7.32c-1.034,0-1.871,0.838-1.871,1.871c0,1.034,0.838,1.871,1.871,1.871s1.871-0.838,1.871-1.871    C11.101,8.158,10.263,7.32,9.229,7.32z M9.229,10.562c-0.756,0-1.371-0.615-1.371-1.371c0-0.756,0.615-1.371,1.371-1.371    c0.756,0,1.371,0.615,1.371,1.371C10.601,9.947,9.986,10.562,9.229,10.562z"></path><path d="M24.642,18.082c0-1.034-0.838-1.871-1.871-1.871s-1.871,0.838-1.871,1.871c0,1.033,0.838,1.871,1.871,1.871    S24.642,19.116,24.642,18.082z M21.399,18.082c0-0.756,0.615-1.371,1.371-1.371c0.756,0,1.371,0.615,1.371,1.371    c0,0.756-0.615,1.371-1.371,1.371C22.014,19.454,21.399,18.839,21.399,18.082z"></path><polygon points="0.75,0.75 8,0.75 8,0.25 0.25,0.25 0.25,7.885 0.75,7.885   "></polygon><polygon points="31.75,24.115 31.25,24.115 31.25,31.25 24,31.25 24,31.75 31.75,31.75   "></polygon></g></g></svg>
