<svg opacity="0.6" fill="#FF584C" xmlns="http://www.w3.org/2000/svg" data-name="Layer 1" viewBox="0 0 100 100" x="0px" y="0px"><title>Artboard 7</title><path d="M44.7,97.06V81.9H80.55V72.63H44.7V62.11l9.58-9.58a72.46,72.46,0,0,1-5.51-7.61L38.14,55.55H20.77v-31H11.49V60.19a4.64,4.64,0,0,0,4.64,4.64H35.42V97.06Z"></path><path d="M65.94,53.41a4.37,4.37,0,0,0,6.14,0c5.49-5.4,16.43-17.81,16.43-31A19.51,19.51,0,0,0,69,2.94q-.63,0-1.26,0a19.66,19.66,0,0,0-18.25,19.7C49.62,35.75,60.47,48,65.94,53.41Zm-4.74-31a7.8,7.8,0,1,1,7.8,7.8A7.8,7.8,0,0,1,61.2,22.45Z"></path></svg>
