<svg fill="#D3D4DE" xmlns="http://www.w3.org/2000/svg" xmlns:xlink="http://www.w3.org/1999/xlink" version="1.1" x="0px" y="0px" viewBox="0 0 25 25" enable-background="new 0 0 25 25" xml:space="preserve"><g><g><path d="M8,2.5H3C2.724,2.5,2.5,2.724,2.5,3v6c0,0.276,0.224,0.5,0.5,0.5h5c0.276,0,0.5-0.224,0.5-0.5V3    C8.5,2.724,8.276,2.5,8,2.5z M7.5,8.5h-4v-5h4V8.5z"></path><path d="M8,10.5H3c-0.276,0-0.5,0.224-0.5,0.5v11c0,0.276,0.224,0.5,0.5,0.5h5c0.276,0,0.5-0.224,0.5-0.5V11    C8.5,10.724,8.276,10.5,8,10.5z M7.5,21.5h-4v-10h4V21.5z"></path><path d="M15,2.5h-5C9.724,2.5,9.5,2.724,9.5,3v10c0,0.276,0.224,0.5,0.5,0.5h5c0.276,0,0.5-0.224,0.5-0.5V3    C15.5,2.724,15.276,2.5,15,2.5z M14.5,12.5h-4v-9h4V12.5z"></path><path d="M15,14.5h-5c-0.276,0-0.5,0.224-0.5,0.5v7c0,0.276,0.224,0.5,0.5,0.5h5c0.276,0,0.5-0.224,0.5-0.5v-7    C15.5,14.724,15.276,14.5,15,14.5z M14.5,21.5h-4v-6h4V21.5z"></path><path d="M22,2.5h-5c-0.276,0-0.5,0.224-0.5,0.5v6c0,0.276,0.224,0.5,0.5,0.5h5c0.276,0,0.5-0.224,0.5-0.5V3    C22.5,2.724,22.276,2.5,22,2.5z M21.5,8.5h-4v-5h4V8.5z"></path><path d="M22,10.5h-5c-0.276,0-0.5,0.224-0.5,0.5v5c0,0.276,0.224,0.5,0.5,0.5h5c0.276,0,0.5-0.224,0.5-0.5v-5    C22.5,10.724,22.276,10.5,22,10.5z M21.5,15.5h-4v-4h4V15.5z"></path><path d="M22,17.5h-5c-0.276,0-0.5,0.224-0.5,0.5v4c0,0.276,0.224,0.5,0.5,0.5h5c0.276,0,0.5-0.224,0.5-0.5v-4    C22.5,17.724,22.276,17.5,22,17.5z M21.5,21.5h-4v-3h4V21.5z"></path></g></g></svg>