<svg fill="#F1F2F4" xmlns="http://www.w3.org/2000/svg" xmlns:xlink="http://www.w3.org/1999/xlink" version="1.1" x="0px" y="0px" viewBox="0 0 48 48" enable-background="new 0 0 48 48" xml:space="preserve"><g><path d="M42.2,25.7l-4.8-4.8v-9.1c0-0.4-0.2-0.7-0.5-0.9l-7.7-4.5V1c0-0.6-0.4-1-1-1c-0.6,0-1,0.4-1,1v5.5L19.5,11   c-0.3,0.2-0.5,0.5-0.5,0.9v8.9l-7.2,4.2l-4.8-3c-0.5-0.3-1.1-0.1-1.4,0.3c-0.3,0.5-0.1,1.1,0.3,1.4l4.9,3v8.9   c0,0.4,0.2,0.7,0.5,0.9l7.7,4.5V47c0,0.6,0.4,1,1,1c0.6,0,1-0.4,1-1v-6.1l7.7-4.5c0.3-0.2,0.5-0.5,0.5-0.9v-8.9l7.1-4.1l4.5,4.5   c0.2,0.2,0.5,0.3,0.7,0.3c0.3,0,0.5-0.1,0.7-0.3C42.6,26.7,42.6,26.1,42.2,25.7z M28.3,8.2l7.2,4.2v8.3l-7.2,4.2L21,20.7v-8.3   L28.3,8.2z M20,39.2L12.8,35v-8.3l7.2-4.2l7.2,4.2V35L20,39.2z"></path></g></svg>