<svg fill="#545760" xmlns="http://www.w3.org/2000/svg" data-name="Layer 2" viewBox="0 0 100 100" x="0px" y="0px"><title>Artboard 31</title><path d="M41.19,71.23A1.3,1.3,0,0,0,42.45,70v-2.8c4.93-.32,8.4-3.24,8.4-7.46,0-4-2.53-6.31-8.52-7.66V42.3a11.89,11.89,0,0,1,5.21,2.29,1.33,1.33,0,0,0,.87.28,1.43,1.43,0,0,0,1.5-1.42,1.6,1.6,0,0,0-.79-1.3,13.87,13.87,0,0,0-6.67-2.53v-1.3a1.26,1.26,0,0,0-2.53,0v1.22c-4.85.24-8.29,3.24-8.29,7.3S34.2,53.15,40,54.53v9.9a12.72,12.72,0,0,1-7-3.24,1.46,1.46,0,1,0-1.7,2.37,15.69,15.69,0,0,0,8.56,3.51V70A1.3,1.3,0,0,0,41.19,71.23ZM42.33,55c4.3,1.11,5.49,2.53,5.49,4.85,0,2.6-2.09,4.46-5.49,4.66Zm-7.65-8.4c0-2.41,2-4.3,5.37-4.46V51.5C35.74,50.35,34.68,48.93,34.68,46.64ZM10,7.94V92.06a1.5,1.5,0,0,0,1.5,1.5H51.56a1.5,1.5,0,1,0,0-3H13V9.44H52V25.65a1.5,1.5,0,0,0,1.5,1.5H69.74V51.47a1.5,1.5,0,0,0,3,0V25.65a1.49,1.49,0,0,0-.11-.55v0a1.5,1.5,0,0,0-.33-.49L54.59,6.88a1.5,1.5,0,0,0-.49-.33h0a1.49,1.49,0,0,0-.55-.11h-42A1.5,1.5,0,0,0,10,7.94Zm45,3.62L67.62,24.15H55Zm23.27,33s0,.06,0,.09a1.13,1.13,0,0,0,0,.3s0,.06,0,.1l3.36,9.77a1.5,1.5,0,0,0,1.41,1h0a1.5,1.5,0,0,0,1.41-1l3.5-9.74s0-.06,0-.09a1.15,1.15,0,0,0,.06-.31s0-.06,0-.09l.14-28.86h0l0-7.73a1.5,1.5,0,0,0-1.49-1.51L80,6.44h0a1.5,1.5,0,0,0-1.5,1.49l0,7.73h0Zm7-27.33-.12,25.86-3.86,0,.12-25.86h3.86Zm-2.1,32.59L81.91,46h2.63ZM85.34,9.46l0,4.73H81.45l0-4.73ZM17.9,25.65a1.5,1.5,0,0,1,1.5-1.5H37.89a1.5,1.5,0,0,1,0,3H19.4A1.5,1.5,0,0,1,17.9,25.65Zm0-6.68a1.5,1.5,0,0,1,1.5-1.5H30.32a1.5,1.5,0,0,1,0,3H19.4A1.5,1.5,0,0,1,17.9,19ZM89.51,71.76a1.5,1.5,0,1,1-2,2.24L71.24,59.5,55,74a1.5,1.5,0,0,1-2-2.24l17.27-15.4a1.5,1.5,0,0,1,2,0ZM75.71,93.45h9.15a1.5,1.5,0,0,0,1.5-1.5V74.66a1.5,1.5,0,0,0-.5-1.12L72.24,61.4a1.5,1.5,0,0,0-2,0L56.62,73.54a1.5,1.5,0,0,0-.5,1.12V92a1.5,1.5,0,0,0,1.5,1.5h9.15a1.5,1.5,0,0,0,1.5-1.5V84.51a3,3,0,0,1,5.94,0V92A1.5,1.5,0,0,0,75.71,93.45ZM71.24,78.54a6,6,0,0,0-6,6v5.95H59.12V75.33L71.24,64.53,83.36,75.33V90.45H77.21V84.51A6,6,0,0,0,71.24,78.54Z"></path></svg>