<svg fill="#143665" xmlns="http://www.w3.org/2000/svg" xmlns:xlink="http://www.w3.org/1999/xlink" version="1.1" x="0px" y="0px" viewBox="0 0 100 100" enable-background="new 0 0 100 100" xml:space="preserve"><ellipse fill="#143665" stroke="#143665" stroke-miterlimit="10" cx="59.6" cy="24.5" rx="6.3" ry="6.1"></ellipse><rect x="27.7" y="55.7" transform="matrix(-0.2142 -0.9768 0.9768 -0.2142 -5.9643 106.8138)" fill="#143665" stroke="#143665" stroke-miterlimit="10" width="24.7" height="0.1"></rect><polygon fill="#143665" stroke="#143665" stroke-miterlimit="10" points="36.1,43.9 35.9,59.4 35.7,59.3 35.9,43.8 "></polygon><rect x="19.5" y="54.9" transform="matrix(0.2665 -0.9638 0.9638 0.2665 -29.6205 70.96)" fill="#143665" stroke="#143665" stroke-miterlimit="10" width="24.7" height="0.1"></rect><rect x="53.9" y="32.5" fill="#143665" width="13.1" height="28.6"></rect><path fill="#143665" d="M71.9,34.9c0,1.6-0.9,2.9-2,2.9H51.3c-1.1,0-2-1.3-2-2.9l0,0c0-1.6,0.9-2.9,2-2.9h18.7  C71,31.9,71.9,33.3,71.9,34.9L71.9,34.9z"></path><polyline fill="#143665" stroke="#143665" stroke-width="6" stroke-linecap="round" stroke-miterlimit="10" points="51.3,34.9   46.7,41 36.1,41.4 "></polyline><polyline fill="#143665" stroke="#143665" stroke-width="6" stroke-linecap="round" stroke-miterlimit="10" points="56.8,59.7   53.9,68.5 53.1,79 "></polyline><polyline fill="#143665" stroke="#143665" stroke-width="6" stroke-linecap="round" stroke-miterlimit="10" points="63.9,59.7   63.9,68.9 65.7,79.6 "></polyline><polyline fill="#143665" stroke="#143665" stroke-width="6" stroke-linecap="round" stroke-miterlimit="10" points="69.9,34.9   72.3,43.9 71.9,51.1 "></polyline><ellipse fill="#143665" cx="35.8" cy="61.4" rx="2.4" ry="2.1"></ellipse><rect x="33.3" y="64.1" fill="#143665" width="4.9" height="9.9"></rect><path fill="#143665" d="M39.8,65c0,0.6-0.3,1.1-0.7,1.1h-6.7c-0.4,0-0.7-0.5-0.7-1.1l0,0c0-0.6,0.3-1.1,0.7-1.1h6.7  C39.5,63.9,39.8,64.4,39.8,65L39.8,65z"></path><polyline fill="#143665" stroke="#143665" stroke-width="2" stroke-linecap="round" stroke-miterlimit="10" points="32.3,65   30,67.4 26.9,67.6 "></polyline><polyline fill="#143665" stroke="#143665" stroke-width="2" stroke-linecap="round" stroke-miterlimit="10" points="34.2,73.9   32.7,77.3 32.3,81.3 "></polyline><polyline fill="#143665" stroke="#143665" stroke-width="2" stroke-linecap="round" stroke-miterlimit="10" points="37.4,73.9   39,77.2 39,80.8 "></polyline><polyline fill="#143665" stroke="#143665" stroke-width="2" stroke-linecap="round" stroke-miterlimit="10" points="39,65.1   40.7,67.5 43.7,67.9 "></polyline></svg>