<svg fill="#143665" xmlns="http://www.w3.org/2000/svg" xmlns:xlink="http://www.w3.org/1999/xlink" version="1.1" x="0px" y="0px" viewBox="0 0 65 65" enable-background="new 0 0 65 65" xml:space="preserve"><g><path d="M19.7,46.1l1.4,0.5c0.3-1,1.1-1.2,1.1-1.2l-0.4-1.5C21.9,43.8,20.3,44.3,19.7,46.1z"></path><path d="M52.3,47.8c-1,0.4-1.5,1.6-1.1,2.7l1.4-0.6c-0.1-0.3,0-0.6,0.3-0.7c0.6-0.2,1.3,0,1.6,0.7c0.2,0.6,0.2,1.2,0,1.7   c-0.2,0.6-0.7,1-1.2,1.2c-1,0.4-2,0.4-3,0c-0.9-0.4-1.7-1.1-2.1-2.1c0-0.1,0-0.2,0-0.2c0-4.5-1.3-6.6-3.3-8.7   c-0.4-0.4-0.9-0.8-1.4-1.2l0.2-3.4c0-0.3-0.1-0.6-0.4-0.8l-0.5-0.2l-3,2.3c-2.4-1-5-1.5-7.7-1.5c-2.9,0-5.7,0.6-8.1,1.7l-2.6-2   c-0.3-0.2-0.6-0.2-0.9-0.1l-0.5,0.3l0.3,4c-1.2,0.9-2.2,2.1-2.9,3.4c-0.2,0.3-0.3,0.6-0.5,0.9c-0.2,0.3-0.6,0.7-1.1,0.7H14   c-1,0-1.9,0.8-1.9,1.9v1.7c0,1,0.8,1.9,1.9,1.9c0.9,0,1.7,0.9,2.2,2.4l0.1,0.3c0.5,1.8,1.5,3.4,2.8,4.7c0.4,0.4,0.8,0.7,1.2,1.1   l0.2,0.1c0,0,1.8,1.3,2,2.9c0.3,2.2,1.7,2.3,2.6,2.3l0.1,0c0,0,0.1,0,0.1,0c0.8,0,2.3-0.3,2.9-2.3h7.3c0.2,0.7,0.5,1.2,0.9,1.6   c0.5,0.5,1.2,0.8,2,0.8c0,0,0.1,0,0.1,0l0.1,0c0.9,0,2.4-0.1,2.6-2.3c0.2-1.6,2-2.9,2-2.9l0.2-0.1c2.2-1.7,3.7-4,4.3-6.6   c0.5,0.5,1.1,0.9,1.7,1.2c0.7,0.3,1.4,0.4,2.1,0.4c0.7,0,1.4-0.1,2-0.4c1.9-0.8,2.9-3,2.1-4.9C55.3,47.9,53.7,47.2,52.3,47.8z    M42.7,58.4l-0.2,0.1c-0.1,0.1-2.3,1.7-2.6,4c-0.1,0.9-0.3,0.9-1.2,1l-0.1,0c-0.4,0-0.8-0.1-1-0.3c-0.5-0.5-0.7-1.4-0.7-2.8h-1.5   c0,0.3,0,0.5,0,0.8h-6.8c0-0.2,0-0.5,0-0.8h-1.5c0,0.3,0,0.5,0,0.7c-0.2,2.5-1.3,2.4-1.7,2.4l-0.1,0c-0.9,0-1.1,0-1.2-1   c-0.3-2.3-2.5-3.9-2.6-4l-0.2-0.1c-0.4-0.3-0.7-0.6-1.1-0.9c-1.1-1.1-2-2.5-2.5-4c0-0.1-0.1-0.2-0.1-0.3c-0.7-2.1-2.1-3.4-3.6-3.4   c-0.2,0-0.4-0.2-0.4-0.4v-1.7c0-0.2,0.2-0.4,0.4-0.4h1.7c0.9,0,1.7-0.5,2.3-1.3c0.1-0.2,0.2-0.3,0.3-0.5c0-0.1,0.1-0.1,0.1-0.2   c0.1-0.1,0.1-0.2,0.2-0.4c0.5-0.8,1.1-1.5,1.7-2.2l1.5-0.1l-0.3-3.8l3.3,2.6l0.9-1.2l-0.6-0.5c2.1-0.8,4.4-1.2,6.7-1.2   c2.2,0,4.4,0.4,6.3,1.1L37.7,40l0.9,1.2l3.3-2.6l-0.3,3.8l1.5,0.1l0-0.1c0.2,0.1,0.3,0.3,0.5,0.4c1.9,1.9,2.9,3.7,2.9,7.6   C46.6,53.6,45.2,56.5,42.7,58.4z"></path><path d="M29.3,40.5l0.3,1.5c0,0,3.9-0.8,6.8,0.6l0.6-1.4C33.7,39.6,29.5,40.4,29.3,40.5z"></path><path d="M26.8,13.2c-0.1-0.1-0.2-0.2-0.2-0.4h-1.5c0,0.6,0.3,1.2,0.7,1.6c0.3,0.2,0.6,0.4,0.9,0.5v0.8h1.5v-0.8   c0.3-0.1,0.6-0.3,0.9-0.5c0.5-0.4,0.7-1,0.7-1.6c0-0.6-0.3-1.2-0.7-1.6c-0.4-0.4-1-0.6-1.7-0.6c-0.3,0-0.5-0.1-0.7-0.2   c-0.1-0.1-0.2-0.2-0.2-0.4c0-0.2,0.1-0.3,0.2-0.4c0.3-0.3,1-0.3,1.3,0c0.1,0.1,0.2,0.2,0.2,0.4h1.5c0-0.6-0.3-1.2-0.7-1.6   c-0.3-0.2-0.6-0.4-0.9-0.5V7.1h-1.5v0.9c-0.3,0.1-0.6,0.2-0.9,0.5c-0.5,0.4-0.7,1-0.7,1.6c0,0.6,0.3,1.2,0.7,1.6   c0.4,0.4,1,0.6,1.7,0.6c0.3,0,0.5,0.1,0.7,0.2c0.1,0.1,0.2,0.2,0.2,0.4s-0.1,0.4-0.2,0.4C27.8,13.5,27.1,13.5,26.8,13.2z"></path><path d="M27.2,18.9c4.1,0,7.5-3.4,7.5-7.5s-3.4-7.5-7.5-7.5c-0.3,0-0.5,0-0.8,0l-4-4L5.1,2.2V0H0.3v1.5h3.3v0.8v10.9v0.6H1.2v1.5   h3.9v-2.2h0.8L7,14.5c1,1.2,2.5,1.8,4.1,1.8h10.5C22.9,17.9,25,18.9,27.2,18.9z M33.2,11.4c0,3.3-2.7,6-6,6c-1.3,0-2.4-0.4-3.4-1.1   h1.4v-0.8c0-2.2-1.7-4.1-3.9-4.3c0.1-3.2,2.7-5.8,6-5.8C30.5,5.4,33.2,8.1,33.2,11.4z M19.7,11.2h-1.3c-0.7,0-1.3-0.3-1.8-0.7   c-0.2-0.2-0.2-0.6,0-0.9L20.2,6l1,1C20.3,8.1,19.7,9.6,19.7,11.2z M8.1,13.5l-1.5-1.7H5.1V3.7l16.8-2.1l2.8,2.8   c-0.9,0.3-1.7,0.8-2.4,1.5l-2-2l-4.7,4.7c-0.8,0.8-0.8,2.2,0,3c0.8,0.8,1.8,1.2,2.8,1.2h2.4c1.3,0,2.4,0.9,2.7,2.1H11   C9.9,14.8,8.8,14.3,8.1,13.5z"></path><path d="M61.3,16.8v-0.9h3.4v-1.5h-4.9v2.2l-17.7-2.2l-4,4c-0.3,0-0.6,0-0.8,0c-4.2,0-7.6,3.4-7.6,7.6c0,4.2,3.4,7.6,7.6,7.6   c2.2,0,4.3-1,5.8-2.7h10.7c1.6,0,3.1-0.7,4.1-1.8l1.1-1.2h0.8v2.2h4v-1.5h-2.5v-0.7V16.8z M37.3,32.1c-3.4,0-6.1-2.7-6.1-6.1   c0-3.4,2.7-6.1,6.1-6.1c3.3,0,6,2.7,6.1,5.9c-2.2,0.2-4,2.1-4,4.4V31h1.4C39.8,31.7,38.6,32.1,37.3,32.1z M44.9,25.8   c0-1.6-0.6-3.1-1.5-4.3l1-1l3.7,3.7c0.2,0.2,0.2,0.7,0,0.9c-0.5,0.5-1.1,0.8-1.8,0.8H44.9z M58.3,26.4l-1.6,1.7   c-0.8,0.9-1.9,1.3-3,1.3H41c0.3-1.2,1.5-2.2,2.8-2.2h2.4c1.1,0,2.1-0.4,2.9-1.2c0.8-0.8,0.8-2.2,0-3l-4.8-4.8l-2,2   c-0.7-0.7-1.6-1.2-2.5-1.5l2.8-2.8l17.1,2.1v8.3H58.3z"></path><path d="M37.7,24.1c0.1,0.1,0.2,0.2,0.2,0.4h1.5c0-0.6-0.3-1.2-0.8-1.6c-0.3-0.2-0.6-0.4-0.9-0.5v-0.9h-1.5v0.9   c-0.3,0.1-0.7,0.2-0.9,0.5c-0.5,0.4-0.7,1-0.7,1.6c0,0.6,0.3,1.2,0.8,1.6c0.5,0.4,1,0.6,1.7,0.6c0.3,0,0.5,0.1,0.7,0.2   c0.1,0.1,0.2,0.2,0.2,0.4c0,0.2-0.1,0.4-0.2,0.4c-0.3,0.3-1,0.3-1.4,0c-0.1-0.1-0.2-0.2-0.2-0.4h-1.5c0,0.6,0.3,1.2,0.7,1.6   c0.3,0.2,0.6,0.4,0.9,0.5v0.9h1.5v-0.9c0.3-0.1,0.7-0.3,0.9-0.5c0.5-0.4,0.8-1,0.8-1.6c0-0.6-0.3-1.2-0.8-1.6   c-0.5-0.4-1-0.6-1.7-0.6c-0.3,0-0.5-0.1-0.7-0.2c-0.1-0.1-0.2-0.2-0.2-0.4c0-0.2,0.1-0.4,0.2-0.4C36.7,23.8,37.3,23.8,37.7,24.1z"></path></g></svg>