<svg fill="#F1F2F5" xmlns="http://www.w3.org/2000/svg" xmlns:xlink="http://www.w3.org/1999/xlink" version="1.1" x="0px" y="0px" viewBox="0 0 91 91" enable-background="new 0 0 91 91" xml:space="preserve"><g><path d="M0.813,46.257c3.154,8.409,7.226,15.97,10.769,24.033c6.035-0.275,10.101,1.435,16.527,0.788   c1.104,4.911-2.507,11.704-3.303,17.379c13.801-4.462,28.391-10.309,45.539-4.939c2.923-6.18,4.745-13.503,8.291-19.132   c-3.008-5.771-7.876-9.72-11.639-14.818c6.545-0.995,13.998-0.878,23.192-0.808c-6.318-8.85-12.277-18.084-9.912-35.577   C70.004,7.26,57.258-0.193,49.628,12.35C38.863,2.913,22.186,5.241,7.438,9.803c2.205,7.168,4.928,13.835,7.442,20.706   C11.499,37.1,4.887,40.387,0.813,46.257z M12.409,65.271c-1.937-6.364-5.397-11.224-7.488-17.406   c7.181,0.895,15.245,0.742,21.557,2.499C21.23,54.815,17.696,60.932,12.409,65.271z M52.145,59.524   c-6.014-4.549-13.732-7.303-19.895-11.659c4.835-3.166,7.987-7.993,13.233-10.729C46.391,45.292,52.594,52.726,52.145,59.524z    M50.426,39.607c3.121,3.293,6.646,6.074,10.764,8.258c-1.452,3.79-2.594,7.934-4.913,10.828   C54.684,52.524,49.734,45.255,50.426,39.607z M32.25,51.179c5.356,4.867,13.767,6.729,19.051,11.612   c-6.162,1.807-12.057,3.979-19.051,4.985C33.205,60.102,30.008,57.242,32.25,51.179z M29.745,46.257   c-3.046-4.102-5.934-8.437-9.115-12.438c6.91,0.869,15.578-0.056,20.737,2.477C37.117,39.265,33.693,42.972,29.745,46.257z    M28.912,68.591c-4.453-0.214-7.985-1.345-13.196-0.814c3.272-5.841,8.365-9.791,12.392-14.898   C29.096,56.542,28.912,62.04,28.912,68.591z M29.745,83.518c-1.593-14.51,9.439-9.669,14.908-4.126   C38.979,80.02,35.515,82.871,29.745,83.518z M36.402,70.29c5.583-1.354,10.373-3.47,16.529-4.177   c-1.206,4.017-2.355,8.143-4.943,10.779C44.955,73.849,39.331,73.38,36.402,70.29z M68.671,80.152   c-4.976-1.318-11.599-1.07-16.526-2.488c1.256-4.451,3.715-7.881,4.928-12.393c4.639-0.886,10.077-0.886,17.379-0.886   C73.267,70.44,69.706,74.055,68.671,80.152z M66.996,32.187c0.622,1.834,4.684,0.311,6.62,0.8   c0.266,4.037-6.354,7.833-9.083,11.562C65.176,38.51,63.578,35.235,66.996,32.187z M84.375,46.257   c-5.206-0.548-12.661,1.088-16.547-0.815c4.34-2.569,6.276-7.622,10.807-9.925C80.009,39.642,83.382,41.731,84.375,46.257z    M76.964,30.509c-3.968,0.614-5.32-1.287-9.136-0.834c1.878-4.481,5.904-6.836,9.136-9.923   C76.964,23.337,76.964,26.958,76.964,30.509z M65.404,9.004c2.848,2.948,8.328,3.229,10.756,6.623   c-4.899,2.575-6.387,8.526-11.627,10.756C65.791,19.174,61.11,14.175,65.404,9.004z M64.533,51.179   c1.781,4.053,5.811,5.842,7.481,9.939c-3.383,0.595-10.189,1.974-13.305,0C61.562,58.729,60.957,52.841,64.533,51.179z    M60.381,44.548c-2.581-4.25-8.282-5.471-10.753-9.861c4.487-0.515,8.668-1.31,12.431-2.5   C61.825,38.457,62.359,40.936,60.381,44.548z M60.381,8.164c-0.713,7.081,2.4,10.101,0,16.58c-1.785-4.54-6.611-6.127-8.236-10.792   C54.984,12.138,57.109,9.596,60.381,8.164z M51.301,18.128c1.744,5.067,7.376,6.376,9.08,11.547   c-4.294,0.689-8.354,1.575-12.394,2.512C48.602,27.012,48.832,21.434,51.301,18.128z M34.731,8.164   c3.793,2.814,8.549,4.683,13.256,6.655c-1.433,5.456-2.505,11.271-3.335,17.368c-6.128,0.482-16.916-1.193-24.795-1.677   C24.31,22.539,28.521,14.377,34.731,8.164z M11.581,12.35c5.32-1.327,13.445-4.221,18.164-3.346   c-5.205,5.251-7.41,13.535-13.227,18.212C15.561,21.576,13.101,17.368,11.581,12.35z M17.387,34.687   c2.779,3.761,5.667,7.505,8.259,11.57c-6.923,0.564-11.343-1.408-18.208-0.815C9.908,41.014,13.058,37.208,17.387,34.687z"></path></g></svg>