<svg fill="#FFF" xmlns:dc="http://purl.org/dc/elements/1.1/" xmlns:cc="http://creativecommons.org/ns#" xmlns:rdf="http://www.w3.org/1999/02/22-rdf-syntax-ns#" xmlns:svg="http://www.w3.org/2000/svg" xmlns="http://www.w3.org/2000/svg" xmlns:sodipodi="http://sodipodi.sourceforge.net/DTD/sodipodi-0.dtd" xmlns:inkscape="http://www.inkscape.org/namespaces/inkscape" version="1.1" x="0px" y="0px" viewBox="0 0 100 100"><g transform="translate(0,-952.36218)"><path style="text-indent:0;text-transform:none;direction:ltr;block-progression:tb;baseline-shift:baseline;color:#000000;enable-background:accumulate;" d="m 33.939649,960.36504 c 9.9937,0 17.307304,7.11758 17.062604,15.375 -0.1765,6.0455 -3.499,13.40694 -7.531304,20.25 -3.2431,5.50376 -6.8883,10.64716 -9.5313,14.78126 -2.5887,-4.0901 -6.137,-9.2859 -9.3437,-14.81251 -4.0018,-6.89691 -7.3595,-14.30923 -7.5937,-20.125 -0.3321,-8.25042 6.9596,-15.46875 16.9374,-15.46875 z m 0.1876,7.09375 a 2.0002,2.0002 0 0 0 -0.2188,0 2.0002,2.0002 0 0 0 -2.0312,2.03125 l 0,5.03125 -5,0 a 2.0002,2.0002 0 1 0 0,4 l 5,0 0,5.03125 a 2.0002,2.0002 0 1 0 4,0 l 0,-5.03125 5.0312,0 a 2.0002,2.0002 0 1 0 0,-4 l -5.0312,0 0,-5.03125 a 2.0002,2.0002 0 0 0 -1.75,-2.03125 z" fill="#FFF" fill-opacity="1" fill-rule="evenodd" stroke="none" marker="none" visibility="visible" display="inline" overflow="visible"></path><path style="text-indent:0;text-transform:none;direction:ltr;block-progression:tb;baseline-shift:baseline;color:#000000;enable-background:accumulate;" d="m 75.446153,980.10938 c 4.153,0 7.5625,3.40829 7.5625,7.5625 l 0,49.09372 c 0,4.1607 -3.4095,7.5937 -7.5625,7.5937 l -49.031304,0 c -4.1595,0 -7.5937,-3.433 -7.5937,-7.5937 l 0,-31.0312 c -0.0149,-1.0566 0.9432,-2.0285 2,-2.0285 1.0567,0 2.0149,0.9719 2,2.0285 l 0,31.0312 c 0,1.9849 1.6158,3.5937 3.5937,3.5937 l 15,0 25.937504,-25.9687 -16.1875,-16.18747 c -0.5743,-0.55536 -0.7631,-1.47249 -0.4549,-2.20954 0.3083,-0.73705 1.0937,-1.24674 1.8924,-1.22796 0.5116,0.0122 1.0154,0.22977 1.375,0.59375 8.4144,8.34622 16.6859,16.71722 25.0313,25.06242 l 0,-32.74992 c 0,-1.97132 -1.5982,-3.5625 -3.5625,-3.5625 l -16.5313,0 c -1.0566,0.0149 -2.0285,-0.94327 -2.0285,-2 0,-1.05673 0.9719,-2.01494 2.0285,-2 z" fill="#FFF" fill-opacity="1" fill-rule="evenodd" stroke="none" marker="none" visibility="visible" display="inline" overflow="visible"></path></g></svg>