<svg fill="#FF584C" xmlns="http://www.w3.org/2000/svg" xmlns:xlink="http://www.w3.org/1999/xlink" version="1.1" x="0px" y="0px" viewBox="0 0 100 100" style="enable-background:new 0 0 100 100;" xml:space="preserve"><g><path d="M0,0v100h100V0H0z M5.859,5.859h36.051L30.675,26.702L5.859,12.793V5.859z M28.729,30.313l-16.22,30.089l-6.649-3.753   V17.495L28.729,30.313z M5.859,61.358l4.703,2.653l-4.703,8.725V61.358z M5.859,94.141V81.38L25.794,44.4l14.392,7.811   l-22.903,41.93H5.859z M94.141,51.809L83.4,45.897c-0.07,1.012-0.28,2.351-0.812,4.235l11.552,6.358v20.338L75.602,66.767   c-0.635,1.272-1.262,2.501-1.86,3.657l20.399,11.071v12.646H21.957l21.834-39.973l6.179,3.354   c-0.991-2.344-1.709-4.274-2.228-5.876L27.74,40.79L46.57,5.859h30.173L65.622,26.552c1.483,0.055,2.923,0.284,4.298,0.669   L81.4,5.859h12.74V51.809z M78.548,45.032c0-7.518-6.095-13.612-13.612-13.612s-13.611,6.094-13.611,13.612   s13.611,31.416,13.611,31.416S78.548,52.55,78.548,45.032z M56.839,45.032c0-4.472,3.624-8.097,8.097-8.097   s8.098,3.625,8.098,8.097c0,4.473-3.625,8.097-8.098,8.097S56.839,49.505,56.839,45.032z"></path></g></svg>