<svg fill="#FF584C" xmlns="http://www.w3.org/2000/svg" xmlns:xlink="http://www.w3.org/1999/xlink" version="1.1" x="0px" y="0px" viewBox="0 0 100 100" style="enable-background:new 0 0 100 100;" xml:space="preserve"><style type="text/css">
	.st0{fill:#FF584C;stroke:#FF584C;stroke-miterlimit:10;}
	.st1{fill:none;stroke:#FF584C;stroke-linecap:round;stroke-linejoin:round;stroke-miterlimit:10;}
	.st2{fill:none;stroke:#FF584C;stroke-linecap:round;stroke-linejoin:round;}
	.st3{fill:none;stroke:#FF584C;stroke-linecap:round;stroke-linejoin:round;stroke-dasharray:0.9868,0.9868;}
	.st4{fill:none;stroke:#FF584C;stroke-linecap:round;stroke-linejoin:round;stroke-dasharray:0.9868,1.9736,0.9868,0.9868;}
	.st5{fill:none;stroke:#FF584C;stroke-linecap:round;stroke-linejoin:round;stroke-dasharray:1,2,1,1;}
	.st6{fill:none;stroke:#FF584C;stroke-linecap:round;stroke-linejoin:round;stroke-dasharray:1.0099,1.0099;}
	.st7{fill:none;stroke:#FF584C;stroke-linecap:round;stroke-linejoin:round;stroke-dasharray:1.0099,2.0198,1.0099,1.0099;}
	.st8{stroke:#FF584C;stroke-linecap:round;stroke-linejoin:round;stroke-miterlimit:10;}
</style><g><path d="M29.1,68.3c0,0,0.1,0,0.2,0h0.5c0.3,0,0.5-0.2,0.5-0.5s-0.2-0.5-0.5-0.5h-0.5c-0.1,0-0.1,0-0.2,0c-0.2-2.8-2.6-5-5.5-5   c-3,0-5.5,2.5-5.5,5.5s2.5,5.5,5.5,5.5C26.5,73.3,28.9,71.1,29.1,68.3z M19.2,67.8c0-2.5,2-4.5,4.5-4.5s4.5,2,4.5,4.5   s-2,4.5-4.5,4.5S19.2,70.3,19.2,67.8z"></path><path d="M83.8,35.2L62,26.7c-0.2-0.1-0.4,0-0.5,0.1c-0.1,0.1-0.2,0.4-0.1,0.5l3.3,7.6c-0.1,0-0.2,0.1-0.3,0.3   c-0.1-0.2-0.3-0.3-0.5-0.3h-1c-0.3,0-0.5,0.2-0.5,0.5s0.2,0.5,0.5,0.5h1c0.2,0,0.4-0.1,0.5-0.3c0.1,0.1,0.1,0.2,0.3,0.3l-3.5,7.6   c-0.1,0.2-0.1,0.4,0.1,0.5c0.1,0.1,0.2,0.2,0.4,0.2c0.1,0,0.1,0,0.2,0l21.9-8c0.2-0.1,0.3-0.3,0.3-0.5S83.9,35.3,83.8,35.2z    M62.7,42.8l3.3-7.1c0.1-0.1,0.1-0.3,0-0.4l-3.2-7.2l19.4,7.5L62.7,42.8z"></path><path d="M31.8,68.3h1c0.3,0,0.5-0.2,0.5-0.5c0,0.3,0.2,0.5,0.5,0.5h1c0.3,0,0.5-0.2,0.5-0.5s-0.2-0.5-0.5-0.5h-1   c-0.3,0-0.5,0.2-0.5,0.5c0-0.3-0.2-0.5-0.5-0.5h-1c-0.3,0-0.5,0.2-0.5,0.5S31.5,68.3,31.8,68.3z"></path><path d="M36.4,35.9c0.3,0,0.5-0.2,0.5-0.5s-0.2-0.5-0.5-0.5h-1c-0.3,0-0.5,0.2-0.5,0.4c0-0.2-0.2-0.4-0.5-0.4h-1   c-0.3,0-0.5,0.2-0.5,0.5s0.2,0.5,0.5,0.5h1c0.3,0,0.5-0.2,0.5-0.4c0,0.2,0.2,0.4,0.5,0.4H36.4z"></path><path d="M29.9,35.5c0,0.2,0.2,0.4,0.5,0.4h1c0.3,0,0.5-0.2,0.5-0.5s-0.2-0.5-0.5-0.5h-1c-0.3,0-0.5,0.2-0.5,0.4   c0-0.2-0.2-0.4-0.5-0.4h-1c-0.3,0-0.5,0.2-0.5,0.5s0.2,0.5,0.5,0.5h1C29.7,35.9,29.9,35.7,29.9,35.5z"></path><path d="M16.5,42C16.6,42,16.6,42,16.5,42c0.3,0,0.5-0.2,0.6-0.4c0.1-0.3,0.1-0.6,0.2-0.9c0.1-0.2,0-0.5-0.2-0.6   c0.2,0,0.4-0.1,0.5-0.3c0.1-0.3,0.3-0.6,0.4-0.8c0.1-0.2,0.1-0.5-0.2-0.7c-0.2-0.1-0.5-0.1-0.7,0.2c-0.2,0.3-0.4,0.6-0.5,0.9   c-0.1,0.2,0,0.5,0.2,0.6c-0.2,0-0.5,0.1-0.6,0.4c-0.1,0.3-0.2,0.7-0.2,1C16.1,41.7,16.3,41.9,16.5,42z"></path><path d="M23.3,50.8c-0.3,0-0.5,0.2-0.5,0.5s0.2,0.5,0.5,0.5h1c0.3,0,0.5-0.2,0.5-0.5s-0.2-0.5-0.5-0.5H23.3z"></path><path d="M72.4,64c0.2-0.3,0.3-0.7,0.4-1c0.1-0.3-0.1-0.5-0.3-0.6c-0.3-0.1-0.5,0.1-0.6,0.3c-0.1,0.3-0.2,0.5-0.3,0.8   c-0.1,0.2-0.1,0.4,0.1,0.6c-0.2-0.1-0.4,0-0.6,0.1c-0.2,0.2-0.4,0.4-0.6,0.6c-0.2,0.2-0.2,0.5-0.1,0.7c0.1,0.1,0.2,0.2,0.4,0.2   c0.1,0,0.2,0,0.3-0.1c0.3-0.2,0.5-0.5,0.8-0.7c0.2-0.2,0.2-0.5,0-0.7C72,64.3,72.3,64.2,72.4,64z"></path><path d="M26.2,51.8h1c0.3,0,0.5-0.2,0.5-0.4c0,0.2,0.2,0.4,0.5,0.4h1c0.3,0,0.5-0.2,0.5-0.5s-0.2-0.5-0.5-0.5h-1   c-0.3,0-0.5,0.2-0.5,0.4c0-0.2-0.2-0.4-0.5-0.4h-1c-0.3,0-0.5,0.2-0.5,0.5S26,51.8,26.2,51.8z"></path><path d="M41.6,68.3h1c0.2,0,0.5-0.2,0.5-0.4c0,0.2,0.2,0.4,0.5,0.4h1c0.3,0,0.5-0.2,0.5-0.5s-0.2-0.5-0.5-0.5h-1   c-0.2,0-0.5,0.2-0.5,0.4c0-0.2-0.2-0.4-0.5-0.4h-1c-0.3,0-0.5,0.2-0.5,0.5S41.4,68.3,41.6,68.3z"></path><path d="M41.1,51.8h1c0.3,0,0.5-0.2,0.5-0.4c0,0.2,0.2,0.4,0.5,0.4h1c0.3,0,0.5-0.2,0.5-0.5s-0.2-0.5-0.5-0.5h-1   c-0.3,0-0.5,0.2-0.5,0.4c0-0.2-0.2-0.4-0.5-0.4h-1c-0.3,0-0.5,0.2-0.5,0.5S40.8,51.8,41.1,51.8z"></path><path d="M46.2,35.9c0.3,0,0.5-0.2,0.5-0.5s-0.2-0.5-0.5-0.5h-1c-0.2,0-0.5,0.2-0.5,0.4c0-0.2-0.2-0.4-0.5-0.4h-1   c-0.3,0-0.5,0.2-0.5,0.5s0.2,0.5,0.5,0.5h1c0.2,0,0.5-0.2,0.5-0.4c0,0.2,0.2,0.4,0.5,0.4H46.2z"></path><path d="M36.1,51.8h1c0.3,0,0.5-0.2,0.5-0.4c0,0.2,0.2,0.4,0.5,0.4h1c0.3,0,0.5-0.2,0.5-0.5s-0.2-0.5-0.5-0.5h-1   c-0.3,0-0.5,0.2-0.5,0.4c0-0.2-0.2-0.4-0.5-0.4h-1c-0.3,0-0.5,0.2-0.5,0.5S35.9,51.8,36.1,51.8z"></path><path d="M41.3,35.9c0.3,0,0.5-0.2,0.5-0.5s-0.2-0.5-0.5-0.5h-1c-0.2,0-0.5,0.2-0.5,0.4c0-0.2-0.2-0.4-0.5-0.4h-1   c-0.3,0-0.5,0.2-0.5,0.5s0.2,0.5,0.5,0.5h1c0.2,0,0.5-0.2,0.5-0.4c0,0.2,0.2,0.4,0.5,0.4H41.3z"></path><path d="M36.7,68.3h1c0.2,0,0.5-0.2,0.5-0.4c0,0.2,0.2,0.4,0.5,0.4h1c0.3,0,0.5-0.2,0.5-0.5s-0.2-0.5-0.5-0.5h-1   c-0.2,0-0.5,0.2-0.5,0.4c0-0.2-0.2-0.4-0.5-0.4h-1c-0.3,0-0.5,0.2-0.5,0.5S36.4,68.3,36.7,68.3z"></path><path d="M17.2,46.2c-0.1-0.3-0.1-0.6-0.2-0.9c0-0.2-0.2-0.4-0.5-0.4c0.2-0.1,0.4-0.3,0.4-0.5c0-0.2,0-0.4,0-0.6l0-0.3   c0-0.3-0.2-0.5-0.5-0.5c0,0,0,0,0,0c-0.3,0-0.5,0.2-0.5,0.5l0,0.3c0,0.2,0,0.5,0,0.7c0,0.3,0.2,0.5,0.5,0.5   C16.2,45,16,45.2,16,45.5c0.1,0.4,0.1,0.7,0.2,1c0.1,0.2,0.3,0.4,0.5,0.4c0,0,0.1,0,0.1,0C17.1,46.8,17.3,46.5,17.2,46.2z"></path><path d="M61.6,35.4c0-0.3-0.2-0.5-0.5-0.5h-1c-0.3,0-0.5,0.2-0.5,0.4c0-0.2-0.2-0.4-0.5-0.4h-1c-0.3,0-0.5,0.2-0.5,0.5   s0.2,0.5,0.5,0.5h1c0.3,0,0.5-0.2,0.5-0.4c0,0.2,0.2,0.4,0.5,0.4h1C61.3,35.9,61.6,35.7,61.6,35.4z"></path><path d="M62.9,67.7c0-0.2-0.2-0.4-0.5-0.4h-1c-0.3,0-0.5,0.2-0.5,0.5s0.2,0.5,0.5,0.5h1c0.3,0,0.5-0.2,0.5-0.5   c0,0.3,0.3,0.4,0.5,0.4c0.3,0,0.6-0.1,1-0.1c0.3,0,0.5-0.3,0.4-0.6c0-0.3-0.3-0.5-0.6-0.4c-0.4,0-0.7,0.1-1,0.1   C63.1,67.3,62.9,67.5,62.9,67.7z"></path><path d="M73,58.9c0-0.3-0.1-0.7-0.2-1c-0.1-0.3-0.3-0.4-0.6-0.4c-0.3,0.1-0.4,0.3-0.4,0.6c0.1,0.3,0.1,0.6,0.2,0.9   c0,0.2,0.2,0.4,0.5,0.4c-0.2,0.1-0.4,0.3-0.4,0.5c0,0.2,0,0.4,0,0.6c0,0.1,0,0.2,0,0.4c0,0.3,0.2,0.5,0.5,0.5c0,0,0,0,0,0   c0.3,0,0.5-0.2,0.5-0.5c0-0.1,0-0.2,0-0.4c0-0.2,0-0.4,0-0.6c0-0.3-0.2-0.5-0.5-0.5C72.9,59.4,73.1,59.1,73,58.9z"></path><path d="M63.8,50.8c-0.2,0-0.4,0-0.6,0h-0.4c-0.3,0-0.5,0.2-0.5,0.4c0-0.2-0.2-0.4-0.5-0.4h-1c-0.3,0-0.5,0.2-0.5,0.5   s0.2,0.5,0.5,0.5h1c0.3,0,0.5-0.2,0.5-0.4c0,0.2,0.2,0.4,0.5,0.4h0.4c0.2,0,0.4,0,0.5,0c0,0,0,0,0,0c0.3,0,0.5-0.2,0.5-0.5   C64.3,51,64.1,50.8,63.8,50.8z"></path><path d="M18.4,50.1c0.3,0.2,0.6,0.4,0.9,0.6c0.1,0.1,0.2,0.1,0.3,0.1c0.2,0,0.3-0.1,0.4-0.2c0.1-0.2,0.1-0.5-0.2-0.7   c-0.3-0.2-0.5-0.3-0.7-0.5c-0.2-0.2-0.4-0.2-0.6,0c0.1-0.2,0.1-0.4,0-0.6c-0.2-0.2-0.4-0.5-0.5-0.7c-0.1-0.2-0.4-0.3-0.7-0.2   c-0.2,0.1-0.3,0.4-0.2,0.7c0.2,0.3,0.4,0.6,0.6,0.9c0.2,0.2,0.5,0.2,0.7,0.1C18.2,49.6,18.2,49.9,18.4,50.1z"></path><path d="M25,35.6c0.1,0.2,0.3,0.4,0.5,0.4c0.3,0,0.6,0,1,0c0.3,0,0.5-0.2,0.5-0.5c0-0.3-0.2-0.5-0.5-0.5c-0.3,0-0.7,0-1,0   c-0.3,0-0.5,0.2-0.5,0.4c-0.1-0.2-0.3-0.4-0.5-0.4c-0.3,0-0.7,0.1-1,0.1c-0.3,0-0.5,0.3-0.4,0.6c0,0.3,0.2,0.4,0.5,0.4   c0,0,0,0,0.1,0c0.3,0,0.6-0.1,1-0.1C24.8,36,25,35.8,25,35.6z"></path><path d="M68,66.2c-0.2,0.1-0.4,0.3-0.3,0.6c-0.1-0.2-0.4-0.3-0.6-0.2c-0.3,0.1-0.6,0.2-0.9,0.2c-0.3,0.1-0.4,0.3-0.4,0.6   c0.1,0.2,0.3,0.4,0.5,0.4c0,0,0.1,0,0.1,0c0.3-0.1,0.7-0.2,1-0.3c0.2-0.1,0.4-0.3,0.3-0.6c0.1,0.2,0.4,0.3,0.6,0.2   c0.3-0.1,0.6-0.3,0.9-0.4c0.2-0.1,0.4-0.4,0.2-0.7c-0.1-0.2-0.4-0.4-0.7-0.2C68.6,66,68.3,66.1,68,66.2z"></path><path d="M71.2,54.1c-0.2-0.3-0.5-0.5-0.7-0.8c-0.2-0.2-0.5-0.2-0.7,0c-0.2,0.2-0.2,0.5,0,0.7c0.2,0.2,0.4,0.4,0.6,0.7   c0.1,0.2,0.4,0.2,0.6,0.2c-0.2,0.2-0.2,0.4-0.1,0.6c0.2,0.3,0.3,0.5,0.4,0.8c0.1,0.2,0.3,0.3,0.5,0.3c0.1,0,0.1,0,0.2,0   c0.3-0.1,0.4-0.4,0.3-0.7c-0.1-0.3-0.3-0.6-0.5-0.9c-0.1-0.2-0.4-0.3-0.6-0.2C71.3,54.6,71.3,54.3,71.2,54.1z"></path><path d="M68.8,52c-0.3-0.2-0.6-0.3-0.9-0.5c-0.2-0.1-0.5,0-0.6,0.2c0-0.2-0.1-0.5-0.4-0.6c-0.3-0.1-0.7-0.2-1-0.2   c-0.3,0-0.5,0.1-0.6,0.4s0.1,0.5,0.4,0.6c0.3,0.1,0.6,0.1,0.9,0.2c0.2,0.1,0.5,0,0.6-0.2c0,0.2,0.1,0.5,0.3,0.5   c0.3,0.1,0.6,0.3,0.8,0.4c0.1,0,0.2,0.1,0.2,0.1c0.2,0,0.3-0.1,0.4-0.3C69.1,52.5,69,52.2,68.8,52z"></path><path d="M31.2,51.8h1c0.3,0,0.5-0.2,0.5-0.4c0,0.2,0.2,0.4,0.5,0.4h1c0.3,0,0.5-0.2,0.5-0.5s-0.2-0.5-0.5-0.5h-1   c-0.3,0-0.5,0.2-0.5,0.4c0-0.2-0.2-0.4-0.5-0.4h-1c-0.3,0-0.5,0.2-0.5,0.5S30.9,51.8,31.2,51.8z"></path><path d="M56.4,68.3h1c0.2,0,0.5-0.2,0.5-0.4c0,0.2,0.2,0.4,0.5,0.4h1c0.3,0,0.5-0.2,0.5-0.5s-0.2-0.5-0.5-0.5h-1   c-0.2,0-0.5,0.2-0.5,0.4c0-0.2-0.2-0.4-0.5-0.4h-1c-0.3,0-0.5,0.2-0.5,0.5S56.2,68.3,56.4,68.3z"></path><path d="M55.9,51.8h1c0.3,0,0.5-0.2,0.5-0.4c0,0.2,0.2,0.4,0.5,0.4h1c0.3,0,0.5-0.2,0.5-0.5s-0.2-0.5-0.5-0.5h-1   c-0.3,0-0.5,0.2-0.5,0.4c0-0.2-0.2-0.4-0.5-0.4h-1c-0.3,0-0.5,0.2-0.5,0.5S55.6,51.8,55.9,51.8z"></path><path d="M56.1,35.9c0.3,0,0.5-0.2,0.5-0.5s-0.2-0.5-0.5-0.5h-1c-0.2,0-0.5,0.2-0.5,0.4c0-0.2-0.2-0.4-0.5-0.4h-1   c-0.3,0-0.5,0.2-0.5,0.5s0.2,0.5,0.5,0.5h1c0.2,0,0.5-0.2,0.5-0.4c0,0.2,0.2,0.4,0.5,0.4H56.1z"></path><path d="M21.4,50.6c-0.3-0.1-0.5,0.1-0.6,0.4c-0.1,0.3,0.1,0.5,0.4,0.6c0.6,0.2,1,0.2,1.1,0.2h0c0.3,0,0.5-0.2,0.5-0.5   c0-0.3-0.2-0.5-0.5-0.5C22.3,50.8,21.9,50.7,21.4,50.6z"></path><path d="M46,51.8h1c0.3,0,0.5-0.2,0.5-0.4c0,0.2,0.2,0.4,0.5,0.4h1c0.3,0,0.5-0.2,0.5-0.5s-0.2-0.5-0.5-0.5h-1   c-0.3,0-0.5,0.2-0.5,0.4c0-0.2-0.2-0.4-0.5-0.4h-1c-0.3,0-0.5,0.2-0.5,0.5S45.7,51.8,46,51.8z"></path><path d="M18.9,37.8c0.1,0,0.2,0,0.3-0.1c0.2-0.2,0.5-0.3,0.8-0.5c0.2-0.1,0.3-0.3,0.2-0.6c0.1,0.2,0.4,0.3,0.6,0.2   c0.3-0.1,0.6-0.2,0.9-0.3c0.3-0.1,0.4-0.3,0.3-0.6c-0.1-0.3-0.4-0.4-0.6-0.3c-0.3,0.1-0.7,0.2-1,0.3c-0.2,0.1-0.4,0.4-0.3,0.6   c-0.1-0.2-0.4-0.3-0.7-0.1c-0.3,0.2-0.6,0.4-0.9,0.6c-0.2,0.2-0.3,0.5-0.1,0.7C18.6,37.7,18.8,37.8,18.9,37.8z"></path><path d="M51,51.8h1c0.3,0,0.5-0.2,0.5-0.4c0,0.2,0.2,0.4,0.5,0.4h1c0.3,0,0.5-0.2,0.5-0.5s-0.2-0.5-0.5-0.5h-1   c-0.3,0-0.5,0.2-0.5,0.4c0-0.2-0.2-0.4-0.5-0.4h-1c-0.3,0-0.5,0.2-0.5,0.5S50.7,51.8,51,51.8z"></path><path d="M51.2,35.9c0.3,0,0.5-0.2,0.5-0.5s-0.2-0.5-0.5-0.5h-1c-0.2,0-0.5,0.2-0.5,0.4c0-0.2-0.2-0.4-0.5-0.4h-1   c-0.3,0-0.5,0.2-0.5,0.5s0.2,0.5,0.5,0.5h1c0.2,0,0.5-0.2,0.5-0.4c0,0.2,0.2,0.4,0.5,0.4H51.2z"></path><path d="M46.6,68.3h1c0.2,0,0.5-0.2,0.5-0.4c0,0.2,0.2,0.4,0.5,0.4h1c0.3,0,0.5-0.2,0.5-0.5s-0.2-0.5-0.5-0.5h-1   c-0.2,0-0.5,0.2-0.5,0.4c0-0.2-0.2-0.4-0.5-0.4h-1c-0.3,0-0.5,0.2-0.5,0.5S46.3,68.3,46.6,68.3z"></path><path d="M51.5,68.3h1c0.2,0,0.5-0.2,0.5-0.4c0,0.2,0.2,0.4,0.5,0.4h1c0.3,0,0.5-0.2,0.5-0.5s-0.2-0.5-0.5-0.5h-1   c-0.2,0-0.5,0.2-0.5,0.4c0-0.2-0.2-0.4-0.5-0.4h-1c-0.3,0-0.5,0.2-0.5,0.5S51.2,68.3,51.5,68.3z"></path></g></svg>