<svg fill="#D4D4D4" xmlns="http://www.w3.org/2000/svg" xmlns:xlink="http://www.w3.org/1999/xlink" version="1.1" x="0px" y="0px" viewBox="0 0 100 100" enable-background="new 0 0 100 100" xml:space="preserve"><g><path d="M50,91.57c5.51-4.45,33.89-28.43,33.89-49.68C83.89,23.21,68.68,8.01,50,8.01s-33.89,15.2-33.89,33.88   C16.11,63.06,44.5,87.11,50,91.57z M50,5c20.34,0,36.89,16.55,36.89,36.89c0,25.09-35.66,52.57-36.02,52.83   C50.61,94.91,50.31,95,50,95c-0.32,0-0.65-0.1-0.92-0.31c-1.47-1.13-35.97-28.01-35.97-52.8C13.11,21.55,29.66,5,50,5z"></path></g></svg>