<svg fill="#FF584C" xmlns:dc="http://purl.org/dc/elements/1.1/" xmlns:cc="http://creativecommons.org/ns#" xmlns:rdf="http://www.w3.org/1999/02/22-rdf-syntax-ns#" xmlns:svg="http://www.w3.org/2000/svg" xmlns="http://www.w3.org/2000/svg" xmlns:sodipodi="http://sodipodi.sourceforge.net/DTD/sodipodi-0.dtd" xmlns:inkscape="http://www.inkscape.org/namespaces/inkscape" version="1.1" x="0px" y="0px" viewBox="0 0 100 100"><g transform="translate(0,-952.36218)"><path d="m 12.440726,999.44096 c 1.033,0.0122 2.1036,0.262 3.1875,0.78134 l 18.75,9 c 0.8899,-2.0511 3.0287,-3.4751 5.4375,-3.4063 l 10.75,0.3438 c 2.6421,0 4.6421,-0.6477 7.1563,-1.375 2.5207,-0.7293 5.5098,-1.5 9.6562,-1.5 3.4244,0 8.0353,1.0171 11.7812,2.2812 l 0,-2.3437 c 0,-0.2618 0.0561,-0.5082 0.1563,-0.75 0.1002,-0.2418 0.2524,-0.4712 0.4375,-0.6563 0.185,-0.185 0.3832,-0.3373 0.625,-0.4375 0.2418,-0.1002 0.5195,-0.1562 0.7812,-0.1562 l 10.8438,0 c 0.2617,0 0.5082,0.056 0.75,0.1562 0.2418,0.1002 0.4711,0.2525 0.6562,0.4375 0.1851,0.1851 0.3374,0.4145 0.4376,0.6563 0.1002,0.2418 0.1562,0.4882 0.1562,0.75 l 0,8.1875 0,21.5625 c 0,0.2617 -0.0561,0.5394 -0.1562,0.7812 -0.1003,0.2419 -0.2525,0.4712 -0.4376,0.6563 -0.1851,0.1851 -0.4144,0.3061 -0.6562,0.4062 -0.2418,0.1002 -0.4883,0.1562 -0.75,0.1563 l -10.8438,0 c -0.2617,0 -0.5394,-0.056 -0.7812,-0.1563 -0.2418,-0.1002 -0.44,-0.2211 -0.625,-0.4062 -0.1851,-0.1851 -0.3373,-0.4145 -0.4375,-0.6563 -0.1002,-0.2418 -0.1563,-0.5195 -0.1563,-0.7812 l 0,-2.5625 c -13.1597,-2.3299 -21.0124,1.6562 -32.875,1.6562 -2.4526,0 -5.0316,-1.2042 -8.25,-2.875 -3.2182,-1.6707 -6.900901,-3.9071 -10.625001,-6.3125 -7.4478,-4.8107 -15.064599,-10.2833 -19.0311994,-12.9687 -1.3615,-0.9227 -2.1762,-2.3765 -2.3438,-3.8125 -0.1675,-1.436 0.2323,-2.8365 1.0313,-4 1.0986,-1.5999 3.1025004,-2.68304 5.3750004,-2.65634 z m 77.5625,5.78134 -1.8438,0 0,25.75 1.8438,0 0,-19.5625 0,-6.1875 z" style="text-indent:0;text-transform:none;direction:ltr;block-progression:tb;baseline-shift:baseline;color:#000000;enable-background:accumulate;" fill="#FF584C" fill-opacity="1" fill-rule="evenodd" stroke="none" marker="none" visibility="visible" display="inline" overflow="visible"></path><path d="m 50.065726,969.75346 c 0.2424,0.009 0.4641,0.0618 0.6875,0.1563 0.2235,0.0945 0.4498,0.2072 0.625,0.375 l 7.5938,7.3125 7.625,7.2812 c 0.1934,0.18 0.3596,0.3843 0.4687,0.625 0.109,0.2407 0.1487,0.5171 0.1563,0.7813 0.0077,0.2641 -0.0303,0.5346 -0.125,0.7812 -0.0952,0.2467 -0.2235,0.4654 -0.4063,0.6563 -0.1827,0.1908 -0.414,0.332 -0.6563,0.4375 -0.2421,0.1055 -0.5169,0.1837 -0.7812,0.1875 -0.2642,0.004 -0.5361,-0.0577 -0.7812,-0.1563 -0.2454,-0.0985 -0.4682,-0.2519 -0.6563,-0.4375 l 0,13.28134 c 0,0.2618 -0.056,0.5081 -0.1563,0.75 -0.1001,0.2418 -0.2524,0.4711 -0.4374,0.6562 -0.1852,0.1851 -0.3833,0.3374 -0.625,0.4375 -0.2419,0.1002 -0.5195,0.1563 -0.7813,0.1563 l -23.6563,0 c -0.2617,0 -0.5394,-0.056 -0.7812,-0.1563 -0.2418,-0.1002 -0.4399,-0.2524 -0.625,-0.4375 -0.1851,-0.185 -0.3373,-0.4144 -0.4375,-0.6562 -0.1002,-0.2418 -0.1563,-0.4883 -0.1563,-0.75 l 0,-13.28134 c -0.188,0.1856 -0.411,0.339 -0.6562,0.4375 -0.2452,0.0986 -0.5172,0.16 -0.7812,0.1563 -0.2644,-0.004 -0.539001,-0.082 -0.781301,-0.1875 -0.2423,-0.1055 -0.4423,-0.2467 -0.625,-0.4375 -0.1828,-0.1909 -0.3425,-0.4096 -0.4375,-0.6563 -0.0949,-0.2466 -0.1327,-0.5171 -0.125,-0.7812 0.0076,-0.2642 0.0785,-0.5406 0.1875,-0.7813 0.1091,-0.2407 0.244,-0.445 0.4375,-0.625 l 4.343801,-4.1562 c -0.011,-0.086 0,-0.1633 0,-0.25 l 0,-8.5938 c -0.0035,-0.2638 0.0261,-0.5365 0.125,-0.7812 0.0987,-0.2447 0.2519,-0.4685 0.4374,-0.6563 0.1855,-0.1877 0.4129,-0.3357 0.6563,-0.4375 0.2435,-0.1017 0.5174,-0.1562 0.7813,-0.1562 0.2637,0 0.5064,0.0545 0.75,0.1562 0.2433,0.1018 0.4708,0.2498 0.6562,0.4375 0.1855,0.1878 0.3388,0.4116 0.4375,0.6563 0.0987,0.2447 0.1595,0.5174 0.1563,0.7812 l 0,5.0313 6.875,-6.625 c 0.1925,-0.1845 0.4384,-0.3114 0.6874,-0.4063 0.2493,-0.0949 0.5148,-0.1346 0.7813,-0.125 z m -0.0625,4.75 -6.25,5.9688 -1.9688,1.9062 16.4063,0 -1.9687,-1.9062 -6.2188,-5.9688 z m 0.9062,18.5 -1.8437,0 0,6.0313 1.8437,0 0,-6.0313 z" style="text-indent:0;text-transform:none;direction:ltr;block-progression:tb;baseline-shift:baseline;color:#000000;enable-background:accumulate;" fill="#FF584C" fill-opacity="1" fill-rule="evenodd" stroke="none" marker="none" visibility="visible" display="inline" overflow="visible"></path></g></svg>