<svg fill="#FF584C" xmlns="http://www.w3.org/2000/svg" xmlns:xlink="http://www.w3.org/1999/xlink" version="1.1" x="0px" y="0px" viewBox="0 0 512 512" enable-background="new 0 0 512 512" xml:space="preserve"><g><path d="M61.3,101.9v64H44.9v16.4H176v-16.4h-16.4v-64l10.6,8.7l10.4-12.7l-70.2-57.3L40.3,97.9l10.4,12.7L61.3,101.9z M143.2,88.5   v77.4H77.7V88.5l32.8-26.8L143.2,88.5z"></path><rect x="102.3" y="100.3" width="16.4" height="16.4"></rect><rect x="44.9" y="223.2" width="254.2" height="16.4"></rect><rect x="44.9" y="329.7" width="196.6" height="16.4"></rect><rect x="44.9" y="452.6" width="16.4" height="16.4"></rect><rect x="77.7" y="452.6" width="16.4" height="16.4"></rect><rect x="110.5" y="452.6" width="16.4" height="16.4"></rect><path d="M496.1,165.5c-16-16-42-16-57.9,0l-11.6,11.6l-23.2-23.2l-38.9,38.9v-79.5L253.1,2H3.9v508h360.5V355.1l131.6-131.6   C512,207.5,512,181.5,496.1,165.5z M257.9,30l78.5,78.5h-78.5V30z M348.1,493.6H20.3V18.4h221.2v106.5h106.5v84.3l-25.8,25.8   l11.6,11.6l69.5-69.5l11.6,11.6L204.6,399l-14.5,72.4l72.4-14.5l85.5-85.5V493.6z M217.2,419.7l24.7,24.7l-30.9,6.2L217.2,419.7z    M258.5,437.8l-34.8-34.8l29-29l34.8,34.8L258.5,437.8z M299.1,397.3l-34.8-34.8l162.2-162.2l34.8,34.8L299.1,397.3z M484.5,211.9   l-11.6,11.6l-34.8-34.8l11.6-11.6c9.6-9.6,25.2-9.6,34.8,0C494.1,186.7,494.1,202.3,484.5,211.9z"></path></g></svg>