<svg fill="#FF584C" xmlns="http://www.w3.org/2000/svg" xmlns:xlink="http://www.w3.org/1999/xlink" version="1.1" x="0px" y="0px" viewBox="0 0 100 100" enable-background="new 0 0 100 100" xml:space="preserve"><g><path d="M32.869,95.008H12.262V81.157H8.209l14.354-14.633l3.779,3.847v-1.269h5.019v6.382l5.559,5.673h-4.051V95.008z    M13.762,93.508h17.606V79.657h1.98l-3.488-3.561v-5.495h-2.019v3.436l-5.279-5.372l-10.78,10.992h1.98   C13.762,79.657,13.762,93.508,13.762,93.508z"></path><path d="M60.304,95.008H39.697V81.157h-4.053l14.354-14.633l3.778,3.847v-1.269h5.019v6.382l5.56,5.673h-4.051   C60.304,81.157,60.304,95.008,60.304,95.008z M41.197,93.508h17.607V79.657h1.98l-3.489-3.561v-5.495h-2.019v3.436l-5.278-5.372   L39.216,79.657h1.98L41.197,93.508L41.197,93.508z"></path><path d="M87.738,95.008H67.132V81.157H63.08l14.354-14.633l3.777,3.846v-1.268h5.021v6.382l5.56,5.673h-4.053v13.851L87.738,95.008   L87.738,95.008z M68.632,93.508h17.605V79.657h1.982l-3.489-3.561v-5.495h-2.02v3.436l-5.277-5.373L66.652,79.657h1.98V93.508z"></path><path d="M32.869,64.243H12.262V50.392H8.209l14.354-14.634l3.779,3.847v-1.269h5.019v6.382l5.558,5.674h-4.05V64.243z    M13.762,62.743h17.606V48.892h1.981L29.86,45.33v-5.494h-2.019v3.436l-5.279-5.373l-10.78,10.993h1.98   C13.762,48.892,13.762,62.743,13.762,62.743z"></path><polygon points="40.447,63.493 40.447,49.642 37.43,49.642 49.998,36.829 54.527,41.439 54.527,39.086 58.046,39.086    58.046,45.025 62.57,49.642 59.554,49.642 59.554,63.493  "></polygon><path d="M87.738,64.243H67.132V50.392H63.08l14.354-14.634l3.777,3.847v-1.268h5.021v6.382l5.56,5.674h-4.053v13.85H87.738z    M68.632,62.743h17.605V48.892h1.982L84.73,45.33v-5.494h-2.02v3.436l-5.277-5.373L66.652,48.892h1.98V62.743z"></path><path d="M32.869,33.476H12.262V19.625H8.209L22.563,4.992l3.779,3.847V7.57h5.019v6.382l5.559,5.673h-4.051V33.476z M13.762,31.976   h17.606V18.125h1.98l-3.488-3.561V9.07h-2.019v3.436l-5.279-5.373l-10.78,10.992h1.98C13.762,18.125,13.762,31.976,13.762,31.976z"></path><path d="M60.304,33.476H39.697V19.625h-4.053L49.999,4.992l3.778,3.847V7.57h5.019v6.382l5.56,5.673h-4.051v13.851   C60.305,33.476,60.304,33.476,60.304,33.476z M41.197,31.976h17.607V18.125h1.98l-3.489-3.561V9.07h-2.019v3.436l-5.278-5.373   L39.216,18.125h1.98L41.197,31.976L41.197,31.976z"></path><path d="M87.738,33.476H67.132V19.625H63.08L77.433,4.992l3.777,3.847V7.57h5.021v6.382l5.56,5.673h-4.053V33.476z M68.632,31.976   h17.605V18.125h1.982l-3.489-3.561V9.07h-2.02v3.436l-5.277-5.373L66.652,18.125h1.98V31.976z"></path></g></svg>