<svg fill="#545760" xmlns="http://www.w3.org/2000/svg" xmlns:xlink="http://www.w3.org/1999/xlink" xml:space="preserve" style="shape-rendering:geometricPrecision;text-rendering:geometricPrecision;image-rendering:optimizeQuality;" viewBox="0 0 100 100" x="0px" y="0px" fill-rule="evenodd" clip-rule="evenodd"><defs><style type="text/css">
   
    .fil0 {fill:#545760;fill-rule:nonzero}
   
  </style></defs><g><path class="fil0" d="M26.8852 21.7938c0.0254,0 0.077,-0.0102 0.1053,-0.0137 0.6636,-0.0821 1.3307,-0.1085 1.9982,-0.1349l-0.0429 -1.08c-0.7087,0.0283 -1.4141,0.0571 -2.1184,0.146 -0.0229,0.003 -0.0686,0.0118 -0.0889,0.0118l0.1467 1.0708zm48.3635 19.5811c2.091,0 3.7862,1.6952 3.7862,3.7862 0,2.0909 -1.6952,3.7862 -3.7862,3.7862 -2.091,0 -3.7862,-1.6953 -3.7862,-3.7862 0,-2.091 1.6952,-3.7862 3.7862,-3.7862zm0 2.1617c-2.1388,0 -2.1388,3.2489 0,3.2489 2.1388,0 2.1388,-3.2489 0,-3.2489zm-20.9097 13.8183l0 0.0003 -0.0001 0.055c-0.0036,0.6838 -0.0051,1.3683 -0.0051,2.0521l-0.0001 0.0553 1.0809 0.002 0.0001 -0.0559c0,-0.6829 0.0014,-1.3663 0.005,-2.0492l0.0002 -0.055 0 -0.0003 -1.0809 -0.0043zm16.6513 -12.8086l-2.1617 0 0 1.0808 2.1617 0 0 -1.0808zm-5.4043 0l-2.0741 0 -0.0323 0 -0.0323 0 -0.0231 0 0 1.0808 0.0231 0 0.0323 0 0.0323 0 2.0741 0 0 -1.0808zm-5.4078 0.0034c-0.1645,0 -2.1599,0.0134 -2.168,0.0215l0.0196 1.0806c0.008,-0.0079 1.9927,-0.0212 2.1553,-0.0212l-0.0069 -1.0809zm-5.1891 1.8813l-0.0014 0.0049 -0.0069 0.0226 -0.0069 0.0232c-0.2027,0.7041 -0.2972,1.4334 -0.3688,2.1611l-0.0023 0.0219 1.0759 0.1037 0.002 -0.0193c0.0637,-0.6373 0.1433,-1.3264 0.3242,-1.9421l0.006 -0.0206 0.0049 -0.0166 0.0052 -0.0171 0.0014 -0.0049 -1.0333 -0.3168zm-0.5741 5.5048l-0.0005 0.0185 -0.0015 0.0472 -0.0015 0.0482 -0.0014 0.0481c-0.0176,0.6462 -0.0319,1.2913 -0.0428,1.9377l-0.0008 0.0514 -0.0004 0.0192 1.0809 0.0167 0.0004 -0.0192 0.0007 -0.0514c0.0111,-0.6568 0.0234,-1.3131 0.0437,-1.9697l0.0014 -0.0464 0.0016 -0.047 0.0005 -0.0184 -1.0803 -0.0349zm-7.0382 23.2194c2.091,0 3.7862,1.6953 3.7862,3.7862 0,2.091 -1.6952,3.7863 -3.7862,3.7863 -2.091,0 -3.7862,-1.6953 -3.7862,-3.7863 0,-2.0909 1.6952,-3.7862 3.7862,-3.7862zm0 2.1618c-2.1389,0 -2.1389,3.2489 0,3.2489 2.1388,0 2.1388,-3.2489 0,-3.2489zm-14.2845 -60.0447c2.091,0 3.7862,1.6952 3.7862,3.7862 0,2.091 -1.6952,3.7862 -3.7862,3.7862 -2.091,0 -3.7862,-1.6952 -3.7862,-3.7862 0,-2.091 1.6952,-3.7862 3.7862,-3.7862zm0 2.1617c-2.1389,0 -2.1389,3.249 0,3.249 2.1388,0 2.1388,-3.249 0,-3.249zm14.9207 55.5159c0.1233,-0.6163 0.3642,-1.0897 0.8737,-1.4717l0.0013 -0.0009 -0.6301 -0.8783 -0.0071 0.0052c-0.7269,0.5282 -1.1235,1.2631 -1.2973,2.1321l1.0595 0.2136zm3.6965 -2.3388c0.7047,-0.0943 1.4042,-0.1465 2.1132,-0.1934l-0.0655 -1.0788c-0.7345,0.0476 -1.4613,0.1032 -2.1913,0.2009l0.1436 1.0713zm5.3334 -0.3141l0.0293 -0.0007 0.051 -0.0012 0.0516 -0.0011c0.6311,-0.014 1.2627,-0.0274 1.8938,-0.0356l0.0562 -0.0009 0.0562 -0.0009 0.0186 -0.0003 -0.0164 -1.0808 -0.0186 0.0003 -0.0565 0.0008 -0.0562 0.0009c-0.6164,0.0109 -1.2328,0.0212 -1.8491,0.0347l-0.0519 0.0012 -0.0519 0.0011 -0.0525 0.0012 -0.0292 0.0007 0.0256 1.0806zm5.3954 -0.0793l0.0132 0 0.0603 -0.0006c0.6584,-0.0063 1.3168,-0.0113 1.9752,-0.0161l0.0596 -0.0004 0.0528 -0.0005 -0.0078 -1.0808 -0.0528 0.0004 -0.0596 0.0004c-0.6592,0.0048 -1.3185,0.0098 -1.9777,0.0162l-0.0593 0.0005 -0.0131 0 0.0092 1.0809zm5.4031 -0.0399l0.0245 0 0.0568 -0.0004c0.6623,-0.0052 1.3247,-0.01 1.9871,-0.0156l0.051 -0.0004 0.0435 -0.0005 -0.0092 -1.0808 -0.0435 0.0004 -0.0511 0.0004c-0.662,0.0055 -1.3241,0.0104 -1.9862,0.0156l-0.0553 0.0004 -0.0245 0 0.0069 1.0809zm5.4172 -0.0669c0.7259,-0.0191 1.4976,-0.0547 2.2158,-0.1617l-0.1551 -1.0696c-0.6784,0.1004 -1.4087,0.133 -2.0942,0.151l0.0335 1.0803zm5.2174 -2.1571c0.2929,-0.7223 0.4041,-1.5174 0.4443,-2.2916l-1.0794 -0.0533c-0.0398,0.6554 -0.1164,1.3221 -0.365,1.9353l1.0001 0.4096zm0.2269 -5.6387l-0.0026 -0.0153 -0.0041 -0.023 -0.0039 -0.0228 -0.0041 -0.0246 -0.0041 -0.023 -0.004 -0.0229 -0.0043 -0.0243 -0.0044 -0.0242 -0.0043 -0.0231 -0.004 -0.0225 -0.0042 -0.0223 -0.0042 -0.0229 -0.0044 -0.0235c-0.1266,-0.6706 -0.3079,-1.3817 -0.6932,-1.9545l-0.9008 0.5975c0.3015,0.4623 0.4298,1.0215 0.5318,1.5573l0.0039 0.0206 0.0039 0.0215 0.0042 0.0223 0.004 0.0219 0.0041 0.0219 0.0037 0.0208 0.0037 0.0206 0.0038 0.0223 0.004 0.0224 0.0036 0.0209 0.0039 0.0227 0.0038 0.0225 0.0026 0.0153 1.0656 -0.1816zm-3.8275 -4.0337l-0.0297 -0.0069 -0.036 -0.0082 -0.036 -0.0082 -0.0362 -0.0081 -0.0357 -0.0078 -0.0368 -0.008 -0.0367 -0.0078 -0.0375 -0.0079 -0.0373 -0.0077 -0.0365 -0.0075 -0.037 -0.0075 -0.0384 -0.0077 -0.0383 -0.0075 -0.0385 -0.0075 -0.0389 -0.0075 -0.0382 -0.0072 -0.0393 -0.0074 -0.0394 -0.0072 -0.0389 -0.0069 -0.0402 -0.0072 -0.0402 -0.0071 -0.0393 -0.0069 -0.0408 -0.0071 -0.0411 -0.0069 -0.0414 -0.0067 -0.0405 -0.0067 -0.0418 -0.0069 -0.042 -0.0065 -0.0417 -0.0066 -0.0422 -0.0065 -0.0428 -0.0066 -0.0421 -0.0062 -0.0431 -0.0066 -0.0437 -0.0062 -0.0429 -0.0064 -0.044 -0.0062 -0.0442 -0.0062 -0.0444 -0.0062 -0.0439 -0.0059 -0.045 -0.006 -0.0453 -0.0059 -0.0446 -0.006 -0.0449 -0.0057 -0.0459 -0.0059 -0.0463 -0.0058 -0.0465 -0.0058 -0.0466 -0.0056 -0.0462 -0.0056 -0.0473 -0.0056 -0.0466 -0.0054 -0.0469 -0.0054 -0.0488 -0.0056 -0.0472 -0.0054 -0.1182 1.0745 0.045 0.0051 0.0449 0.005 0.0461 0.0055 0.046 0.0053 0.045 0.0054 0.0454 0.0053 0.0442 0.0053 0.0443 0.0055 0.0436 0.0055 0.0434 0.0056 0.0443 0.0058 0.0438 0.0056 0.0426 0.0056 0.0424 0.0058 0.0431 0.0059 0.0418 0.0056 0.0416 0.0059 0.0414 0.0059 0.0421 0.0061 0.0405 0.0059 0.0405 0.006 0.0412 0.0062 0.0399 0.0061 0.0399 0.0062 0.0399 0.0063 0.0392 0.0062 0.0387 0.0064 0.0396 0.0063 0.0382 0.0065 0.0379 0.0063 0.0376 0.0065 0.0385 0.0067 0.0373 0.0064 0.0368 0.0067 0.0374 0.0069 0.0365 0.0066 0.0362 0.0068 0.0367 0.0069 0.0355 0.0066 0.0353 0.007 0.0351 0.0069 0.0346 0.0069 0.0353 0.0072 0.0353 0.0072 0.0342 0.0071 0.0334 0.007 0.0336 0.0072 0.0333 0.0072 0.0337 0.0075 0.0327 0.0072 0.0326 0.0074 0.032 0.0073 0.0297 0.007 0.2441 -1.053zm-5.463 -0.5969l-0.0419 -0.0019 -0.0626 -0.0028 -0.0622 -0.0028 -0.0623 -0.0029 -0.0631 -0.0027 -0.063 -0.0027 -0.0635 -0.0029 -0.0633 -0.0026 -0.0634 -0.0028 -0.0644 -0.0025 -0.0645 -0.0026 -0.0641 -0.0025 -0.0643 -0.0026 -0.0653 -0.0024 -0.0647 -0.0025 -0.0657 -0.0024 -0.0653 -0.0025 -0.0654 -0.0024 -0.0663 -0.0023 -0.0664 -0.0023 -0.0662 -0.0022 -0.0663 -0.0023 -0.0671 -0.0022 -0.0669 -0.0021 -0.0669 -0.0022 -0.0678 -0.0022 -0.0675 -0.002 -0.0676 -0.0021 -0.0684 -0.0021 -0.0681 -0.002 -0.0687 -0.002 -0.0692 -0.002 -0.0681 -0.0019 -0.0296 -0.001 -0.0305 1.0806 0.0295 0.001 0.0693 0.0019 0.0678 0.0017 0.0675 0.002 0.0681 0.002 0.067 0.0021 0.0676 0.0021 0.0674 0.002 0.0665 0.0022 0.0668 0.0022 0.0666 0.0021 0.066 0.0022 0.066 0.0023 0.0662 0.0021 0.0653 0.0024 0.0648 0.0023 0.0654 0.0024 0.065 0.0022 0.0643 0.0024 0.0647 0.0025 0.0639 0.0024 0.0642 0.0026 0.0639 0.0025 0.0632 0.0026 0.063 0.0026 0.0631 0.0027 0.0633 0.0026 0.0621 0.0026 0.0627 0.0027 0.0617 0.0028 0.0623 0.0028 0.0619 0.0028 0.0611 0.0029 0.042 0.0018 0.0504 -1.0797zm-5.4213 -0.1396l-0.033 -0.0003 -0.0783 -0.0009c-0.6443,-0.0071 -1.2885,-0.0114 -1.9329,-0.0158l-0.0831 -0.0005 -0.0377 -0.0003 -0.0057 1.0809 0.0376 0.0003 0.0823 0.0004c0.6685,0.0046 1.3371,0.0094 2.0056,0.0167l0.033 0.0003 0.0122 -1.0808zm-5.4096 -0.0273l-0.0852 0c-0.6705,-0.001 -1.3412,-0.0008 -2.0118,-0.0008l-0.0656 0 0 1.0808 0.0656 0c0.67,0 1.3401,-0.0001 2.0101,0.0009l0.0852 0 0.0017 -1.0809zm-5.4052 -0.0007l-0.0392 0c-0.7075,0 -1.4151,0.0006 -2.1225,0.0006l0 1.0809c0.7074,0 1.415,-0.0006 2.1225,-0.0006l0.0392 0 0 -1.0809zm-5.4051 0.003l-0.0096 0c-0.7013,0.001 -1.4027,0.002 -2.104,0.0031l-0.0486 0.0001 0.0024 1.0809 0.0485 -0.0002c0.701,-0.001 1.4021,-0.002 2.1031,-0.003l0.0097 0 -0.0015 -1.0809zm-5.4052 0.0116l-0.0649 0.0001 -0.0977 0.0003 -0.097 0.0004 -0.0964 0.0003 -0.0972 0.0003 -0.0967 0.0004 -0.0966 0.0003 -0.0964 0.0005 -0.0964 0.0002 -0.0962 0.0005 -0.0961 0.0003 -0.0963 0.0004 -0.0954 0.0004 -0.0956 0.0003 -0.096 0.0004 -0.0954 0.0005 -0.0953 0.0004 -0.0951 0.0004 -0.0946 0.0005 -0.0948 0.0003 -0.0951 0.0004 -0.095 0.0004 -0.0827 0.0006 0.0058 1.0809 0.0827 -0.0006 0.0941 -0.0004 0.0943 -0.0005 0.0948 -0.0003 0.0954 -0.0004 0.0951 -0.0004 0.0953 -0.0004 0.0954 -0.0005 0.0951 -0.0004 0.0957 -0.0003 0.0962 -0.0004 0.0955 -0.0005 0.0961 -0.0003 0.0961 -0.0004 0.0964 -0.0003 0.0964 -0.0004 0.0966 -0.0003 0.0967 -0.0004 0.0964 -0.0003 0.0973 -0.0003 0.097 -0.0004 0.0968 -0.0003 0.0649 -0.0002 -0.0032 -1.0808zm-5.4071 0.0281l-0.0503 0.0003 -0.087 0.0007 -0.0872 0.0005 -0.0875 0.0008 -0.0868 0.0007 -0.0864 0.0007 -0.0864 0.0007 -0.0861 0.0008 -0.0859 0.0007 -0.0856 0.0007 -0.0855 0.0007 -0.085 0.0007 -0.0849 0.0008 -0.0847 0.0007 -0.0848 0.0007 -0.0842 0.0009 -0.0838 0.0007 -0.0839 0.0008 -0.0833 0.0008 -0.0832 0.0008 -0.0828 0.0008 -0.083 0.0008 -0.0819 0.0009 -0.0821 0.0007 -0.0825 0.0009 -0.0781 0.0008 0.0115 1.0809 0.0782 -0.0009 0.0812 -0.0008 0.0822 -0.0007 0.0827 -0.0009 0.0822 -0.0009 0.0828 -0.0007 0.0832 -0.0009 0.0833 -0.0007 0.0836 -0.0008 0.0838 -0.0008 0.0842 -0.0008 0.0839 -0.0008 0.0847 -0.0007 0.0849 -0.0007 0.085 -0.0007 0.0855 -0.0007 0.0856 -0.0008 0.0856 -0.0007 0.0862 -0.0007 0.0863 -0.0007 0.0865 -0.0007 0.0867 -0.0008 0.0866 -0.0007 0.0872 -0.0006 0.0879 -0.0007 0.0503 -0.0003 -0.0089 -1.0808zm-5.4092 0.0637l-0.0544 0.0008 -0.0676 0.0013 -0.0667 0.0012 -0.0669 0.0011 -0.0665 0.0012 -0.0662 0.0011 -0.0661 0.0012 -0.0656 0.0011 -0.0652 0.0012 -0.0651 0.0011 -0.0646 0.0012 -0.0637 0.0012 -0.0632 0.0008 -0.0644 0.0012 -0.0633 0.0011 -0.0624 0.0009 -0.062 0.001 -0.0624 0.0009 -0.0621 0.001 -0.0617 0.0008 -0.0614 0.001 -0.0598 0.0009 -0.0608 0.0007 -0.0604 0.0009 -0.0595 0.0007 -0.0598 0.0007 -0.059 0.0008 -0.059 0.0005 -0.059 0.0008 -0.0572 0.0005 -0.0584 0.0005 -0.0579 0.0005 -0.0562 0.0005 -0.0575 0.0003 -0.0493 0.0004 0.0069 1.0809 0.0493 -0.0005 0.0572 -0.0003 0.0591 -0.0004 0.0579 -0.0006 0.0581 -0.0004 0.0598 -0.0006 0.059 -0.0007 0.0591 -0.0006 0.0601 -0.0007 0.0598 -0.0007 0.0606 -0.0007 0.0604 -0.0009 0.0608 -0.0007 0.0622 -0.0009 0.0613 -0.001 0.0617 -0.0009 0.0619 -0.001 0.0624 -0.0008 0.0631 -0.001 0.0635 -0.0012 0.0633 -0.0011 0.063 -0.0009 0.0644 -0.0012 0.0649 -0.0011 0.0645 -0.0012 0.0649 -0.0011 0.0651 -0.0012 0.0656 -0.0011 0.0658 -0.0012 0.0662 -0.0011 0.0666 -0.0012 0.0668 -0.0011 0.0676 -0.0012 0.0676 -0.0013 0.0544 -0.0009 -0.0196 -1.0805zm-5.2934 -0.1348c-0.6261,-0.1043 -1.245,-0.2912 -1.7575,-0.6776l-0.6558 0.8592c0.6566,0.4959 1.4241,0.7494 2.2285,0.8834l0.1848 -1.065zm-3.1627 -3.1465l-0.0066 -0.0239 -0.0119 -0.0434c-0.1718,-0.6396 -0.2938,-1.2838 -0.3965,-1.9376l-0.0076 -0.0493 -1.0682 0.1643c0.1102,0.7098 0.2418,1.4115 0.4291,2.1054l0.0132 0.0485 0.0066 0.024 1.0419 -0.288zm-0.7672 -5.2348l-0.0019 -0.0271c-0.0516,-0.6986 -0.0909,-1.3964 -0.1248,-2.0959l-0.001 -0.0199 -1.0797 0.0496 0.001 0.021c0.0338,0.7091 0.0745,1.4168 0.1265,2.1247l0.0019 0.0271 1.078 -0.0795zm-0.2321 -5.3697l-0.0011 -0.0625c-0.0138,-0.6877 -0.0229,-1.3753 -0.0304,-2.0632l-0.0003 -0.0298 -1.0809 0.0098 0.0003 0.0307c0.0075,0.6915 0.0169,1.3826 0.0307,2.0741l0.0012 0.0626 1.0805 -0.0217zm-0.0477 -5.3937l0 -0.0648c0,-0.6962 -0.0005,-1.3923 -0.0005,-2.0885l0 -0.008 -1.0809 0 0 0.008c0,0.6965 0.0006,1.3928 0.0006,2.0894l0 0.0648 1.0808 -0.0009zm0.009 -5.3994c0.0043,-0.7171 0.0132,-1.4367 0.0312,-2.1535l-1.0805 -0.0248 -0.0016 0.0632c-0.015,0.7019 -0.0258,1.4043 -0.03,2.1062l1.0809 0.0089zm0.169 -5.3673l0.0025 -0.0368c0.05,-0.69 0.1138,-1.373 0.2046,-2.059l0.0026 -0.0194 -1.0708 -0.1473c-0.0987,0.7131 -0.162,1.4321 -0.2147,2.1499l-0.0025 0.0368 1.0783 0.0758zm0.9302 -5.1251l0.0077 -0.019 0.0129 -0.0303c0.2454,-0.5799 0.5737,-1.1 1.0431,-1.5302l-0.72 -0.8062c-0.5955,0.5382 -1.0041,1.1871 -1.3184,1.9145l-0.0151 0.0363 -0.0078 0.019 0.9976 0.4159z"></path></g></svg>