<svg fill="#545760" xmlns="http://www.w3.org/2000/svg" xmlns:xlink="http://www.w3.org/1999/xlink" version="1.1" x="0px" y="0px" viewBox="0 0 100 100" enable-background="new 0 0 100 100" xml:space="preserve"><path d="M29.326,58.746l-2.795,2.783l0.736,0.736L9.507,80.02l-3.901-3.902l17.76-17.758l0.724,0.723l2.79-2.777  c-6.311-7.508-6.311-18.462,0-25.955c7.174-8.521,19.882-9.621,28.397-2.446c8.521,7.161,9.62,19.882,2.446,28.401  C50.55,64.82,37.841,65.912,29.326,58.746z M60.208,43.325c0-9.881-8.019-17.899-17.906-17.899c-9.887,0-17.906,8.019-17.906,17.899  c0,9.888,8.019,17.894,17.906,17.894C52.189,61.219,60.208,53.213,60.208,43.325L60.208,43.325z"></path><g><path d="M39.601,58.975V52.52h-6.309c-0.216,0-0.445-0.09-0.598-0.242c-0.33-0.33-0.343-0.875-0.012-1.219l19.609-20.085   c4.466,3.628,6.634,9.372,5.654,15.053C56.459,54.666,48.236,60.463,39.601,58.975z"></path></g><g><path d="M56.688,26.454l6.951-7.115l14.736,15.09v-7.669h7.579v15.441l8.655,8.858c0.152,0.152,0.241,0.375,0.241,0.596   c0,0.477-0.388,0.865-0.864,0.865h-6.303v24.602H39.601V65.328c12.155,1.494,23.219-7.146,24.705-19.302   C65.208,38.635,62.361,31.284,56.688,26.454z"></path></g></svg>