<svg fill="#F1F2F5" xmlns="http://www.w3.org/2000/svg" viewBox="0 0 62 68" x="0px" y="0px"><path fill="#F1F2F5" fill-rule="evenodd" d="M337,925 L358,925 C359.104569,925 360,925.895431 360,927 L360,958 C360,959.104569 359.104569,960 358,960 L337,960 C335.895431,960 335,959.104569 335,958 L335,927 C335,925.895431 335.895431,925 337,925 Z M337,904 L348,904 C349.104569,904 350,904.895431 350,906 L350,917 C350,918.104569 349.104569,919 348,919 L337,919 C335.895431,919 335,918.104569 335,917 L335,906 C335,904.895431 335.895431,904 337,904 Z M300,920 L327,920 C328.104569,920 329,920.895431 329,922 L329,936 C329,937.104569 328.104569,938 327,938 L300,938 C298.895431,938 298,937.104569 298,936 L298,922 C298,920.895431 298.895431,920 300,920 Z M313,896 L327,896 C328.104569,896 329,896.895431 329,898 L329,912 C329,913.104569 328.104569,914 327,914 L313,914 C311.895431,914 311,913.104569 311,912 L311,898 C311,896.895431 311.895431,896 313,896 Z M310,944 L327,944 C328.104569,944 329,944.895431 329,946 L329,962 C329,963.104569 328.104569,964 327,964 L310,964 C308.895431,964 308,963.104569 308,962 L308,946 C308,944.895431 308.895431,944 310,944 Z" transform="translate(-298 -896)"></path></svg>