<svg fill="#F1F2F5" xmlns="http://www.w3.org/2000/svg" viewBox="0 0 52 68" x="0px" y="0px"><path fill="#F1F2F5" fill-rule="evenodd" d="M186,56 L206,56 C207.104569,56 208,56.8954305 208,58 L208,98 C208,99.1045695 207.104569,100 206,100 L186,100 C184.895431,100 184,99.1045695 184,98 L184,58 C184,56.8954305 184.895431,56 186,56 Z M188,96 L204,96 L204,60 L188,60 L188,96 Z M186,104 L206,104 C207.104569,104 208,104.895431 208,106 L208,122 C208,123.104569 207.104569,124 206,124 L186,124 C184.895431,124 184,123.104569 184,122 L184,106 C184,104.895431 184.895431,104 186,104 Z M188,108 L188,120 L204,120 L204,108 L188,108 Z M214,76 C212.895431,76 212,75.1045695 212,74 L212,58 C212,56.8954305 212.895431,56 214,56 L234,56 C235.104569,56 236,56.8954305 236,58 L236,74 C236,75.1045695 235.104569,76 234,76 L214,76 Z M216,72 L232,72 L232,60 L216,60 L216,72 Z M214,100 C212.895431,100 212,99.1045695 212,98 L212,82 C212,80.8954305 212.895431,80 214,80 L234,80 C235.104569,80 236,80.8954305 236,82 L236,98 C236,99.1045695 235.104569,100 234,100 L214,100 Z M216,96 L232,96 L232,84 L216,84 L216,96 Z M214,124 C212.895431,124 212,123.104569 212,122 L212,106 C212,104.895431 212.895431,104 214,104 L234,104 C235.104569,104 236,104.895431 236,106 L236,122 C236,123.104569 235.104569,124 234,124 L214,124 Z M216,120 L232,120 L232,108 L216,108 L216,120 Z" transform="translate(-184 -56)"></path></svg>